<svg width="506" height="218" viewBox="0 0 506 218" fill="none" xmlns="http://www.w3.org/2000/svg">
<mask id="mask0_125_9713" style="mask-type:alpha" maskUnits="userSpaceOnUse" x="0" y="0" width="506" height="218">
<rect x="0.948486" y="0.914062" width="504.771" height="216.577" rx="17.2571" fill="white"/>
</mask>
<g mask="url(#mask0_125_9713)">
<path d="M223.567 257.01H56.9581C55.6529 257.008 54.4019 256.488 53.4798 255.564C52.5577 254.64 52.0398 253.388 52.0398 252.083V17.8779C52.0512 16.5802 52.5741 15.3394 53.495 14.4249C54.4158 13.5105 55.6603 12.9964 56.9581 12.9941H223.567C224.874 12.9941 226.127 13.5132 227.051 14.4372C227.975 15.3612 228.494 16.6144 228.494 17.9211V252.083C228.494 253.39 227.975 254.643 227.051 255.567C226.127 256.491 224.874 257.01 223.567 257.01ZM56.9581 13.1667C55.7101 13.169 54.514 13.6664 53.6323 14.5496C52.7507 15.4329 52.2555 16.6299 52.2555 17.8779V252.083C52.2555 253.331 52.7507 254.528 53.6323 255.411C54.514 256.295 55.7101 256.792 56.9581 256.794H223.567C224.816 256.792 226.013 256.295 226.896 255.412C227.779 254.529 228.276 253.332 228.278 252.083V17.8779C228.276 16.6291 227.779 15.4321 226.896 14.5491C226.013 13.6661 224.816 13.169 223.567 13.1667H56.9581Z" fill="#EBEBEB"/>
<path d="M410.211 257.01H243.593C242.287 257.008 241.035 256.488 240.112 255.565C239.188 254.641 238.669 253.389 238.666 252.083V17.8779C238.68 16.5794 239.205 15.3386 240.127 14.4244C241.049 13.5102 242.295 12.9963 243.593 12.9941H410.211C411.507 12.9986 412.749 13.5138 413.668 14.428C414.587 15.3422 415.109 16.5817 415.121 17.8779V252.083C415.121 253.387 414.604 254.638 413.684 255.561C412.763 256.484 411.515 257.006 410.211 257.01ZM243.593 13.1667C242.344 13.169 241.147 13.6661 240.264 14.5491C239.381 15.4321 238.884 16.6291 238.882 17.8779V252.083C238.884 253.332 239.381 254.529 240.264 255.412C241.147 256.295 242.344 256.792 243.593 256.794H410.211C411.46 256.792 412.657 256.295 413.54 255.412C414.423 254.529 414.92 253.332 414.922 252.083V17.8779C414.92 16.6291 414.423 15.4321 413.54 14.5491C412.657 13.6661 411.46 13.169 410.211 13.1667H243.593Z" fill="#EBEBEB"/>
<path d="M391.132 27.6367H212.383V158.204H391.132V27.6367Z" fill="#E6E6E6"/>
<path d="M399.037 27.6367H214.221V158.204H399.037V27.6367Z" fill="#F0F0F0"/>
<path d="M391.132 158.215H212.383V164.479H394.825L391.132 158.215Z" fill="#E6E6E6"/>
<path d="M405.569 158.215H220.753L222.453 164.479H407.269L405.569 158.215Z" fill="#F0F0F0"/>
<path d="M387.974 147.153V38.709L225.282 38.709V147.153H387.974Z" fill="#FAFAFA"/>
<path d="M264.828 147.141L301.871 38.6973H337.239L300.197 147.141H264.828Z" fill="white"/>
<path d="M307.798 147.141L344.831 38.6973H358.62L321.586 147.141H307.798Z" fill="white"/>
<path d="M387.974 147.153V38.709H386.568V147.153H387.974Z" fill="#E6E6E6"/>
<path d="M245.431 208.691C245.008 208.691 244.568 208.691 244.171 208.735C235.292 209.442 228.105 217.907 227.544 228.321C227.414 230.618 227.609 232.922 228.122 235.164C230.082 244.15 231.023 253.328 230.926 262.525V289.403C230.864 290.268 231.146 291.123 231.709 291.782C232.273 292.441 233.074 292.851 233.938 292.924H383.695V208.691H245.431Z" fill="#F0F0F0"/>
<path d="M401.617 229.701C401.617 217.621 392.902 207.905 382.435 208.742C373.557 209.449 366.369 217.914 365.808 228.329C365.678 230.625 365.873 232.929 366.386 235.171C368.346 244.157 369.287 253.335 369.191 262.532V289.41C369.128 290.275 369.41 291.13 369.973 291.789C370.537 292.448 371.338 292.858 372.202 292.931H395.18C396.044 292.858 396.845 292.448 397.408 291.789C397.972 291.13 398.253 290.275 398.191 289.41V260.936C398.121 252.312 399.053 243.709 400.97 235.3C401.401 233.465 401.618 231.586 401.617 229.701Z" fill="#FAFAFA"/>
<path d="M166.618 188.215H325.893C329.783 188.215 333.514 189.76 336.265 192.511C339.016 195.262 340.561 198.993 340.561 202.883V253.335H151.949V202.901C151.947 200.973 152.325 199.064 153.061 197.282C153.797 195.5 154.877 193.881 156.239 192.517C157.602 191.153 159.22 190.071 161 189.333C162.781 188.595 164.69 188.215 166.618 188.215Z" fill="#E6E6E6"/>
<path d="M177.343 188.215H329.698C333.538 188.215 337.221 189.74 339.936 192.456C342.652 195.171 344.177 198.854 344.177 202.694V253.343H162.865V202.694C162.865 198.854 164.39 195.171 167.105 192.456C169.821 189.74 173.503 188.215 177.343 188.215Z" fill="#F5F5F5"/>
<path d="M145.529 208.691C145.115 208.691 144.667 208.691 144.278 208.735C135.391 209.442 128.212 217.907 127.651 228.321C127.522 230.618 127.714 232.921 128.221 235.164C130.183 244.15 131.127 253.328 131.033 262.525V289.403C130.971 290.268 131.253 291.123 131.816 291.782C132.38 292.441 133.181 292.851 134.045 292.924H206.81V208.691H145.529Z" fill="#F0F0F0"/>
<path d="M224.739 229.701C224.739 217.621 216.025 207.905 205.558 208.742C196.671 209.449 189.492 217.914 188.931 228.329C188.802 230.625 188.994 232.928 189.5 235.171C191.463 244.157 192.407 253.335 192.313 262.532V289.41C192.251 290.275 192.532 291.13 193.096 291.789C193.66 292.448 194.461 292.858 195.325 292.931H218.303C219.167 292.858 219.967 292.448 220.531 291.789C221.095 291.13 221.376 290.275 221.314 289.41V260.936C221.245 252.313 222.175 243.71 224.084 235.3C224.518 233.465 224.738 231.586 224.739 229.701Z" fill="#FAFAFA"/>
<path d="M74.6895 162.537C77.8303 156.73 98.7977 164.642 106.865 174.272C112.293 180.576 115.612 188.421 116.357 196.706C116.892 186.222 117.461 174.954 117.979 164.323C116.4 161.666 112.802 155.548 110.213 150.707C101.671 134.537 79.0642 128.506 71.8334 118.298C62.342 104.924 63.8175 84.8626 73.1967 77.6319C81.3507 71.3503 103.897 113.872 106.434 118.643C115.183 134.995 117.202 147.118 118.238 158.87C118.721 148.887 119.17 139.714 119.498 132.639C120.576 109.566 120.421 102.137 120.274 99.8504C119.282 98.7287 118.117 97.4344 117.435 96.7355C111.672 90.8336 98.4526 83.7927 92.2055 75.2418C83.0764 62.7217 85.7427 47.7511 93.1546 42.1771C100.92 36.3528 112.905 50.1412 118.833 63.7916C124.761 77.442 120.895 90.5402 122.034 101.852C122.285 104.078 122.103 112.526 121.672 124.287C124.649 111.68 129.438 103.233 137.661 95.3722C147.825 85.6996 156.842 73.9216 164.556 75.4488C172.27 76.9761 166.963 92.5679 160.009 103.509C153.813 113.259 125.969 122.966 121.422 130.801C120.775 146.686 119.782 166.8 118.764 185.532C121.586 175.86 120.171 175.048 129.981 160.242C135.814 151.441 157.964 140.595 160.086 146.643C162.209 152.692 157.498 164.125 148.869 172.132C141.906 178.586 127.453 178.578 123.846 182.581C122.984 183.513 120.171 187.103 118.548 189.156C117.297 212.031 116.029 232.213 115.373 239.098L113.967 239.167C114.165 237.39 114.83 225.759 115.615 210.357C112.681 202.168 89.3925 197.414 82.6968 188.846C75.6817 179.906 70.9274 169.5 74.6895 162.537Z" fill="#E6E6E6"/>
<path d="M166.703 324.693H169.076L184.401 146.893H182.036L166.703 324.693Z" fill="#263238"/>
<path d="M211.935 324.693H209.57L194.237 146.893H196.61L211.935 324.693Z" fill="#263238"/>
<path d="M102.291 225.843H307.272L289.367 67.9316H84.387L102.291 225.843Z" fill="#E0E0E0"/>
<path d="M307.522 226.067H102.085L84.1372 67.707H289.575L307.522 226.067ZM102.49 225.619H306.987L289.143 68.1557H84.6463L102.49 225.619Z" fill="#7781FF"/>
<path d="M241.97 64.998H234.584V65.4467H241.97V64.998Z" fill="#7781FF"/>
<path d="M270.455 64.998H249.772V65.4467H270.455V64.998Z" fill="#7781FF"/>
<path d="M104.397 225.843H309.377L291.482 67.9316H86.5015L104.397 225.843Z" fill="white"/>
<path d="M309.635 226.067H104.198L86.2502 67.707H291.679L309.635 226.067ZM104.603 225.619H309.1L291.282 68.1557H86.7852L104.603 225.619Z" fill="#7781FF"/>
<path d="M198.88 141.654L220.314 105.138C211.356 99.209 200.678 96.434 189.967 97.2515C179.911 98.0293 170.539 102.641 163.788 110.134L198.88 141.654Z" fill="#7781FF"/>
<path opacity="0.7" d="M198.88 141.654L220.314 105.138C211.356 99.209 200.678 96.434 189.967 97.2515C179.911 98.0293 170.539 102.641 163.788 110.134L198.88 141.654Z" fill="white"/>
<path d="M198.88 141.654L229.253 194.047C235.002 191.23 240.146 187.317 244.396 182.528C264.242 160.094 260.091 123.207 235.129 100.781C232.483 98.4035 229.656 96.2369 226.673 94.3008L198.88 141.654Z" fill="#7781FF"/>
<path opacity="0.2" d="M198.88 141.654L229.253 194.047C235.002 191.23 240.146 187.317 244.396 182.528C264.242 160.094 260.091 123.207 235.129 100.781C232.483 98.4035 229.656 96.2369 226.673 94.3008L198.88 141.654Z" fill="black"/>
<path d="M198.881 141.653L133.658 124.689C130.206 147.279 139.387 171.456 157.818 187.997C179.432 207.429 209.762 212.666 233.309 201.095L198.881 141.653Z" fill="#263238"/>
<path d="M250.471 86.932H280.818L280.119 80.7539H249.772L250.471 86.932Z" fill="#E0E0E0"/>
<path d="M262.472 96.5452H281.903L281.204 90.3672H261.773L262.472 96.5452Z" fill="#E0E0E0"/>
<path d="M270.152 206.844H294.407L295.114 213.022H270.851L270.152 206.844Z" fill="#E0E0E0"/>
<path d="M273.88 197.23H293.32L294.019 203.409H274.587L273.88 197.23Z" fill="#E0E0E0"/>
<path d="M256.595 197.23H270.677L271.376 203.409H257.303L256.595 197.23Z" fill="#E0E0E0"/>
<path d="M132.206 90.3672H101.859L102.558 96.5452H132.905L132.206 90.3672Z" fill="#E0E0E0"/>
<path d="M120.204 80.7539H100.772L101.471 86.932H120.912L120.204 80.7539Z" fill="#E0E0E0"/>
<path d="M138.937 203.409H114.674L113.975 197.23H138.23L138.937 203.409Z" fill="#E0E0E0"/>
<path d="M135.201 213.022H115.761L115.062 206.844H134.502L135.201 213.022Z" fill="#E0E0E0"/>
<path d="M152.484 213.022H138.402L137.703 206.844H151.785L152.484 213.022Z" fill="#E0E0E0"/>
<path d="M373.091 108.125C373.393 108.608 373.608 108.988 373.85 109.393C374.092 109.799 374.307 110.196 374.523 110.601C374.954 111.404 375.386 112.215 375.757 113.026C376.559 114.657 377.258 116.314 377.931 117.979C379.23 121.325 380.311 124.752 381.167 128.238C381.391 129.101 381.564 129.964 381.754 130.827L381.892 131.483C381.892 131.569 381.944 131.741 381.969 131.905L382.039 132.389C382.116 133.056 382.116 133.731 382.039 134.399C381.911 135.741 381.486 137.038 380.796 138.196C380.179 139.217 379.398 140.13 378.484 140.896C376.905 142.189 375.108 143.189 373.177 143.847C372.292 144.171 371.387 144.439 370.468 144.65C369.547 144.871 368.613 145.035 367.672 145.142L366.809 141.405C369.639 140.146 372.651 138.42 374.264 136.504C374.622 136.099 374.913 135.638 375.127 135.141C375.27 134.785 375.326 134.401 375.291 134.019C375.275 133.829 375.24 133.642 375.187 133.458L374.911 132.509C374.678 131.716 374.463 130.922 374.195 130.136C373.211 126.987 372.064 123.898 370.744 120.878C370.105 119.359 369.415 117.875 368.716 116.4C368.354 115.666 367.991 114.942 367.612 114.234L367.042 113.181L366.507 112.215L373.091 108.125Z" fill="#B55B52"/>
<path d="M368.285 140.887L362.124 141.801L365.187 146.849C365.187 146.849 369.562 146.133 370.925 143.285L368.285 140.887Z" fill="#B55B52"/>
<path d="M357.87 143.967L359.906 148.557L365.187 146.849L362.124 141.801L357.87 143.967Z" fill="#B55B52"/>
<path d="M356.714 81.7988C355.851 86.3029 353.927 96.1395 357.093 99.056C357.093 99.056 355.894 103.638 347.533 103.802C338.344 103.983 343.115 99.3321 343.115 99.3321C348.12 98.0378 347.973 94.3189 347.076 90.8502L356.714 81.7988Z" fill="#B55B52"/>
<path d="M340.855 71.8366C340.909 71.8482 340.965 71.8482 341.019 71.8366C341.102 71.7908 341.164 71.7154 341.193 71.6257C341.221 71.5359 341.215 71.4386 341.175 71.3534C340.93 70.8464 340.567 70.4055 340.117 70.0676C339.666 69.7298 339.141 69.505 338.586 69.4119C338.538 69.4072 338.49 69.4119 338.445 69.4259C338.399 69.4398 338.356 69.4627 338.319 69.4932C338.282 69.5236 338.252 69.5611 338.23 69.6035C338.207 69.6458 338.193 69.6922 338.189 69.7398C338.183 69.7859 338.187 69.8326 338.199 69.8774C338.212 69.9221 338.233 69.9638 338.262 70C338.291 70.0363 338.327 70.0663 338.368 70.0883C338.409 70.1103 338.454 70.1239 338.5 70.1281C338.943 70.2044 339.362 70.3861 339.721 70.6579C340.08 70.9296 340.368 71.2836 340.562 71.6899C340.595 71.7362 340.64 71.7737 340.691 71.7993C340.742 71.8248 340.798 71.8376 340.855 71.8366Z" fill="#263238"/>
<path d="M338.611 75.4824C337.918 76.8113 337.048 78.0393 336.022 79.1323C336.308 79.3877 336.646 79.5767 337.013 79.6857C337.38 79.7946 337.767 79.8207 338.145 79.7622L338.611 75.4824Z" fill="#A02724"/>
<path d="M337.412 78.7957C335.799 78.7957 334.479 76.2072 334.479 72.9369C334.479 69.6667 335.799 67.0781 337.412 67.0781C339.026 67.0781 340.355 69.6667 340.355 72.9369C340.355 76.2072 339.035 78.7957 337.412 78.7957ZM337.412 67.2938C335.92 67.2938 334.694 69.8306 334.694 72.9369C334.694 76.0432 335.92 78.58 337.412 78.58C338.905 78.58 340.139 76.0518 340.139 72.9369C340.139 69.822 338.914 67.2938 337.412 67.2938Z" fill="#7781FF"/>
<path d="M339.285 74.4984C339.208 75.1024 338.828 75.5597 338.422 75.5166C338.017 75.4735 337.767 74.9557 337.836 74.3431C337.905 73.7305 338.284 73.2818 338.698 73.3163C339.113 73.3508 339.354 73.8858 339.285 74.4984Z" fill="#263238"/>
<path d="M338.861 73.3945L337.455 72.8164C337.455 72.8164 338.067 74.0158 338.861 73.3945Z" fill="#263238"/>
<path d="M370.175 100.54C373.333 101.161 376.759 112.404 376.759 112.404L367.914 122.034C367.914 122.034 360.459 111.559 361.943 107.624C363.488 103.526 366.456 99.7981 370.175 100.54Z" fill="#263238"/>
<path opacity="0.4" d="M365.23 107.831C363.625 106.408 362.555 106.865 361.822 108.038C361.123 111.412 365.454 118.393 367.197 120.981C367.974 117.797 368.845 111.067 365.23 107.831Z" fill="black"/>
<path d="M329.697 103.147C329.119 106.46 328.999 116.547 334.176 147.153L364.962 146.549C364.376 134.046 364.315 126.332 370.14 100.55C365.821 99.7433 361.449 99.253 357.059 99.083C352.399 98.8404 347.727 98.9327 343.08 99.3591C338.602 99.8509 333.693 100.826 331.475 101.292C331.026 101.386 330.617 101.614 330.3 101.945C329.983 102.276 329.773 102.695 329.697 103.147Z" fill="#263238"/>
<path d="M359.941 74.5343C358.603 81.9463 358.215 85.1043 353.978 88.5385C347.636 93.7157 338.835 90.5749 337.929 82.9472C337.118 76.0443 339.448 65.1119 347.093 62.903C348.763 62.3985 350.534 62.3344 352.236 62.717C353.938 63.0996 355.512 63.9158 356.805 65.0865C358.098 66.2572 359.066 67.7424 359.616 69.3979C360.165 71.0534 360.277 72.8228 359.941 74.5343Z" fill="#B55B52"/>
<path d="M339.189 65.2662C339.189 65.0333 339.025 64.783 339.042 64.5501C339.059 64.3171 339.128 64.0755 339.154 63.8425C339.18 63.6095 339.154 63.3593 339.154 63.1177C339.154 62.8761 339.387 62.6777 339.439 62.4447C339.491 62.2117 339.327 61.927 339.396 61.694C339.465 61.461 339.577 61.2453 339.655 61.021C339.732 60.7966 339.948 60.6241 340.034 60.3997C340.121 60.1754 340.224 59.9597 340.328 59.7439C340.431 59.5282 340.371 59.2349 340.483 59.0191C340.595 58.8034 340.94 58.7344 341.061 58.5273C341.182 58.3202 341.061 57.9406 341.165 57.7421C341.268 57.5437 341.553 57.4229 341.691 57.233C341.829 57.0432 341.924 56.793 342.071 56.6118C342.217 56.4306 342.433 56.2925 342.597 56.1113C342.761 55.9301 343.046 55.8783 343.218 55.7144C343.391 55.5505 343.374 55.1881 343.555 55.0241C343.736 54.8602 343.96 54.7566 344.142 54.6013C344.323 54.446 344.582 54.3856 344.771 54.2389C344.961 54.0922 345.048 53.8075 345.246 53.6781C345.444 53.5486 345.85 53.7298 346.057 53.6004C346.264 53.471 346.445 53.3415 346.652 53.2207C346.86 53.0999 347.049 52.9705 347.265 52.867C347.481 52.7634 347.55 52.3665 347.774 52.2716C347.999 52.1767 348.283 52.2716 348.508 52.1594C348.732 52.0473 348.879 51.7884 349.103 51.7107C349.327 51.6331 349.664 51.8833 349.888 51.8143C350.113 51.7453 350.268 51.4001 350.501 51.3397C350.734 51.2793 350.967 51.2017 351.2 51.1499C351.433 51.0981 351.692 51.1499 351.933 51.1499C352.175 51.1499 352.408 51.1499 352.649 51.0809C352.891 51.0118 353.115 51.0809 353.348 51.0118C353.581 50.9428 353.823 51.0118 354.056 50.9428C354.289 50.8738 354.53 50.9428 354.763 50.891C354.996 50.8393 355.229 50.822 355.471 50.8047C355.712 50.7875 355.937 50.7185 356.178 50.7098C356.42 50.7012 356.662 50.8997 356.895 50.891C357.128 50.8824 357.369 50.7357 357.602 50.7357C357.835 50.7357 358.085 50.5977 358.318 50.5977C358.551 50.5977 358.784 50.8393 359.026 50.8479C359.267 50.8565 359.483 51.0118 359.716 51.0291C359.949 51.0463 360.217 50.8047 360.45 50.8306C360.683 50.8565 360.898 51.0809 361.131 51.1154C361.364 51.1499 361.623 51.0032 361.856 51.0377C362.089 51.0722 362.296 51.2621 362.529 51.3052C362.762 51.3483 363.038 51.193 363.262 51.2448C363.487 51.2966 363.72 51.3915 363.944 51.4519C364.168 51.5123 364.41 51.5554 364.634 51.6245C364.859 51.6935 365.074 51.8057 365.299 51.8833C365.523 51.961 365.696 52.1853 365.911 52.2716C366.127 52.3579 366.334 52.4787 366.55 52.5736C366.766 52.6685 367.076 52.5736 367.283 52.6513C367.49 52.7289 367.732 52.8325 367.939 52.9446C368.146 53.0568 368.31 53.2466 368.517 53.3674C368.724 53.4882 368.802 53.7989 369 53.9283C369.199 54.0577 369.458 54.075 369.648 54.213C369.837 54.3511 370.183 54.2907 370.364 54.4374C370.545 54.5841 370.528 54.9896 370.709 55.1363C370.89 55.283 371.209 55.2743 371.391 55.4383C371.572 55.6022 371.718 55.7748 371.891 55.9387C372.064 56.1027 372.055 56.4306 372.21 56.6031C372.366 56.7757 372.581 56.8965 372.737 57.0777C372.892 57.2589 373.108 57.3797 373.254 57.5609C373.401 57.7421 373.625 57.8715 373.763 58.0614C373.901 58.2512 373.807 58.605 373.936 58.7948C374.065 58.9846 374.428 59.045 374.549 59.2521C374.669 59.4592 374.609 59.7526 374.721 59.9597C374.833 60.1667 374.963 60.3652 375.066 60.5723C375.17 60.7794 375.463 60.9088 375.558 61.1245C375.653 61.3402 375.826 61.5301 375.912 61.7458C375.998 61.9615 375.972 62.229 376.059 62.4533C376.145 62.6777 376.231 62.8934 376.3 63.1177C376.369 63.342 376.404 63.5837 376.473 63.808C376.542 64.0323 376.568 64.2739 376.628 64.4983C376.689 64.7226 376.55 64.9987 376.628 65.2317C376.706 65.4647 377.12 65.6114 377.154 65.8443C377.189 66.0773 376.852 66.3707 376.887 66.6123C376.921 66.8539 377.042 67.061 377.068 67.2939C377.094 67.5269 377.016 67.7685 377.068 68.0015C377.12 68.2345 377.068 68.4674 377.068 68.709C377.068 68.9506 377.189 69.175 377.198 69.4166C377.206 69.6582 377.525 69.8998 377.525 70.1414C377.525 70.383 377.525 70.6332 377.482 70.8748C377.439 71.1164 377.431 71.358 377.405 71.5996C377.379 71.8412 377.146 72.0569 377.111 72.2899C377.077 72.5229 377.111 72.7731 377.042 73.0147C376.973 73.2563 376.965 73.4893 376.921 73.7222C376.878 73.9552 376.921 74.2227 376.921 74.4557C376.921 74.6886 376.706 74.8957 376.645 75.1287C376.585 75.3617 376.343 75.5429 376.274 75.7758C376.205 76.0088 376.274 76.2763 376.205 76.5093C376.136 76.7422 375.955 76.9234 375.869 77.1478C375.783 77.3721 375.938 77.6914 375.869 77.9157C375.8 78.1401 375.688 78.3644 375.584 78.5801C375.481 78.7958 375.256 78.9684 375.153 79.1841C375.049 79.3998 375.066 79.6846 374.954 79.8917C374.842 80.0987 374.549 80.2195 374.428 80.4266C374.307 80.6337 374.04 80.7545 373.919 80.9616C373.798 81.1687 373.781 81.4362 373.643 81.6346C373.505 81.8331 373.289 81.9711 373.151 82.1696C373.013 82.368 373.03 82.6787 372.883 82.8685C372.737 83.0583 372.728 83.3603 372.573 83.5415C372.417 83.7227 372.133 83.809 371.977 83.9902C371.822 84.1714 371.77 84.4562 371.606 84.6374C371.442 84.8186 371.175 84.8962 371.011 85.0602C370.847 85.2241 370.709 85.4485 370.536 85.6124C370.364 85.7763 370.096 85.854 369.915 86.0093C369.734 86.1646 369.484 86.2509 369.302 86.3976C369.121 86.5443 369.061 86.8722 368.871 87.0188C368.681 87.1655 368.388 87.1828 368.189 87.3209C367.991 87.4589 367.706 87.4503 367.508 87.5883C367.309 87.7264 367.249 88.0802 367.042 88.201C366.835 88.3218 366.533 88.2786 366.317 88.3908C366.101 88.503 365.929 88.6755 365.713 88.7877C365.497 88.8999 365.376 89.1846 365.152 89.2882C364.928 89.3917 364.686 89.4262 364.462 89.5211C364.237 89.6161 363.944 89.5211 363.711 89.5902L363.029 89.8059C362.805 89.8835 362.667 90.2546 362.434 90.315C362.201 90.3754 361.865 90.0561 361.632 90.1079C361.399 90.1596 361.209 90.4099 360.976 90.4617C360.743 90.5134 360.501 90.5479 360.268 90.5824C360.035 90.617 359.777 90.4962 359.535 90.5307C359.293 90.5652 359.069 90.5997 358.827 90.617C358.586 90.6342 358.37 91.0398 358.128 91.0484C357.887 91.057 357.654 90.7464 357.412 90.7464V90.8327C357.102 90.8327 356.791 90.7809 356.472 90.7809C356.153 90.7809 355.997 90.6342 355.756 90.6256C355.514 90.617 355.247 90.988 355.005 90.9621C354.763 90.9362 354.556 90.6687 354.315 90.6342C354.073 90.5997 353.857 90.4875 353.624 90.4444C353.391 90.4012 353.089 90.5825 352.856 90.5221C352.623 90.4617 352.399 90.3667 352.166 90.2977C351.933 90.2287 351.761 89.9871 351.536 89.9008C351.312 89.8145 351.044 89.8231 350.829 89.7282C350.613 89.6333 350.32 89.6678 350.104 89.5556C349.888 89.4435 349.776 89.1415 349.56 89.0207C349.345 88.8999 349.051 88.943 348.844 88.8136C348.637 88.6842 348.628 88.27 348.43 88.1319C348.231 87.9939 347.938 87.9939 347.757 87.8386C347.576 87.6833 347.472 87.433 347.291 87.2691C347.11 87.1051 346.963 86.9412 346.791 86.7686C346.618 86.5961 346.152 86.7082 345.988 86.527C345.824 86.3458 345.928 85.9489 345.772 85.7591C345.617 85.5693 345.263 85.5434 345.117 85.3449C344.97 85.1465 344.815 84.9652 344.676 84.7582C344.538 84.5511 344.763 84.1542 344.676 83.9385C344.59 83.7227 344.34 83.5847 344.236 83.3603C344.133 83.136 343.9 82.9893 343.805 82.765C343.71 82.5406 343.753 82.2731 343.676 82.0402C343.598 81.8072 343.589 81.5742 343.52 81.3413C343.451 81.1083 343.028 80.9702 342.977 80.7286C342.925 80.487 343.072 80.2109 343.028 79.9779C342.985 79.745 342.804 79.512 342.778 79.2704C342.752 79.0288 343.097 78.7699 343.08 78.5197C343.063 78.2695 343.037 78.0538 343.037 77.8122C343.037 77.5706 342.709 77.3635 342.692 77.1564C342.675 76.9493 342.692 76.7163 342.649 76.5093C342.606 76.3022 342.701 76.0606 342.701 75.8448C342.683 75.6237 342.683 75.4016 342.701 75.1805C342.701 74.982 342.839 74.7835 342.908 74.5506C342.718 74.3866 342.468 74.2917 342.295 74.1278C342.122 73.9638 342.131 73.5928 341.967 73.4116C341.803 73.2304 341.657 73.0406 341.51 72.8421C341.363 72.6437 341.053 72.566 340.923 72.3589C340.794 72.1518 340.863 71.8239 340.742 71.6082C340.621 71.3925 340.526 71.1854 340.423 70.9611C340.319 70.7367 340.19 70.5383 340.103 70.3053C340.017 70.0723 339.957 69.848 339.888 69.6064C339.819 69.3648 339.689 69.1577 339.637 68.9161C339.586 68.6745 339.482 68.4588 339.439 68.2086C339.396 67.9583 339.102 67.7599 339.068 67.5097C339.033 67.2594 339.068 67.0092 339.068 66.759C339.068 66.5087 339.387 66.2499 339.379 65.9997C339.37 65.7494 339.189 65.5165 339.189 65.2662Z" fill="#263238"/>
<path d="M341.708 75.5798C340.932 77.3055 342.002 77.6421 341.872 78.8759C341.588 81.5853 342.839 81.4645 343.805 80.1098C344.668 78.8759 345.531 76.4341 344.763 75.0017C343.995 73.5694 342.399 74.0094 341.708 75.5798Z" fill="#B55B52"/>
<path d="M342.322 146.977C342.322 146.977 347.025 198.835 351.753 228.025C355.576 251.599 358.811 306.744 358.811 306.744H369.165C369.165 306.744 372.539 252.919 370.529 229.57C365.455 170.481 375.991 165.451 365.007 146.537L342.322 146.977Z" fill="#7781FF"/>
<path opacity="0.4" d="M352.831 164.324C350.139 168.276 346.549 172.832 345.385 177.655C346.316 186.405 347.404 196.077 348.577 205.379C351.416 197.553 356.282 181.918 352.831 164.324Z" fill="black"/>
<path d="M334.193 147.142C334.193 147.142 324.607 207.301 321.734 230.244C318.748 254.119 342.641 302.767 342.641 302.767L352.9 297.116C352.9 297.116 339.189 246.699 340.13 234.541C343.486 208.992 361.459 146.607 361.459 146.607L334.193 147.142Z" fill="#7781FF"/>
<path d="M351.338 168.085H345.108C345.058 168.084 345.009 168.066 344.97 168.033L342.002 165.721C341.973 165.697 341.95 165.666 341.935 165.632C341.92 165.597 341.914 165.56 341.916 165.522L342.649 154.115C342.653 154.059 342.679 154.006 342.721 153.968C342.762 153.929 342.817 153.908 342.873 153.908H355.324C355.356 153.908 355.388 153.914 355.418 153.925C355.447 153.937 355.474 153.955 355.497 153.977C355.534 154.028 355.555 154.088 355.557 154.15L354.824 165.557C354.815 165.624 354.782 165.686 354.729 165.729L351.467 168.016C351.432 168.051 351.387 168.075 351.338 168.085ZM345.186 167.628H351.226L354.341 165.445L355.048 154.383H343.055L342.338 165.462L345.186 167.628Z" fill="white"/>
<path d="M365.437 144.725L366.834 147.452C366.947 147.659 366.696 147.883 366.343 147.892L334.046 148.522C333.77 148.522 333.537 148.393 333.519 148.22L333.226 145.476C333.226 145.286 333.45 145.122 333.752 145.114L364.927 144.501C365.024 144.491 365.122 144.506 365.212 144.546C365.301 144.585 365.379 144.647 365.437 144.725Z" fill="#E0E0E0"/>
<path d="M361.27 148.292H362.133C362.305 148.292 362.426 148.197 362.418 148.093L362.003 144.53C362.003 144.426 361.848 144.34 361.684 144.34H360.821C360.657 144.34 360.528 144.435 360.537 144.538L360.951 148.102C360.951 148.214 361.097 148.292 361.27 148.292Z" fill="#263238"/>
<path d="M341.027 148.686H341.89C342.054 148.686 342.183 148.591 342.166 148.488L341.752 144.924C341.752 144.821 341.597 144.734 341.433 144.734H340.57C340.406 144.734 340.277 144.829 340.294 144.933L340.699 148.496C340.717 148.609 340.863 148.686 341.027 148.686Z" fill="#263238"/>
<path opacity="0.4" d="M330.138 118.601C330.285 120.034 330.457 121.57 330.656 123.244C334.435 121.026 334.469 114.684 335.375 111.768C333.676 112.026 329.637 112.863 330.138 118.601Z" fill="black"/>
<path d="M333.538 110.498C332.326 114.409 330.868 118.239 329.172 121.965C327.489 125.819 325.422 129.493 323.002 132.932C322.197 134.033 321.211 134.99 320.086 135.762C319.081 136.451 318.005 137.03 316.876 137.488C314.823 138.313 312.68 138.893 310.491 139.214C306.37 139.823 302.187 139.889 298.049 139.412L298.143 135.581C301.899 135.203 305.616 134.513 309.257 133.519C310.943 133.051 312.577 132.412 314.132 131.612C315.38 131.016 316.448 130.103 317.23 128.963C318.17 127.453 319.016 125.805 319.818 124.131C320.621 122.457 321.38 120.68 322.114 118.954C323.546 115.442 324.909 111.766 326.117 108.229L333.538 110.498Z" fill="#B55B52"/>
<path d="M329.905 101.919C326.513 103.826 322.027 114.37 322.027 114.37L333.244 121.601C333.244 121.601 339.758 111.652 338.956 105.863C338.326 101.557 333.434 99.9261 329.905 101.919Z" fill="#263238"/>
<path d="M299.551 139.101L294.287 141.966L292.622 135.926C292.622 135.926 297.178 134.373 299.827 135.883L299.551 139.101Z" fill="#B55B52"/>
<path d="M305.245 166.091L280.006 115.674C276.066 117.677 272.441 120.247 269.246 123.301C265.996 126.408 263.202 129.957 260.946 133.846L305.245 166.091Z" fill="#7781FF"/>
<path d="M290.8 143.098L288.159 138.3L292.62 135.953L294.285 141.967L290.8 143.098Z" fill="#B55B52"/>
</g>
</svg>
