<svg width="506" height="217" viewBox="0 0 506 217" fill="none" xmlns="http://www.w3.org/2000/svg">
<mask id="mask0_125_8677" style="mask-type:alpha" maskUnits="userSpaceOnUse" x="0" y="0" width="506" height="217">
<rect x="0.94873" y="0.320312" width="504.771" height="216.577" rx="17.2571" fill="white"/>
</mask>
<g mask="url(#mask0_125_8677)">
<path d="M242.55 268.498H75.9407C74.6355 268.496 73.3846 267.976 72.4625 267.052C71.5404 266.129 71.0225 264.877 71.0225 263.572V29.3662C71.0338 28.0685 71.5567 26.8276 72.4776 25.9132C73.3985 24.9988 74.643 24.4846 75.9407 24.4824H242.55C243.857 24.4824 245.11 25.0015 246.034 25.9255C246.958 26.8495 247.477 28.1026 247.477 29.4093V263.572C247.477 264.878 246.958 266.131 246.034 267.055C245.11 267.979 243.857 268.498 242.55 268.498ZM75.9407 24.655C74.6928 24.6573 73.4967 25.1546 72.615 26.0379C71.7333 26.9212 71.2382 28.1182 71.2382 29.3662V263.572C71.2382 264.82 71.7333 266.017 72.615 266.9C73.4967 267.783 74.6928 268.28 75.9407 268.283H242.55C243.799 268.28 244.996 267.783 245.879 266.9C246.762 266.017 247.259 264.82 247.261 263.572V29.3662C247.259 28.1174 246.762 26.9204 245.879 26.0374C244.996 25.1544 243.799 24.6573 242.55 24.655H75.9407Z" fill="#EBEBEB"/>
<path d="M429.194 268.498H262.576C261.27 268.496 260.018 267.976 259.095 267.053C258.171 266.129 257.651 264.878 257.649 263.572V29.3662C257.663 28.0677 258.187 26.8269 259.11 25.9127C260.032 24.9985 261.277 24.4846 262.576 24.4824H429.194C430.49 24.4869 431.732 25.0021 432.651 25.9163C433.57 26.8304 434.092 28.07 434.103 29.3662V263.572C434.103 264.875 433.587 266.126 432.666 267.049C431.746 267.973 430.497 268.494 429.194 268.498ZM262.576 24.655C261.327 24.6573 260.13 25.1544 259.247 26.0374C258.364 26.9204 257.867 28.1174 257.865 29.3662V263.572C257.867 264.82 258.364 266.017 259.247 266.9C260.13 267.783 261.327 268.28 262.576 268.283H429.194C430.442 268.28 431.639 267.783 432.522 266.9C433.405 266.017 433.902 264.82 433.905 263.572V29.3662C433.902 28.1174 433.405 26.9204 432.522 26.0374C431.639 25.1544 430.442 24.6573 429.194 24.655H262.576Z" fill="#EBEBEB"/>
<path d="M315.046 32.7832H65.5334C61.4351 32.7832 58.1128 36.1055 58.1128 40.2038V193.87C58.1128 197.968 61.4351 201.291 65.5334 201.291H315.046C319.144 201.291 322.466 197.968 322.466 193.87V40.2038C322.466 36.1055 319.144 32.7832 315.046 32.7832Z" fill="#EBEBEB"/>
<path d="M322.466 41.3086H58.1128V177.14H322.466V41.3086Z" fill="#FAFAFA"/>
<path d="M237.604 92.7678C237.609 91.0872 238.278 89.4767 239.467 88.2883C240.655 87.1 242.266 86.4303 243.946 86.4258H441.541C443.221 86.4303 444.832 87.1 446.02 88.2883C447.208 89.4767 447.878 91.0872 447.883 92.7678V113.183H237.604V92.7678Z" fill="#E6E6E6"/>
<path d="M288.893 104.609C291.543 104.609 293.691 102.461 293.691 99.8112C293.691 97.1616 291.543 95.0137 288.893 95.0137C286.244 95.0137 284.096 97.1616 284.096 99.8112C284.096 102.461 286.244 104.609 288.893 104.609Z" fill="white"/>
<path d="M271.894 104.609C274.543 104.609 276.691 102.461 276.691 99.8112C276.691 97.1616 274.543 95.0137 271.894 95.0137C269.244 95.0137 267.096 97.1616 267.096 99.8112C267.096 102.461 269.244 104.609 271.894 104.609Z" fill="white"/>
<path d="M254.904 104.609C257.554 104.609 259.702 102.461 259.702 99.8112C259.702 97.1616 257.554 95.0137 254.904 95.0137C252.255 95.0137 250.107 97.1616 250.107 99.8112C250.107 102.461 252.255 104.609 254.904 104.609Z" fill="white"/>
<path d="M441.516 223.109H243.921C242.241 223.105 240.63 222.435 239.442 221.247C238.254 220.059 237.584 218.448 237.579 216.767V113.225H447.858V216.767C447.853 218.448 447.183 220.059 445.995 221.247C444.807 222.435 443.196 223.105 441.516 223.109Z" fill="#F5F5F5"/>
<path d="M209.373 128.084C209.377 126.404 210.047 124.793 211.235 123.605C212.423 122.416 214.034 121.747 215.715 121.742H413.309C414.989 121.747 416.6 122.416 417.788 123.605C418.977 124.793 419.646 126.404 419.651 128.084V148.499H209.373V128.084Z" fill="#F0F0F0"/>
<path d="M260.652 139.925C263.301 139.925 265.449 137.777 265.449 135.128C265.449 132.478 263.301 130.33 260.652 130.33C258.002 130.33 255.854 132.478 255.854 135.128C255.854 137.777 258.002 139.925 260.652 139.925Z" fill="#E6E6E6"/>
<path d="M243.654 139.925C246.304 139.925 248.452 137.777 248.452 135.128C248.452 132.478 246.304 130.33 243.654 130.33C241.005 130.33 238.857 132.478 238.857 135.128C238.857 137.777 241.005 139.925 243.654 139.925Z" fill="#E6E6E6"/>
<path d="M226.663 139.925C229.313 139.925 231.46 137.777 231.46 135.128C231.46 132.478 229.313 130.33 226.663 130.33C224.013 130.33 221.865 132.478 221.865 135.128C221.865 137.777 224.013 139.925 226.663 139.925Z" fill="#E6E6E6"/>
<path d="M413.274 258.428H215.68C213.999 258.423 212.389 257.754 211.2 256.565C210.012 255.377 209.342 253.766 209.338 252.086V148.543H419.616V252.086C419.612 253.766 418.942 255.377 417.754 256.565C416.565 257.754 414.955 258.423 413.274 258.428Z" fill="#FAFAFA"/>
<path d="M181.131 163.403C181.136 161.722 181.805 160.111 182.994 158.923C184.182 157.735 185.792 157.065 187.473 157.061H385.067C386.748 157.065 388.358 157.735 389.547 158.923C390.735 160.111 391.405 161.722 391.409 163.403V183.818H181.131V163.403Z" fill="#FAFAFA"/>
<path d="M232.41 175.239C235.06 175.239 237.208 173.092 237.208 170.442C237.208 167.792 235.06 165.645 232.41 165.645C229.76 165.645 227.613 167.792 227.613 170.442C227.613 173.092 229.76 175.239 232.41 175.239Z" fill="#F0F0F0"/>
<path d="M215.412 175.239C218.062 175.239 220.21 173.092 220.21 170.442C220.21 167.792 218.062 165.645 215.412 165.645C212.763 165.645 210.615 167.792 210.615 170.442C210.615 173.092 212.763 175.239 215.412 175.239Z" fill="#F0F0F0"/>
<path d="M198.423 175.239C201.073 175.239 203.22 173.092 203.22 170.442C203.22 167.792 201.073 165.645 198.423 165.645C195.773 165.645 193.625 167.792 193.625 170.442C193.625 173.092 195.773 175.239 198.423 175.239Z" fill="#F0F0F0"/>
<path d="M385.031 293.746H187.437C185.757 293.742 184.146 293.072 182.958 291.884C181.769 290.695 181.1 289.085 181.095 287.404V183.861H391.374V287.404C391.369 289.085 390.699 290.695 389.511 291.884C388.323 293.072 386.712 293.742 385.031 293.746Z" fill="#E6E6E6"/>
<path d="M202.995 48.207H195.376V49.0699H202.995V48.207Z" fill="#0A7CFF"/>
<path d="M186.325 48.207H167.627V49.0699H186.325V48.207Z" fill="#0A7CFF"/>
<path d="M115.994 51.2266H391.539C394.285 51.2266 396.918 52.3175 398.86 54.2593C400.802 56.2011 401.893 58.8347 401.893 61.5808V299.488H105.639V61.5808C105.639 58.8347 106.73 56.2011 108.672 54.2593C110.614 52.3175 113.248 51.2266 115.994 51.2266Z" fill="#0A7CFF"/>
<path opacity="0.8" d="M401.884 66.7578H105.639V295.467H401.884V66.7578Z" fill="white"/>
<path opacity="0.4" d="M401.884 66.7578H105.639V117.036H401.884V66.7578Z" fill="#0A7CFF"/>
<path opacity="0.4" d="M395.775 71.5645H383.41V83.9292H395.775V71.5645Z" fill="#0A7CFF"/>
<path opacity="0.4" d="M377.431 71.5645H365.066V83.9292H377.431V71.5645Z" fill="#0A7CFF"/>
<path opacity="0.4" d="M359.086 71.5645H346.722V83.9292H359.086V71.5645Z" fill="#0A7CFF"/>
<path d="M224.161 95.4042H220.39L219.864 97.1817H216.473L220.511 86.4219H224.144L228.182 97.1817H224.73L224.161 95.4042ZM223.471 93.0831L222.289 89.1916L221.106 93.0659L223.471 93.0831Z" fill="white"/>
<path d="M229.053 86.4219H232.073V90.1494C232.355 89.8464 232.7 89.608 233.083 89.4505C233.483 89.2887 233.911 89.2066 234.343 89.2089C234.786 89.1987 235.227 89.2852 235.634 89.4625C236.04 89.6399 236.404 89.9037 236.698 90.2357C237.368 91.064 237.701 92.1149 237.63 93.178C237.646 93.9471 237.502 94.7111 237.207 95.4215C236.965 96.0132 236.554 96.5204 236.025 96.8797C235.528 97.1971 234.949 97.362 234.36 97.3543C233.859 97.3598 233.365 97.2444 232.919 97.0178C232.499 96.7624 232.135 96.4249 231.849 96.0255V97.1817H229.053V86.4219ZM232.047 93.2643C232.005 93.7793 232.139 94.2933 232.427 94.7226C232.542 94.8651 232.688 94.9796 232.854 95.0573C233.02 95.135 233.202 95.174 233.385 95.1712C233.553 95.1673 233.719 95.1248 233.868 95.047C234.018 94.9692 234.148 94.8582 234.248 94.7226C234.53 94.2787 234.657 93.7538 234.61 93.2298C234.646 92.7515 234.522 92.2748 234.256 91.8751C234.155 91.7422 234.024 91.6341 233.875 91.5594C233.725 91.4846 233.561 91.445 233.393 91.4437C233.205 91.4369 233.017 91.4739 232.845 91.5517C232.673 91.6296 232.521 91.7462 232.401 91.8924C232.125 92.2936 232 92.7796 232.047 93.2643Z" fill="white"/>
<path d="M238.692 93.3104C238.676 92.7627 238.775 92.2179 238.983 91.7111C239.192 91.2043 239.504 90.7467 239.9 90.368C240.338 89.9678 240.851 89.658 241.409 89.4567C241.967 89.2553 242.56 89.1662 243.152 89.1945C243.805 89.1487 244.459 89.2471 245.069 89.4827C245.679 89.7183 246.23 90.0854 246.682 90.5579C247.344 91.3601 247.687 92.3784 247.646 93.4179C247.605 94.4575 247.181 95.4453 246.457 96.1923C246.009 96.5919 245.487 96.899 244.919 97.096C244.352 97.2929 243.752 97.3758 243.152 97.3399C242.06 97.389 240.985 97.0531 240.115 96.3908C239.657 96.0212 239.291 95.551 239.044 95.0168C238.797 94.4826 238.676 93.8987 238.692 93.3104ZM241.686 93.3104C241.645 93.8585 241.794 94.404 242.108 94.8549C242.24 95.008 242.402 95.1309 242.586 95.2151C242.769 95.2994 242.968 95.343 243.17 95.343C243.371 95.343 243.571 95.2994 243.754 95.2151C243.937 95.1309 244.1 95.008 244.231 94.8549C244.547 94.3919 244.693 93.8342 244.645 93.2759C244.696 92.7505 244.565 92.2235 244.274 91.7831C244.15 91.6286 243.992 91.5041 243.813 91.419C243.633 91.3338 243.437 91.2902 243.239 91.2913C243.033 91.2859 242.828 91.3283 242.641 91.4151C242.454 91.5019 242.289 91.6308 242.16 91.7917C241.83 92.2239 241.662 92.7584 241.686 93.3017V93.3104Z" fill="white"/>
<path d="M257.294 97.1822H254.507V95.9225C254.169 96.3748 253.74 96.7511 253.247 97.0269C252.762 97.2625 252.225 97.3751 251.686 97.3548C251.33 97.3751 250.974 97.3203 250.641 97.1939C250.308 97.0675 250.006 96.8725 249.753 96.6214C249.238 95.9825 248.987 95.1701 249.054 94.3521V89.3906H252.039V93.7049C252.003 94.0735 252.098 94.4431 252.307 94.749C252.404 94.8544 252.523 94.937 252.656 94.9907C252.789 95.0445 252.932 95.068 253.075 95.0596C253.241 95.0616 253.405 95.0253 253.555 94.9535C253.704 94.8816 253.836 94.7762 253.938 94.6454C254.215 94.2063 254.337 93.6866 254.283 93.1699V89.4251H257.268L257.294 97.1822Z" fill="white"/>
<path d="M262.713 86.4219V89.3901H264.352V91.5731H262.713V94.3688C262.692 94.5946 262.725 94.8223 262.808 95.0332C262.862 95.1168 262.938 95.1838 263.028 95.2264C263.118 95.2691 263.218 95.2859 263.317 95.2748C263.633 95.2581 263.944 95.1941 264.24 95.085L264.465 97.1472C263.785 97.3026 263.091 97.3836 262.394 97.3888C261.833 97.4242 261.271 97.3267 260.754 97.104C260.4 96.9163 260.123 96.6112 259.969 96.2412C259.767 95.6329 259.682 94.9916 259.719 94.3515V91.6076H258.615V89.4246H259.719V87.9923L262.713 86.4219Z" fill="white"/>
<path d="M277.987 86.4232H281.3V92.8342C281.306 93.4476 281.206 94.0574 281.007 94.6376C280.812 95.1935 280.493 95.6979 280.075 96.1131C279.697 96.4905 279.245 96.7845 278.746 96.9759C277.996 97.2265 277.208 97.3462 276.417 97.3297C275.84 97.3284 275.263 97.2909 274.691 97.2175C274.154 97.1691 273.631 97.0229 273.146 96.7861C272.706 96.5548 272.316 96.238 271.999 95.8542C271.679 95.4974 271.437 95.0769 271.291 94.6203C271.103 94.0312 271.001 93.418 270.989 92.7997V86.3887H274.303V92.955C274.289 93.2043 274.324 93.4539 274.407 93.6893C274.49 93.9248 274.619 94.1415 274.786 94.327C274.967 94.4964 275.18 94.6274 275.413 94.7119C275.646 94.7965 275.893 94.8328 276.141 94.8188C276.386 94.8353 276.632 94.8009 276.864 94.7178C277.096 94.6346 277.308 94.5045 277.487 94.3356C277.658 94.1507 277.789 93.933 277.874 93.6957C277.958 93.4584 277.994 93.2064 277.978 92.955L277.987 86.4232Z" fill="white"/>
<path d="M282.774 95.0152L285.742 94.7391C285.826 95.0379 286.005 95.3013 286.251 95.4898C286.509 95.6523 286.81 95.7335 287.114 95.7228C287.445 95.745 287.774 95.6537 288.046 95.4639C288.125 95.4125 288.19 95.3422 288.236 95.2593C288.281 95.1765 288.305 95.0837 288.305 94.9894C288.304 94.8823 288.271 94.778 288.211 94.6891C288.151 94.6003 288.067 94.5307 287.969 94.4889C287.552 94.341 287.121 94.2368 286.683 94.1783C285.951 94.0725 285.229 93.9051 284.526 93.6778C284.12 93.5208 283.766 93.2515 283.508 92.9013C283.227 92.5417 283.078 92.0973 283.085 91.6415C283.077 91.1628 283.236 90.6963 283.533 90.3213C283.858 89.9256 284.284 89.627 284.767 89.4584C285.45 89.2537 286.161 89.1605 286.873 89.1823C287.567 89.1579 288.261 89.2306 288.935 89.3981C289.352 89.5268 289.731 89.7548 290.039 90.0624C290.368 90.4094 290.62 90.8208 290.781 91.2705L287.943 91.5466C287.892 91.325 287.763 91.1291 287.58 90.9943C287.323 90.8309 287.022 90.7496 286.717 90.7614C286.46 90.7406 286.202 90.8042 285.984 90.9426C285.913 90.992 285.855 91.0578 285.814 91.1344C285.774 91.2109 285.752 91.296 285.751 91.3826C285.751 91.4756 285.779 91.5664 285.832 91.6433C285.884 91.7201 285.958 91.7796 286.044 91.814C286.457 91.9565 286.886 92.0435 287.321 92.0729C288.079 92.1304 288.825 92.29 289.539 92.5475C289.986 92.72 290.373 93.02 290.652 93.4103C290.901 93.7703 291.033 94.198 291.032 94.6356C291.025 95.1026 290.884 95.5579 290.626 95.9471C290.309 96.4074 289.861 96.7621 289.341 96.9653C288.576 97.2442 287.764 97.3702 286.95 97.3363C285.902 97.4208 284.85 97.2117 283.913 96.7323C283.325 96.3297 282.916 95.7138 282.774 95.0152Z" fill="white"/>
<path d="M166.772 214.411C190.6 214.411 209.915 195.095 209.915 171.268C209.915 147.441 190.6 128.125 166.772 128.125C142.945 128.125 123.63 147.441 123.63 171.268C123.63 195.095 142.945 214.411 166.772 214.411Z" fill="#0A7CFF"/>
<path d="M195.675 200.168C211.637 184.205 211.637 158.326 195.675 142.364C179.713 126.402 153.834 126.402 137.871 142.364C121.909 158.326 121.909 184.205 137.871 200.168C153.834 216.13 179.713 216.13 195.675 200.168Z" fill="white"/>
<path d="M168.86 179.793L172.312 172.614C172.312 172.614 190.328 178.309 193.02 179.629C192.951 175.125 195.246 166.686 195.497 162.061C196.178 161.414 197.826 159.783 198.68 159.843C201.269 165.883 200.708 186.592 195.617 186.963C187.481 187.481 168.86 179.793 168.86 179.793Z" fill="#B55B52"/>
<path d="M166.618 178.671C168.698 183.547 185.774 187.887 185.774 187.887L189.225 177.394C189.225 177.394 182.719 172.459 175.963 170.863C169.051 169.215 164.323 173.322 166.618 178.671Z" fill="#0A7CFF"/>
<path opacity="0.2" d="M166.919 179.242C168.947 182.305 176.488 185.084 181.398 186.628C178.128 180.278 173.719 176.775 166.919 179.242Z" fill="black"/>
<path d="M195.479 162.977L192.727 159.448L197.818 156.609C198.82 158.125 199.335 159.91 199.293 161.726L195.479 162.977Z" fill="#B55B52"/>
<path d="M191.977 154.564L196.939 153.762L197.819 156.609L192.728 159.448L191.977 154.564Z" fill="#B55B52"/>
<path d="M176.376 171.216C176.376 171.216 183.33 187.955 177.877 219.148H150.697C150.378 214.592 152.699 192.399 147.781 170.931C151.048 170.295 154.354 169.874 157.677 169.672C161.876 169.43 166.085 169.43 170.284 169.672C174.684 170.077 176.376 171.216 176.376 171.216Z" fill="#0A7CFF"/>
<path opacity="0.2" d="M154.347 176.223C154.934 179.76 154.028 188.208 150.895 197.967C150.74 189.604 149.851 181.271 148.238 173.065C150.222 172.823 153.795 172.892 154.347 176.223Z" fill="black"/>
<path d="M159.034 157.885C159.897 161.94 160.449 166.971 157.679 169.671C157.679 169.671 159.405 173.787 166.946 173.787C173.849 173.787 170.285 169.671 170.285 169.671C165.738 168.593 165.833 163.002 166.549 159.843L159.034 157.885Z" fill="#B55B52"/>
<path d="M167.299 173.461L168.938 175.273C168.994 175.335 169.032 175.411 169.051 175.493C169.069 175.574 169.066 175.659 169.042 175.739L168.516 177.335C168.486 177.423 168.431 177.499 168.357 177.555C168.283 177.61 168.194 177.642 168.101 177.646L166.376 177.732C166.292 177.737 166.209 177.72 166.135 177.682C166.06 177.644 165.998 177.587 165.953 177.516L164.892 175.972C164.829 175.888 164.796 175.787 164.796 175.683C164.796 175.579 164.829 175.477 164.892 175.394L166.617 173.461C166.708 173.371 166.83 173.32 166.958 173.32C167.086 173.32 167.208 173.371 167.299 173.461Z" fill="white"/>
<path d="M166.945 173.066C166.108 174.467 165.645 176.059 165.599 177.691C165.599 177.691 156.108 174.36 156.392 169.476C156.392 169.476 157.712 168.682 158.549 168.035C158.549 168.035 158.946 171.116 166.945 173.066Z" fill="#263238"/>
<path d="M166.946 173.061C167.842 174.374 168.499 175.834 168.887 177.375C168.887 177.375 173.098 174.476 171.692 169.653C170.901 169.336 170.088 169.079 169.258 168.885C169.258 168.885 169.897 172.026 166.946 173.061Z" fill="#263238"/>
<path d="M167.713 177.395C167.713 177.395 170.414 197.241 170.474 200.692C170.437 203.96 169.923 207.204 168.947 210.322C168.947 210.322 167.092 206.81 166.772 200.546C166.453 194.281 166.841 180.907 166.703 177.387L167.713 177.395Z" fill="white"/>
<path opacity="0.2" d="M166.549 159.852C165.993 162.047 166.059 164.353 166.739 166.513C166.037 166.405 165.354 166.196 164.711 165.892C162.123 164.684 160.82 162.794 159.448 159.99C159.327 159.265 159.189 158.566 159.042 157.885L166.549 159.852Z" fill="black"/>
<path d="M173.702 157.006C173.395 157.611 172.97 158.149 172.451 158.586C171.932 159.023 171.331 159.352 170.682 159.552C168.957 160.061 168.016 158.482 168.447 156.799C168.844 155.28 170.173 153.192 171.985 153.408C172.374 153.467 172.743 153.62 173.059 153.854C173.375 154.088 173.629 154.397 173.798 154.752C173.968 155.107 174.047 155.498 174.031 155.891C174.014 156.284 173.901 156.667 173.702 157.006Z" fill="#B55B52"/>
<path opacity="0.2" d="M173.702 157.006C173.395 157.611 172.97 158.149 172.451 158.586C171.932 159.023 171.331 159.352 170.682 159.552C168.957 160.061 168.016 158.482 168.447 156.799C168.844 155.28 170.173 153.192 171.985 153.408C172.374 153.467 172.743 153.62 173.059 153.854C173.375 154.088 173.629 154.397 173.798 154.752C173.968 155.107 174.047 155.498 174.031 155.891C174.014 156.284 173.901 156.667 173.702 157.006Z" fill="black"/>
<path d="M168.697 153.493C170.422 155.072 173.572 146.409 170.043 144.002C166.513 141.595 165.28 144.865 165.34 146.858C165.4 148.851 166.091 151.155 168.697 153.493Z" fill="#263238"/>
<path d="M156.91 152.033C157.721 157.521 157.919 160.774 160.914 163.423C165.409 167.401 171.906 164.415 172.726 158.824C173.468 153.785 172.018 145.648 166.505 143.81C165.297 143.4 164.004 143.311 162.752 143.553C161.5 143.794 160.332 144.357 159.364 145.187C158.395 146.017 157.66 147.085 157.23 148.285C156.799 149.486 156.689 150.778 156.91 152.033Z" fill="#B55B52"/>
<path d="M156.565 156.695C157.514 157.308 158.817 158.964 160.776 156.031C160.776 155.271 158.852 153.994 158.705 152.2C158.533 150.111 158.075 147.885 156.384 147.152C152.527 145.426 151.82 148.74 152.199 150.724C152.579 152.709 153.623 154.771 156.565 156.695Z" fill="#263238"/>
<path d="M156.047 149.085C165.15 147.67 170.526 147.359 173.261 143.951C175.996 140.542 171.794 136.323 167.221 135.84C166.893 137.617 162.259 142.294 155.141 144.322C154.744 144.431 154.388 144.652 154.114 144.958C153.84 145.264 153.66 145.643 153.595 146.049C153.53 146.454 153.584 146.87 153.749 147.247C153.915 147.623 154.185 147.943 154.528 148.17C155.4 148.731 156.047 149.085 156.047 149.085Z" fill="#263238"/>
<path d="M154.987 158.284C155.816 159.41 157.056 160.164 158.438 160.38C160.241 160.657 160.888 158.974 160.164 157.369C159.517 155.919 157.799 154.038 156.091 154.496C154.383 154.953 153.977 156.894 154.987 158.284Z" fill="#B55B52"/>
<path d="M165.288 153.045C165.288 153.494 165.599 153.848 165.883 153.822C166.168 153.796 166.375 153.425 166.341 152.959C166.306 152.493 166.039 152.165 165.745 152.182C165.452 152.2 165.254 152.562 165.288 153.045Z" fill="#263238"/>
<path d="M170.293 152.673C170.336 153.122 170.604 153.467 170.889 153.449C171.173 153.432 171.381 153.053 171.346 152.587C171.311 152.121 171.035 151.784 170.751 151.81C170.466 151.836 170.259 152.224 170.293 152.673Z" fill="#263238"/>
<path d="M168.722 153.045C169.37 154.383 170.194 155.628 171.173 156.747C170.888 156.986 170.554 157.159 170.194 157.253C169.835 157.347 169.458 157.36 169.093 157.29L168.722 153.045Z" fill="#A02724"/>
<path d="M167.912 158.574C167.928 158.573 167.945 158.569 167.96 158.561C167.974 158.554 167.988 158.543 167.998 158.53C168.009 158.517 168.016 158.502 168.021 158.486C168.025 158.47 168.026 158.453 168.024 158.436C168.023 158.419 168.018 158.403 168.011 158.387C168.003 158.372 167.993 158.359 167.98 158.347C167.967 158.336 167.952 158.328 167.936 158.322C167.92 158.317 167.903 158.314 167.886 158.316C167.33 158.362 166.772 158.278 166.255 158.07C165.738 157.862 165.277 157.535 164.909 157.116C164.899 157.103 164.886 157.091 164.871 157.083C164.857 157.074 164.841 157.068 164.824 157.066C164.807 157.063 164.79 157.064 164.773 157.068C164.757 157.073 164.741 157.08 164.728 157.09C164.714 157.101 164.703 157.113 164.694 157.128C164.685 157.143 164.68 157.159 164.677 157.176C164.675 157.192 164.676 157.21 164.68 157.226C164.684 157.242 164.692 157.258 164.702 157.272C165.093 157.73 165.589 158.088 166.148 158.314C166.707 158.541 167.311 158.63 167.912 158.574Z" fill="#263238"/>
<path d="M163.64 151.477C163.68 151.476 163.719 151.466 163.754 151.446C163.788 151.427 163.818 151.399 163.839 151.365C164.003 151.083 164.233 150.844 164.51 150.67C164.786 150.496 165.101 150.391 165.426 150.364C165.461 150.365 165.495 150.36 165.527 150.347C165.559 150.334 165.588 150.315 165.612 150.291C165.636 150.267 165.655 150.238 165.668 150.206C165.681 150.174 165.687 150.14 165.685 150.105C165.685 150.034 165.657 149.966 165.607 149.916C165.557 149.866 165.489 149.838 165.418 149.838C165.006 149.862 164.606 149.987 164.254 150.202C163.902 150.417 163.608 150.716 163.399 151.072C163.38 151.101 163.367 151.134 163.362 151.168C163.356 151.202 163.357 151.237 163.365 151.271C163.373 151.305 163.388 151.337 163.408 151.365C163.429 151.393 163.455 151.416 163.485 151.434C163.507 151.451 163.532 151.464 163.558 151.471C163.585 151.479 163.613 151.481 163.64 151.477Z" fill="#263238"/>
<path d="M172.39 150.721L172.493 150.678C172.523 150.659 172.549 150.634 172.568 150.605C172.588 150.576 172.602 150.543 172.608 150.508C172.615 150.473 172.614 150.437 172.606 150.403C172.598 150.368 172.583 150.336 172.562 150.307C172.339 149.954 172.035 149.658 171.675 149.445C171.314 149.232 170.909 149.108 170.491 149.082C170.457 149.082 170.422 149.089 170.39 149.103C170.358 149.116 170.329 149.136 170.305 149.161C170.281 149.186 170.262 149.215 170.25 149.248C170.237 149.28 170.231 149.315 170.233 149.35C170.235 149.419 170.264 149.485 170.314 149.533C170.364 149.581 170.431 149.608 170.5 149.608C170.831 149.633 171.151 149.736 171.435 149.908C171.718 150.081 171.957 150.318 172.131 150.601C172.16 150.641 172.199 150.674 172.245 150.695C172.29 150.716 172.34 150.725 172.39 150.721Z" fill="#263238"/>
<path d="M144.658 178.293L151.647 182.4C151.647 182.4 142.828 199.657 143.786 202.349C145.089 205.973 147.065 213.938 149.377 217.881C149.153 218.744 147.859 220.84 147.1 221.229C141.543 217.501 135.46 205.292 135.477 201.806C135.555 193.893 144.658 178.293 144.658 178.293Z" fill="#B55B52"/>
<path d="M147.781 170.932C142.552 171.691 136.987 189.915 136.987 189.915L149.36 193.858C151.566 189.721 153.477 185.433 155.081 181.028C157.376 174.297 153.389 170.112 147.781 170.932Z" fill="#0A7CFF"/>
<path d="M148.109 217.188L153.382 216.809L150.724 222.624C150.724 222.624 146.099 222.805 145.253 219.276L148.109 217.188Z" fill="#B55B52"/>
<path d="M157.73 219.483L155.055 224.635L150.723 222.624L153.381 216.809L157.73 219.483Z" fill="#B55B52"/>
<path d="M340.76 287.165C364.587 287.165 383.902 267.849 383.902 244.022C383.902 220.195 364.587 200.879 340.76 200.879C316.932 200.879 297.617 220.195 297.617 244.022C297.617 267.849 316.932 287.165 340.76 287.165Z" fill="#0A7CFF"/>
<path d="M340.759 284.897C363.333 284.897 381.632 266.598 381.632 244.024C381.632 221.45 363.333 203.15 340.759 203.15C318.185 203.15 299.885 221.45 299.885 244.024C299.885 266.598 318.185 284.897 340.759 284.897Z" fill="white"/>
<path d="M338.878 212.963C332.743 212.411 328.921 221.85 330.198 236.26C337.963 240.669 346.86 236.26 353.978 239.806C360.562 229.737 358.81 207.026 338.878 212.963Z" fill="#263238"/>
<path d="M352.331 225.735C350.605 231.723 350.01 234.294 346.248 236.736C340.596 240.395 333.615 236.969 333.512 230.584C333.417 224.837 336.256 216.01 342.736 214.915C344.163 214.666 345.631 214.787 346.999 215.266C348.366 215.745 349.589 216.565 350.55 217.649C351.512 218.733 352.18 220.045 352.492 221.461C352.803 222.876 352.748 224.347 352.331 225.735Z" fill="#FFB573"/>
<path d="M337.791 214.542C336.523 216.043 339.129 219.184 341.657 220.211C341.501 219.881 341.388 219.533 341.32 219.175C343.146 220.423 345.197 221.303 347.36 221.764C347.116 221.455 346.953 221.09 346.886 220.702C346.886 220.409 353.115 224.533 354.021 221.565C354.927 218.597 351.838 214.714 347.119 213.472C343.098 212.462 339.353 212.686 337.791 214.542Z" fill="#263238"/>
<path d="M337.023 167.143H223.729C222.736 167.143 221.784 166.749 221.081 166.046C220.379 165.344 219.985 164.391 219.985 163.398C219.985 162.907 220.082 162.42 220.27 161.967C220.458 161.513 220.734 161.1 221.082 160.753C221.43 160.406 221.843 160.131 222.297 159.944C222.751 159.757 223.238 159.661 223.729 159.662H337.023C338.013 159.662 338.964 160.056 339.664 160.756C340.365 161.457 340.759 162.407 340.759 163.398C340.76 163.89 340.664 164.376 340.477 164.831C340.29 165.285 340.015 165.698 339.668 166.046C339.32 166.394 338.908 166.67 338.454 166.858C338 167.046 337.514 167.143 337.023 167.143Z" fill="white"/>
<path d="M310.714 182.872H223.729C223.238 182.873 222.751 182.777 222.297 182.59C221.843 182.402 221.43 182.127 221.082 181.78C220.734 181.433 220.458 181.021 220.27 180.567C220.082 180.113 219.985 179.627 219.985 179.135C219.985 178.142 220.379 177.19 221.081 176.487C221.784 175.785 222.736 175.391 223.729 175.391H310.714C311.707 175.391 312.66 175.785 313.362 176.487C314.064 177.19 314.459 178.142 314.459 179.135C314.459 179.627 314.362 180.113 314.174 180.567C313.985 181.021 313.709 181.433 313.361 181.78C313.014 182.127 312.601 182.402 312.146 182.59C311.692 182.777 311.205 182.873 310.714 182.872Z" fill="white"/>
<path d="M124.191 58.9927C124.191 59.7047 123.98 60.4007 123.584 60.9926C123.188 61.5844 122.626 62.0456 121.968 62.3177C121.31 62.5898 120.586 62.6605 119.888 62.521C119.19 62.3815 118.549 62.0379 118.046 61.5338C117.543 61.0298 117.201 60.3878 117.063 59.6893C116.925 58.9908 116.998 58.267 117.271 57.6097C117.545 56.9524 118.007 56.3911 118.6 55.9967C119.193 55.6024 119.89 55.3928 120.602 55.3945C121.554 55.3968 122.467 55.7769 123.14 56.4514C123.813 57.126 124.191 58.0399 124.191 58.9927Z" fill="white"/>
<path d="M132.828 62.5908C134.815 62.5908 136.426 60.9798 136.426 58.9926C136.426 57.0055 134.815 55.3945 132.828 55.3945C130.841 55.3945 129.23 57.0055 129.23 58.9926C129.23 60.9798 130.841 62.5908 132.828 62.5908Z" fill="white"/>
<path d="M145.054 62.5908C147.041 62.5908 148.652 60.9798 148.652 58.9926C148.652 57.0055 147.041 55.3945 145.054 55.3945C143.067 55.3945 141.456 57.0055 141.456 58.9926C141.456 60.9798 143.067 62.5908 145.054 62.5908Z" fill="white"/>
</g>
</svg>
