<svg width="506" height="217" viewBox="0 0 506 217" fill="none" xmlns="http://www.w3.org/2000/svg">
<mask id="mask0_125_8816" style="mask-type:alpha" maskUnits="userSpaceOnUse" x="0" y="0" width="506" height="217">
<rect x="0.280029" y="0.205078" width="504.771" height="216.577" rx="17.2571" fill="white"/>
</mask>
<g mask="url(#mask0_125_8816)">
<path d="M461.895 167.03C459.836 151.523 456.819 136.159 452.861 121.024C440.891 77.4776 413.745 34.4616 362.355 22.9358C324.441 14.4322 281.956 25.1023 247.433 50.1579C193.27 89.5017 152.106 140.891 93.5241 175.815C44.5718 204.955 16.7972 248.469 28.0738 306.467C39.3505 364.464 89.4727 395.218 147.492 387.017C195.751 380.171 245.624 380.442 285.488 398.738C321.105 415.085 387.855 394.113 445.993 338.628C479.845 306.315 479.715 268.217 472.165 233.13C467.518 211.444 465.102 189.118 461.895 167.03Z" fill="#FFB355"/>
<path opacity="0.7" d="M461.895 167.03C459.836 151.523 456.819 136.159 452.861 121.024C440.891 77.4776 413.745 34.4616 362.355 22.9358C324.441 14.4322 281.956 25.1023 247.433 50.1579C193.27 89.5017 152.106 140.891 93.5241 175.815C44.5718 204.955 16.7972 248.469 28.0738 306.467C39.3505 364.464 89.4727 395.218 147.492 387.017C195.751 380.171 245.624 380.442 285.488 398.738C321.105 415.085 387.855 394.113 445.993 338.628C479.845 306.315 479.715 268.217 472.165 233.13C467.518 211.444 465.102 189.118 461.895 167.03Z" fill="white"/>
<path d="M233.491 410.217H239.547C245.093 406.025 250.563 396.016 250.563 396.016L246.035 410.217H461.159C457.064 396.428 446.86 361.807 449.243 366.616C452.2 372.618 455.309 375.163 457.497 369.595C459.686 364.027 436.32 318.292 436.32 318.292C436.32 318.292 450.619 331.855 449.319 323.178C448.019 314.501 422.66 248.52 422.66 248.52C422.66 248.52 431.174 262.916 430.838 252.203C430.503 241.49 415.673 197.943 415.673 197.943C415.673 197.943 425.195 202.471 424.491 195.267C423.299 182.961 418.923 170.352 415.673 158.437C413.864 151.807 412.271 144.896 409.78 138.472C409.325 137.281 408.697 133.511 407.613 132.774C405.653 131.474 403.519 133.132 401.396 136.382C395.373 145.633 389.48 167.796 388.223 171.674C387.248 174.62 376.307 202.233 379.406 204.172C382.081 205.861 390.986 195.365 390.986 195.365C390.986 195.365 370.469 250.286 370.046 254.521C369.624 258.757 384.399 246.798 384.399 246.798C384.399 246.798 376.448 265.755 369.602 284.647C368.519 274.897 358.044 244.1 358.044 244.1C358.044 244.1 365.345 247.567 364.814 242.053C363.893 232.607 360.481 222.923 358.044 213.813C356.79 208.645 355.279 203.544 353.516 198.528C353.158 197.618 352.714 194.726 351.858 194.195C350.353 193.198 348.706 194.466 347.081 196.968C342.467 204.063 337.96 221.07 336.974 224.049C336.227 226.302 327.799 247.491 330.204 249.018C332.262 250.318 339.087 242.27 339.087 242.27C339.087 242.27 323.358 284.408 323.022 287.658C322.686 290.908 334.017 281.657 334.017 281.657C334.017 281.657 329.944 291.406 325.589 302.834C318.852 284.592 312.06 266.935 312.06 266.935C312.06 266.935 320.574 281.343 320.238 270.618C319.902 259.894 305.073 216.358 305.073 216.358C305.073 216.358 314.594 220.886 313.89 213.693C312.699 201.377 308.322 188.779 305.073 176.863C303.264 170.222 301.671 163.311 299.18 156.888C298.725 155.696 298.096 151.926 297.013 151.19C295.053 149.89 292.919 151.547 290.795 154.808C284.772 164.059 278.88 186.222 277.623 190.089C276.648 193.036 265.707 220.659 268.805 222.641C271.481 224.342 280.385 213.834 280.385 213.834C280.385 213.834 259.825 268.723 259.435 272.947C259.045 277.172 273.756 265.137 273.756 265.137C273.756 265.137 242.796 338.95 250.477 340.434C256.76 341.647 260.508 335.018 261.667 332.526C258.189 340.542 232.863 399.341 233.491 410.217ZM368.151 288.644L366.926 292.164C364.825 286.629 363.395 282.913 363.395 282.913C363.395 282.913 366.309 287.799 368.151 288.644Z" fill="#FFB355"/>
<path d="M75.379 371.264C81.651 372.488 85.3991 365.847 86.5582 363.367C84.5108 368.079 74.8807 390.448 67.4387 410.217H227.576C222.907 398.432 213.97 380.97 213.97 380.97C213.97 380.97 224.955 391.369 223.98 384.718C223.005 378.066 203.495 327.435 203.495 327.435C203.495 327.435 209.995 338.484 209.767 330.252C209.54 322.019 198.122 288.622 198.122 288.622C198.122 288.622 205.424 292.099 204.893 286.575C203.972 277.129 200.56 267.445 198.122 258.334C196.87 253.156 195.359 248.044 193.594 243.017C193.248 242.096 192.804 239.204 191.948 238.684C190.442 237.688 188.796 238.955 187.171 241.457C182.556 248.553 178.05 265.56 177.064 268.539C176.317 270.803 167.889 291.991 170.294 293.508C172.352 294.808 179.176 286.759 179.176 286.759C179.176 286.759 163.448 328.898 163.112 332.147C162.776 335.397 174.107 326.146 174.107 326.146C174.107 326.146 166.026 345.428 160.458 361.709C153.384 340.521 136.919 297.797 136.919 297.797C136.919 297.797 145.444 312.194 145.097 301.48C144.751 290.767 129.932 247.22 129.932 247.22C129.932 247.22 139.443 251.748 138.749 244.545C137.547 232.239 133.171 219.63 129.921 207.714C128.112 201.084 126.519 194.173 124.039 187.75C123.573 186.558 122.955 182.788 121.872 182.052C119.912 180.752 117.767 182.409 115.654 185.659C109.631 194.91 103.739 217.073 102.471 220.951C101.496 223.898 90.5554 251.51 93.6535 253.503C96.3399 255.193 105.233 244.696 105.233 244.696C105.233 244.696 84.76 299.541 84.3375 303.777C83.915 308.012 98.6581 296.021 98.6581 296.021C98.6581 296.021 67.6879 369.78 75.379 371.264ZM164.856 377.817C164.217 379.291 162.613 383.006 160.523 387.924C159.873 386.538 159.234 385.173 158.595 383.84C162.028 383.104 164.119 379.431 164.856 377.817ZM157.002 372.769C156.482 374.676 156.06 376.42 155.767 377.936C152.777 371.784 150.568 367.461 150.568 367.461C152.599 369.364 154.748 371.137 157.002 372.769Z" fill="#FFB355"/>
<path opacity="0.5" d="M75.379 371.264C81.651 372.488 85.3991 365.847 86.5582 363.367C84.5108 368.079 74.8807 390.448 67.4387 410.217H227.576C222.907 398.432 213.97 380.97 213.97 380.97C213.97 380.97 224.955 391.369 223.98 384.718C223.005 378.066 203.495 327.435 203.495 327.435C203.495 327.435 209.995 338.484 209.767 330.252C209.54 322.019 198.122 288.622 198.122 288.622C198.122 288.622 205.424 292.099 204.893 286.575C203.972 277.129 200.56 267.445 198.122 258.334C196.87 253.156 195.359 248.044 193.594 243.017C193.248 242.096 192.804 239.204 191.948 238.684C190.442 237.688 188.796 238.955 187.171 241.457C182.556 248.553 178.05 265.56 177.064 268.539C176.317 270.803 167.889 291.991 170.294 293.508C172.352 294.808 179.176 286.759 179.176 286.759C179.176 286.759 163.448 328.898 163.112 332.147C162.776 335.397 174.107 326.146 174.107 326.146C174.107 326.146 166.026 345.428 160.458 361.709C153.384 340.521 136.919 297.797 136.919 297.797C136.919 297.797 145.444 312.194 145.097 301.48C144.751 290.767 129.932 247.22 129.932 247.22C129.932 247.22 139.443 251.748 138.749 244.545C137.547 232.239 133.171 219.63 129.921 207.714C128.112 201.084 126.519 194.173 124.039 187.75C123.573 186.558 122.955 182.788 121.872 182.052C119.912 180.752 117.767 182.409 115.654 185.659C109.631 194.91 103.739 217.073 102.471 220.951C101.496 223.898 90.5554 251.51 93.6535 253.503C96.3399 255.193 105.233 244.696 105.233 244.696C105.233 244.696 84.76 299.541 84.3375 303.777C83.915 308.012 98.6581 296.021 98.6581 296.021C98.6581 296.021 67.6879 369.78 75.379 371.264ZM164.856 377.817C164.217 379.291 162.613 383.006 160.523 387.924C159.873 386.538 159.234 385.173 158.595 383.84C162.028 383.104 164.119 379.431 164.856 377.817ZM157.002 372.769C156.482 374.676 156.06 376.42 155.767 377.936C152.777 371.784 150.568 367.461 150.568 367.461C152.599 369.364 154.748 371.137 157.002 372.769Z" fill="white"/>
<path opacity="0.5" d="M233.491 410.217H239.547C245.093 406.025 250.563 396.016 250.563 396.016L246.035 410.217H461.159C457.064 396.428 446.86 361.807 449.243 366.616C452.2 372.618 455.309 375.163 457.497 369.595C459.686 364.027 436.32 318.292 436.32 318.292C436.32 318.292 450.619 331.855 449.319 323.178C448.019 314.501 422.66 248.52 422.66 248.52C422.66 248.52 431.174 262.916 430.838 252.203C430.503 241.49 415.673 197.943 415.673 197.943C415.673 197.943 425.195 202.471 424.491 195.267C423.299 182.961 418.923 170.352 415.673 158.437C413.864 151.807 412.271 144.896 409.78 138.472C409.325 137.281 408.697 133.511 407.613 132.774C405.653 131.474 403.519 133.132 401.396 136.382C395.373 145.633 389.48 167.796 388.223 171.674C387.248 174.62 376.307 202.233 379.406 204.172C382.081 205.861 390.986 195.365 390.986 195.365C390.986 195.365 370.469 250.286 370.046 254.521C369.624 258.757 384.399 246.798 384.399 246.798C384.399 246.798 376.448 265.755 369.602 284.647C368.519 274.897 358.044 244.1 358.044 244.1C358.044 244.1 365.345 247.567 364.814 242.053C363.893 232.607 360.481 222.923 358.044 213.813C356.79 208.645 355.279 203.544 353.516 198.528C353.158 197.618 352.714 194.726 351.858 194.195C350.353 193.198 348.706 194.466 347.081 196.968C342.467 204.063 337.96 221.07 336.974 224.049C336.227 226.302 327.799 247.491 330.204 249.018C332.262 250.318 339.087 242.27 339.087 242.27C339.087 242.27 323.358 284.408 323.022 287.658C322.686 290.908 334.017 281.657 334.017 281.657C334.017 281.657 329.944 291.406 325.589 302.834C318.852 284.592 312.06 266.935 312.06 266.935C312.06 266.935 320.574 281.343 320.238 270.618C319.902 259.894 305.073 216.358 305.073 216.358C305.073 216.358 314.594 220.886 313.89 213.693C312.699 201.377 308.322 188.779 305.073 176.863C303.264 170.222 301.671 163.311 299.18 156.888C298.725 155.696 298.096 151.926 297.013 151.19C295.053 149.89 292.919 151.547 290.795 154.808C284.772 164.059 278.88 186.222 277.623 190.089C276.648 193.036 265.707 220.659 268.805 222.641C271.481 224.342 280.385 213.834 280.385 213.834C280.385 213.834 259.825 268.723 259.435 272.947C259.045 277.172 273.756 265.137 273.756 265.137C273.756 265.137 242.796 338.95 250.477 340.434C256.76 341.647 260.508 335.018 261.667 332.526C258.189 340.542 232.863 399.341 233.491 410.217ZM368.151 288.644L366.926 292.164C364.825 286.629 363.395 282.913 363.395 282.913C363.395 282.913 366.309 287.799 368.151 288.644Z" fill="white"/>
<path d="M380.553 118.258C382.233 215.751 382.233 312.16 380.553 410.043" stroke="#263238" stroke-width="1.72571" stroke-miterlimit="10"/>
<path d="M324.408 96.9297C324.82 200.586 324.82 305.662 324.408 409.99" stroke="#263238" stroke-width="1.72571" stroke-miterlimit="10"/>
<path d="M263.205 140.162C263.075 229.834 263.075 319.744 263.205 409.892" stroke="#263238" stroke-width="1.72571" stroke-miterlimit="10"/>
<path d="M202.011 209.211C202.412 276.373 202.412 342.451 202.011 409.689" stroke="#263238" stroke-width="1.72571" stroke-miterlimit="10"/>
<path d="M96.807 220.951L98.9735 217.214L99.461 216.391C108.506 221.743 117.096 227.83 125.145 234.589C133.215 241.262 140.733 248.509 148.11 255.778L147.438 256.46L145.467 254.51L145.38 254.586V258.583L144.503 259.461V255.474L142.423 257.641L144.394 259.58L143.723 260.262C136.389 253.026 129.001 245.909 121.148 239.41C113.356 232.877 105.046 226.99 96.2979 221.807L96.7853 220.984L96.807 220.951ZM142.834 252.051V256.027L144.914 253.86L142.834 251.965V252.051ZM139.91 255.074L141.892 257.002L141.968 256.926V252.94L139.91 255.074ZM140.224 249.517V253.514L142.293 251.347L140.245 249.441L140.224 249.517ZM137.31 252.56L139.292 254.478L139.368 254.402V250.416L137.31 252.56ZM137.559 247.014L137.624 251.001L139.682 248.834L137.646 246.917L137.559 247.014ZM134.688 250.08L136.692 251.976L136.768 251.9V247.924L134.688 250.08ZM134.894 244.523C134.894 245.844 134.959 247.188 134.992 248.509L137.017 246.343C136.335 245.703 135.674 245.054 134.981 244.436L134.894 244.523ZM132.002 247.61C132.695 248.227 133.356 248.867 134.028 249.495L134.093 249.419C134.093 248.097 134.093 246.754 134.006 245.433L132.002 247.61ZM132.143 242.064L132.284 246.05L134.298 243.884L132.229 242.01L132.143 242.064ZM129.337 245.194L131.374 247.047L131.449 246.971L131.309 242.995L129.337 245.194ZM129.413 239.637C129.5 240.959 129.565 242.28 129.608 243.624L131.59 241.392C130.908 240.764 130.204 240.146 129.5 239.54L129.413 239.637ZM126.651 242.8C127.344 243.396 128.037 244.003 128.709 244.62L128.774 244.544C128.774 243.212 128.676 241.89 128.59 240.569L126.651 242.8ZM126.651 237.243L126.9 241.23L128.86 238.976L126.694 237.146L126.651 237.243ZM123.932 240.439L126.012 242.237L126.077 242.172L125.849 238.197L123.932 240.439ZM123.845 234.893C123.964 236.225 124.083 237.525 124.159 238.868L126.087 236.582C125.394 235.965 124.647 235.391 123.921 234.795L123.845 234.893ZM121.18 238.142C121.884 238.727 122.61 239.291 123.293 239.897L123.358 239.821C123.282 238.489 123.163 237.189 123.054 235.868L121.18 238.142ZM121.007 232.585L121.364 236.572L123.26 234.264L121.094 232.488L121.007 232.585ZM118.396 235.835L120.563 237.568L120.628 237.503L120.281 233.528L118.396 235.835ZM118.115 230.3C118.277 231.632 118.44 232.932 118.57 234.253L120.422 231.914C119.696 231.329 118.938 230.765 118.255 230.202L118.115 230.3ZM115.558 233.625C116.284 234.178 117.021 234.708 117.725 235.293L117.779 235.228C117.66 233.907 117.497 232.607 117.345 231.285L115.558 233.625ZM115.201 228.079L115.699 232.054L117.519 229.671L115.287 227.971L115.201 228.079ZM112.709 231.448L114.876 233.105V233.04L114.399 229.076L112.709 231.448ZM112.222 225.934L112.817 229.855L114.594 227.451L112.308 225.826L112.222 225.934ZM109.795 229.346L112.038 230.928V230.863L111.463 226.952L109.795 229.346ZM109.232 223.822L109.871 227.776L111.604 225.327L109.308 223.703L109.232 223.822ZM106.87 227.266L109.102 228.859V228.794L108.474 224.84L106.87 227.266ZM106.166 221.796L106.914 225.696L108.593 223.204L106.242 221.677L106.166 221.796ZM103.837 225.317L106.145 226.812V226.747L105.408 222.858L103.837 225.317ZM103.047 219.814L103.848 223.746L105.484 221.222L103.122 219.695L103.047 219.814ZM100.88 223.367L103.177 224.862V224.786L102.386 220.875L100.88 223.367ZM99.8943 217.723L100.858 221.785L102.44 219.229L99.8943 217.723ZM97.5978 221.374L100.198 222.912V222.847C99.8834 221.439 99.5476 220.02 99.201 218.6L97.5978 221.374Z" fill="#0B0B0B"/>
<path d="M39.4694 200.542L40.1627 196.274L40.3143 195.332C50.6935 197.057 60.9061 199.666 70.8404 203.131C80.799 206.632 90.3976 211.083 99.5033 216.423L99.0267 217.246L96.5461 215.86V215.957L97.521 219.846L96.8927 220.929L95.9394 217.051L94.477 219.64L96.8277 221.027L96.3511 221.85C87.6087 216.713 78.3908 212.433 68.8256 209.068C59.2376 205.707 49.3803 203.17 39.3611 201.485L39.5127 200.553L39.4694 200.542ZM93.253 214.17L94.3362 217.983L95.7878 215.394L93.2963 214.072L93.253 214.17ZM91.2706 217.885L93.6863 219.164L93.7404 219.077L92.6572 215.275L91.2706 217.885ZM90.0032 212.469L91.1623 216.315L92.5489 213.693L90.0574 212.372L90.0032 212.469ZM88.1075 216.228L90.5232 217.517L90.5773 217.42L89.4941 213.585L88.1075 216.228ZM86.6993 210.877L87.9667 214.625L89.2991 211.971L86.7534 210.768L86.6993 210.877ZM84.8794 214.668L87.3601 215.838V215.741L86.1143 211.992L84.8794 214.668ZM83.3737 209.306L84.6953 213.097L85.9627 210.4L83.417 209.198L83.3737 209.306ZM81.6405 213.141L84.1211 214.311V214.213L82.8646 210.443L81.6405 213.141ZM80.0048 207.833C80.5031 209.068 80.9905 210.27 81.4347 211.538L82.6479 208.808C81.803 208.407 80.9147 208.082 80.0589 207.724L80.0048 207.833ZM78.3691 211.7C79.214 212.057 80.0698 212.372 80.893 212.783V212.697C80.4489 211.429 79.9614 210.238 79.4848 208.992L78.3691 211.7ZM76.6034 206.435L78.1091 210.14L79.2573 207.389L76.6575 206.305L76.6034 206.435ZM75.0543 210.335L77.5891 211.418V211.332L76.1051 207.627L75.0543 210.335ZM73.1803 205.103L73.9927 206.912L74.7618 208.764L75.8451 205.98L74.5452 205.45L73.2128 205.027L73.1803 205.103ZM71.7179 209.035L73.007 209.49L74.2744 210.01V209.923L73.5052 208.071L72.7036 206.273L71.7179 209.035ZM69.7139 203.879L71.3387 207.497L72.422 204.691L69.768 203.76L69.7139 203.879ZM68.3381 207.844L70.9271 208.754V208.667L69.3022 205.027L68.3381 207.844ZM66.2475 202.676C66.8432 203.857 67.4174 205.103 67.9807 206.295L68.9448 203.467C68.0565 203.164 67.179 202.828 66.2799 202.557L66.2475 202.676ZM64.9584 206.663C65.8358 206.934 66.6807 207.269 67.5474 207.562V207.475C66.9841 206.284 66.4641 205.038 65.825 203.857L64.9584 206.663ZM62.6727 201.637L64.5034 205.157L65.4133 202.308L62.716 201.507L62.6727 201.637ZM61.4811 205.645L64.1026 206.425V206.338L62.3586 202.861L61.4811 205.645ZM59.1521 200.586L61.0478 204.128L61.8819 201.257L59.1955 200.456L59.1521 200.586ZM58.0689 204.626L60.6904 205.406V205.32L58.8597 201.777L58.0689 204.626ZM55.6207 199.676C56.2923 200.824 56.964 201.951 57.6031 203.099L58.383 200.207L55.6532 199.546L55.6207 199.676ZM54.5375 203.738L57.2023 204.388V204.301C56.5632 203.153 55.9132 202.027 55.2416 200.878L54.5375 203.738ZM51.9918 198.809L54.0392 202.243L54.765 199.34L52.0243 198.679L51.9918 198.809ZM51.1144 202.861L53.7792 203.511V203.435L51.8402 200.023L51.1144 202.861ZM48.4821 197.975C49.2079 199.058 49.9011 200.228 50.5944 201.377L51.2552 198.452C50.3453 198.235 49.4353 197.986 48.5146 197.834L48.4821 197.975ZM47.6263 202.07C48.5254 202.222 49.4137 202.449 50.302 202.666V202.59C49.6303 201.442 48.9371 200.272 48.2113 199.188L47.6263 202.07ZM44.8748 197.293L47.0414 200.618L47.6371 197.672L44.8857 197.152L44.8748 197.293ZM44.0949 201.398L46.7922 201.907V201.832L44.6257 198.517L44.0949 201.398ZM41.1485 196.437L43.5099 199.947L44.0516 196.989L41.1485 196.437ZM40.2927 200.694L43.2716 201.257V201.182L40.8235 197.52L40.2927 200.694Z" fill="#0B0B0B"/>
<path d="M233.133 174.794L236.47 177.557L237.206 178.174C237.206 178.174 236.578 178.911 235.495 180.211L230.902 185.53L227.825 189.115C226.742 190.383 225.594 191.726 224.337 193.058L216.581 201.486C213.873 204.281 211.1 207.043 208.543 209.654C207.276 210.964 205.976 212.178 204.752 213.315L201.307 216.565L198.393 219.295L196.075 221.331L194.05 223.097L193.421 222.382L195.523 220.551L195.447 220.464L191.471 220.194L190.648 219.251L194.624 219.576L192.652 217.41L190.583 219.11L189.955 218.385L191.937 216.662L194.212 214.669L197.061 211.983L200.441 208.809C201.643 207.725 202.921 206.501 204.167 205.201L212.075 197.175L219.658 188.888C220.893 187.577 222.03 186.255 223.102 184.999L226.125 181.467L230.664 176.181C231.747 174.881 232.364 174.145 232.364 174.145L233.09 174.751L233.133 174.794ZM198.177 218.027H197.559C197.191 218.027 196.693 218.027 196.184 217.94L194.19 217.789L196.173 219.955L197.256 219.045L197.971 218.395L198.285 218.103L198.177 218.027ZM195.339 214.918L195.024 215.211C194.84 215.384 194.58 215.622 194.32 215.839L193.291 216.749L193.356 216.825L195.349 216.987C195.859 216.987 196.357 217.052 196.714 217.074H197.332L195.339 214.918ZM200.831 215.525L196.866 215.33L198.881 217.496L200.907 215.59L200.831 215.525ZM197.96 212.448L195.913 214.377L195.989 214.452L199.942 214.658L197.96 212.448ZM203.485 213.023L199.498 212.849L201.535 215.016L203.571 213.098L203.485 213.023ZM200.582 209.979L198.578 211.874L198.653 211.95L202.629 212.123L200.582 209.979ZM206.139 210.531L202.131 210.379L204.189 212.546L206.225 210.639L206.139 210.531ZM203.203 207.52L201.199 209.404L201.275 209.48L205.272 209.632L203.203 207.52ZM208.706 207.942L204.741 207.877L206.832 210.044L208.793 208.061L208.706 207.942ZM205.738 205.028L203.81 206.989L203.875 207.054L207.829 207.119L205.738 205.028ZM211.262 205.407H207.287L209.399 207.509L211.36 205.526L211.262 205.407ZM208.273 202.461L206.334 204.421L206.409 204.486L210.385 204.541L208.273 202.461ZM213.83 202.818H209.833L211.999 204.909L213.96 202.927L213.83 202.818ZM210.807 199.904L208.912 201.843L208.988 201.908H212.974L210.807 199.904ZM216.354 200.186H214.371H212.367L214.534 202.255L215.509 201.258L216.462 200.24L216.354 200.186ZM213.31 197.304L212.367 198.323L211.403 199.298L211.468 199.363H213.472H215.455L213.31 197.304ZM218.824 197.51L214.859 197.597L217.025 199.644L218.91 197.597L218.824 197.51ZM215.747 194.651L213.884 196.687L213.949 196.741L217.903 196.665L215.747 194.651ZM221.283 194.824L217.296 194.932L219.463 196.969L221.348 194.921L221.283 194.824ZM218.184 192.007L216.321 194.033H216.386L220.362 193.936L218.184 192.007ZM223.752 192.148L219.744 192.278L221.965 194.282L223.85 192.235L223.752 192.148ZM220.633 189.353L218.759 191.379L218.824 191.433L222.821 191.314L220.633 189.353ZM226.168 189.429L224.196 189.538L222.192 189.613L224.435 191.607C224.435 191.607 224.911 191.097 225.366 190.523L226.276 189.44L226.168 189.429ZM222.994 186.613L222.095 187.696C221.651 188.216 221.174 188.714 221.174 188.714H221.239L223.232 188.638L225.204 188.541L222.994 186.613ZM228.508 186.613L224.543 186.84L226.796 188.823L228.616 186.71L228.508 186.613ZM225.345 183.872L223.547 185.974H223.612L227.565 185.746L225.345 183.872ZM230.869 183.872L226.894 184.121L229.169 186.082L230.978 183.97L230.869 183.872ZM227.695 181.164L225.897 183.255L229.873 183.016L227.695 181.164ZM233.242 181.11L229.255 181.37L231.541 183.32L233.35 181.153L233.242 181.11ZM229.992 178.423L228.205 180.514H228.259L232.245 180.254L229.992 178.423ZM235.755 178.315L231.563 178.629L233.87 180.547L234.823 179.463L235.755 178.315ZM232.516 175.455L231.541 176.625L230.544 177.784H230.609L232.776 177.633L234.942 177.47L232.516 175.455Z" fill="#0B0B0B"/>
<path d="M274.796 128.701L277.742 131.864L278.392 132.568L276.475 134.366C275.24 135.45 273.55 137.172 271.513 139.198C267.462 143.249 262.187 148.817 257.106 154.591C252.026 160.364 247.064 166.257 243.349 170.699L237.174 178.13L236.438 177.523L238.203 175.357L238.117 175.292L234.152 175.606L233.199 174.804L237.163 174.49L234.91 172.638L233.144 174.804L232.419 174.198L238.593 166.745C242.32 162.293 247.259 156.346 252.47 150.496C257.68 144.646 262.988 138.981 267.137 134.821C269.217 132.763 270.95 131.03 272.217 129.871L274.178 128.029L274.828 128.733L274.796 128.701ZM240.435 172.529L236.459 172.844L238.756 174.739L240.521 172.573L240.435 172.529ZM237.185 169.843L235.408 172.009L235.495 172.074L239.471 171.771L237.185 169.843ZM242.731 169.745L238.767 170.049L241.052 171.955L242.829 169.789L242.731 169.745ZM239.482 167.059L237.705 169.225L237.792 169.29L241.756 168.987L239.482 167.059ZM245.039 166.972L241.063 167.265L243.349 169.171L245.125 167.005L245.039 166.972ZM241.789 164.275L240.001 166.441L240.088 166.506L244.064 166.214L241.789 164.275ZM247.335 164.199L243.37 164.481L245.656 166.398L247.433 164.232L247.335 164.199ZM244.085 161.491L242.298 163.658L242.374 163.723L246.349 163.441L244.085 161.491ZM249.642 161.491L245.743 161.697L248.018 163.625L249.805 161.524L249.642 161.491ZM246.393 158.761L244.594 160.928L244.67 160.993L248.646 160.733L246.393 158.761ZM251.939 158.761L247.974 159L250.238 160.939L252.036 158.837L251.939 158.761ZM248.765 156.01L246.956 158.176L247.032 158.241L250.997 158.003L248.765 156.01ZM254.311 156.01L250.336 156.226L252.6 158.176L254.409 156.096L254.311 156.01ZM251.148 153.247L249.328 155.349L249.393 155.414L253.38 155.197L251.148 153.247ZM256.694 153.302L252.719 153.486L254.972 155.457L256.792 153.388L256.694 153.302ZM253.553 150.518L251.711 152.608H251.787L255.763 152.424L253.553 150.518ZM259.099 150.615L255.124 150.767L257.355 152.749L259.197 150.702L259.099 150.615ZM255.99 147.81L254.127 149.879L254.192 149.944L258.178 149.781L255.99 147.81ZM261.526 147.95H259.533L257.55 148.015L259.771 150.03C259.771 150.03 260.226 149.51 260.692 148.947L261.623 147.94L261.526 147.95ZM258.438 145.112L257.496 146.13L256.564 147.214L256.629 147.268L258.612 147.203L260.616 147.149L258.438 145.112ZM263.974 145.296L259.998 145.383L262.165 147.42L264.028 145.394L263.974 145.296ZM260.919 142.437L259.023 144.484H259.088L263.064 144.397L260.919 142.437ZM266.455 142.686H264.461H262.468L264.635 144.744C264.635 144.744 265.1 144.235 265.577 143.747L266.541 142.751L266.455 142.686ZM263.432 139.793L262.468 140.801C261.981 141.299 261.504 141.808 261.504 141.808H261.569H263.562H265.555L263.432 139.793ZM268.957 140.097H265.133L267.299 142.177L269.206 140.194L268.957 140.097ZM265.967 137.172L264.158 139.143H264.223H268.199L265.967 137.172ZM271.503 137.562L267.516 137.486L269.683 139.588L271.632 137.659L271.503 137.562ZM268.697 134.615L266.715 136.576L266.769 136.63L270.766 136.695L268.697 134.615ZM274.2 135.049L270.235 134.951L272.347 137.118L274.297 135.179L274.2 135.049ZM271.297 132.037L269.304 134.009L269.358 134.063L273.333 134.15L271.297 132.037ZM277.016 132.601L272.835 132.406L274.915 134.572L277.016 132.601ZM274.167 129.34L271.925 131.366V131.42L276.323 131.615L274.167 129.34Z" fill="#0B0B0B"/>
<path d="M328.069 96.2895L328.989 100.514L329.195 101.446L326.736 101.987C325.967 102.204 325.046 102.518 323.974 102.854C322.764 103.2 321.575 103.613 320.41 104.089L316.261 105.811L311.755 108.075C310.964 108.444 310.195 108.909 309.404 109.364L307.01 110.783C305.385 111.683 303.815 112.733 302.211 113.762C296.379 117.561 290.792 121.726 285.486 126.231C283.319 128.061 281.554 129.686 280.286 130.78C279.658 131.322 279.203 131.788 278.867 132.091L278.358 132.557L277.719 131.864L278.716 130.921C279.214 130.445 279.734 130 279.734 130L279.658 129.914C279.658 129.914 278.651 129.827 277.676 129.784L275.693 129.686L274.848 128.776L276.831 128.863L278.824 128.993L276.831 126.826C276.831 126.826 276.3 127.281 275.747 127.758L274.729 128.711L274.09 128.018L274.599 127.531C274.935 127.227 275.422 126.751 276.072 126.187C277.372 125.104 279.16 123.393 281.424 121.508C286.921 116.83 292.71 112.506 298.756 108.563C300.413 107.48 302.06 106.396 303.76 105.454L306.263 104.002C307.086 103.515 307.898 103.038 308.754 102.637L313.586 100.2L318.092 98.3369C319.368 97.8079 320.674 97.3522 322.002 96.972C323.172 96.6037 324.169 96.257 325.057 96.0187L327.787 95.4121L327.993 96.3437L328.069 96.2895ZM282.344 127.52L278.38 127.206L280.362 129.372L282.42 127.563L282.344 127.52ZM279.571 124.346L277.47 126.198L277.546 126.285L281.521 126.577L279.571 124.346ZM285.063 125.18L283.081 124.963L281.099 124.801L283.049 127.043L284.078 126.144L285.161 125.267L285.063 125.18ZM282.355 121.93L281.272 122.818L280.189 123.739L280.254 123.826L282.236 123.988L284.229 124.194L282.355 121.93ZM287.826 122.862L283.883 122.418L285.789 124.692L287.902 122.948L287.826 122.862ZM285.172 119.612L283.005 121.399L283.07 121.475L287.024 121.909L285.172 119.612ZM290.588 120.695L288.616 120.414C287.62 120.262 286.634 120.154 286.634 120.154L288.508 122.472C288.508 122.472 289.028 122.038 289.591 121.627L290.675 120.793L290.588 120.695ZM288.01 117.381L286.927 118.236C286.363 118.659 285.843 119.103 285.843 119.103L285.908 119.19C285.908 119.19 286.894 119.298 287.891 119.439L289.873 119.72L288.01 117.381ZM293.426 118.518L289.516 117.922L291.335 120.284L293.502 118.615L293.426 118.518ZM290.967 115.117L288.736 116.828L288.801 116.904L292.733 117.489L290.967 115.117ZM296.383 116.395L292.462 115.669L294.228 118.074L296.459 116.492L296.383 116.395ZM293.946 112.95L291.65 114.575L291.715 114.651L295.658 115.355L293.946 112.95ZM299.297 114.304L297.369 113.925L295.419 113.546L297.142 115.994L299.373 114.412L299.297 114.304ZM296.947 110.827L294.65 112.452L294.704 112.528L296.654 112.95L298.593 113.329L296.947 110.827ZM302.298 112.365L300.37 111.91L298.42 111.477L300.077 113.957L302.374 112.484L302.298 112.365ZM300.034 108.834L297.673 110.361L297.727 110.437L299.687 110.87L301.626 111.325L300.034 108.834ZM305.32 110.459C305.32 110.459 304.356 110.177 303.403 109.96L301.475 109.494L303.078 112.029L304.226 111.282C304.789 110.903 305.385 110.578 305.385 110.578L305.32 110.459ZM303.154 106.873C303.154 106.873 302.536 107.22 301.951 107.61L300.771 108.368V108.444L302.71 108.899C303.663 109.115 304.638 109.397 304.638 109.397L303.154 106.873ZM308.408 108.671L306.512 108.119L304.584 107.588L306.122 110.155L308.473 108.779L308.408 108.671ZM306.328 105.031L303.901 106.44V106.515L305.84 107.046L307.747 107.588L306.328 105.031ZM311.527 106.949L309.632 106.31L307.736 105.757L309.198 108.368L310.379 107.675L311.592 107.068L311.527 106.949ZM309.567 103.244L308.299 103.883L307.086 104.598V104.674L308.982 105.216L310.899 105.855L309.567 103.244ZM314.69 105.356L312.838 104.685L310.953 104.035L312.329 106.7L314.745 105.486L314.69 105.356ZM312.903 101.597L310.368 102.876V102.952L312.264 103.591L314.127 104.251L312.903 101.597ZM317.929 103.937L316.109 103.147L314.82 102.616L314.246 102.41L315.514 105.129L315.882 104.934L316.738 104.587L317.984 104.067L317.929 103.937ZM316.305 100.092L314.983 100.633L314.084 101.013L313.683 101.208V101.283L314.268 101.489L315.568 102.009L317.42 102.8L316.305 100.092ZM321.19 102.594L319.424 101.782L317.615 100.98L318.753 103.753L321.244 102.724L321.19 102.594ZM319.749 98.6727L317.117 99.756V99.8318L318.948 100.623L320.724 101.424L319.749 98.6727ZM324.537 101.533L322.815 100.579L321.027 99.6476L322.024 102.475L324.581 101.662L324.537 101.533ZM323.324 97.5245L320.594 98.4019V98.4777L322.403 99.3985L324.147 100.341L323.324 97.5245ZM328.079 100.774C328.079 100.774 327.224 100.189 326.325 99.626C325.87 99.3227 325.436 99.0952 325.09 98.9002L324.526 98.5861L325.36 101.467L325.783 101.338C326.083 101.23 326.391 101.143 326.704 101.078L328.079 100.774ZM327.224 96.5712L325.675 96.9178C325.308 96.9944 324.947 97.0921 324.591 97.2103L324.115 97.362V97.4378L324.721 97.7628C325.079 97.9578 325.555 98.2069 326.032 98.521C326.985 99.106 327.895 99.7126 327.895 99.7126L327.224 96.5712Z" fill="#0B0B0B"/>
<path d="M383.238 120.902L379.739 123.448L378.97 124.011L377.41 121.964C376.457 120.642 374.919 118.887 373.077 116.786C368.599 111.789 363.26 107.636 357.316 104.524C351.394 101.567 344.835 100.116 338.218 100.299H336.279C335.662 100.299 335.077 100.44 334.524 100.505L331.686 100.851C330.896 100.981 330.289 101.144 329.866 101.23L329.227 101.371L329.032 100.44L330.332 100.158L331.221 99.9522L331.632 99.898V99.7789C331.632 99.7789 331.437 99.6164 331.145 99.3998L330.061 98.6415L328.415 97.5582L328.155 96.345L329.823 97.4282L330.906 98.1865C331.21 98.4031 331.405 98.5656 331.405 98.5656L330.917 95.6409C330.768 95.6535 330.62 95.6752 330.473 95.7059L329.52 95.9117L328.112 96.2258L327.906 95.2942L328.632 95.1317C329.097 95.0451 329.78 94.8609 330.657 94.7093L333.907 94.3193C334.535 94.2435 335.185 94.146 335.889 94.0918H338.11H340.526C341.36 94.0918 342.226 94.2218 343.115 94.2868C344.003 94.3518 344.913 94.4168 345.844 94.5359L348.661 95.0667L350.102 95.3375C350.589 95.435 351.055 95.6084 351.532 95.7383L354.445 96.6158C355.42 96.9191 356.341 97.3741 357.305 97.699C358.268 98.0696 359.209 98.4965 360.122 98.9773L362.732 100.386C363.642 100.862 364.455 101.469 365.311 102C366.969 103.061 368.564 104.218 370.088 105.466C370.84 106.035 371.564 106.643 372.254 107.286L374.247 109.084C375.493 110.297 376.609 111.5 377.67 112.572C379.653 114.836 381.299 116.743 382.328 118.151L383.997 120.317L383.228 120.881L383.238 120.902ZM335.023 99.3889C335.023 99.3889 334.297 98.7606 333.528 98.1323C332.759 97.5041 331.957 96.8866 331.957 96.8866L332.401 99.833L335.034 99.5081L335.023 99.3889ZM334.633 95.1967L331.762 95.5542V95.6625C331.762 95.6625 332.585 96.28 333.365 96.8974C334.145 97.5149 334.893 98.154 334.893 98.154L334.633 95.1967ZM338.478 99.2156C338.478 99.2156 337.807 98.5223 337.092 97.8182C336.723 97.4716 336.355 97.1249 336.084 96.8541C335.814 96.5833 335.619 96.4425 335.619 96.4425L335.846 99.3998C335.983 99.3915 336.121 99.3915 336.258 99.3998H337.168H338.478V99.2156ZM338.413 95.0126H336.962H335.965C335.814 95.0046 335.662 95.0046 335.51 95.0126V95.1209C335.51 95.1209 335.705 95.2725 335.998 95.5434L337.027 96.4966C337.763 97.2007 338.446 97.9049 338.446 97.9049L338.413 95.0126ZM341.934 99.2914C341.934 99.2914 341.327 98.5223 340.666 97.7532C340.006 96.9841 339.302 96.345 339.302 96.345V99.3131C339.302 99.3131 339.962 99.3131 340.612 99.3131L341.934 99.4214V99.2914ZM342.205 95.0992L340.753 94.9801C340.027 94.9801 339.312 94.9801 339.312 94.9801V95.0884C339.312 95.0884 340.038 95.7817 340.721 96.4966C341.403 97.2116 342.031 98.0348 342.031 98.0348L342.205 95.0992ZM345.4 99.6272L345.054 99.1073C344.837 98.804 344.545 98.4357 344.252 98.024C343.656 97.2549 343.006 96.4858 343.006 96.4858L342.757 99.4539L344.068 99.5622C344.404 99.5622 344.729 99.5622 344.978 99.6489L345.379 99.7247L345.4 99.6272ZM346.018 95.4675L345.563 95.3809C345.292 95.3809 344.935 95.3267 344.566 95.2942L343.125 95.1642V95.2725C343.125 95.2725 343.786 96.0417 344.404 96.8108C344.718 97.2007 345.01 97.5691 345.238 97.894L345.584 98.414L346.018 95.4675ZM348.791 100.266C348.791 100.266 348.303 99.4539 347.773 98.6198C347.242 97.7857 346.689 96.9624 346.689 96.9624L346.191 99.898L348.78 100.386L348.791 100.266ZM349.755 96.1825L346.895 95.63V95.7383C346.895 95.7383 347.491 96.5724 348.043 97.4066C348.596 98.2407 349.127 99.0531 349.127 99.0531L349.755 96.1825ZM352.106 101.23C352.106 101.23 351.694 100.364 351.239 99.4756C350.784 98.5873 350.286 97.699 350.286 97.699L349.538 100.591L352.062 101.35L352.106 101.23ZM353.406 97.2441L350.622 96.3991V96.4966C350.622 96.4966 351.142 97.3957 351.607 98.284C352.073 99.1723 352.506 100.05 352.506 100.05L353.406 97.2441ZM355.334 102.455C355.334 102.455 354.998 101.545 354.619 100.613C354.435 100.147 354.24 99.6814 354.088 99.3239C353.936 98.9664 353.828 98.7606 353.828 98.7606L352.842 101.577C352.977 101.609 353.108 101.657 353.232 101.718L354.066 102.065L355.28 102.574L355.334 102.455ZM356.959 98.5873L355.615 98.024L354.695 97.6449C354.556 97.5828 354.41 97.5356 354.261 97.5041V97.5907C354.362 97.7733 354.452 97.9614 354.532 98.154L355.095 99.4539C355.485 100.385 355.832 101.306 355.832 101.306L356.959 98.5873ZM358.464 103.917C358.464 103.917 358.215 102.974 357.912 102.01C357.771 101.512 357.598 101.068 357.468 100.721C357.338 100.375 357.24 100.147 357.24 100.147L356.038 102.877L356.417 103.039C356.7 103.143 356.975 103.266 357.24 103.408L358.41 104.036L358.464 103.917ZM360.393 100.191L359.114 99.5189C358.82 99.3594 358.516 99.2183 358.204 99.0964L357.782 98.9231V99.0098L358.02 99.5947C358.15 99.9414 358.334 100.386 358.486 100.884C358.8 101.859 359.071 102.812 359.071 102.812L360.393 100.191ZM361.476 105.607L361.357 105C361.281 104.632 361.183 104.134 361.053 103.668C360.804 102.736 360.523 101.772 360.523 101.772L359.103 104.404L360.273 105.022C360.544 105.159 360.804 105.315 361.053 105.488L361.4 105.715L361.476 105.607ZM363.642 102.032L363.263 101.794C362.994 101.6 362.712 101.427 362.418 101.274L361.14 100.602V100.678C361.14 100.678 361.443 101.653 361.703 102.595C361.833 103.061 361.942 103.559 362.017 103.928L362.147 104.545L363.642 102.032ZM364.368 107.513C364.368 107.513 364.368 107.264 364.281 106.907C364.195 106.549 364.141 106.073 364.054 105.596L363.675 103.646L362.061 106.159L363.144 106.885L363.913 107.383C364.03 107.456 364.142 107.536 364.249 107.622L364.368 107.513ZM366.805 104.101C366.805 104.101 366.665 103.993 366.437 103.852L365.603 103.31L364.39 102.52V102.595L364.791 104.567C364.888 105.043 364.975 105.531 365.04 105.888C365.105 106.246 365.126 106.506 365.126 106.506L366.805 104.101ZM367.13 109.647C367.13 109.647 367.033 108.683 366.946 107.708L366.708 105.715L364.931 108.12L367.044 109.756L367.13 109.647ZM369.774 106.398L367.499 104.632V104.708C367.499 104.708 367.629 105.704 367.748 106.712C367.867 107.719 367.954 108.672 367.954 108.672L369.774 106.398ZM369.774 111.944L369.719 109.972L369.622 107.968L367.694 110.254L369.687 112.052L369.774 111.944ZM372.612 108.867L370.445 106.95L370.391 107.015L370.51 109.041C370.51 110.037 370.586 111.034 370.586 111.034L372.612 108.867ZM372.297 114.392L372.363 112.41C372.363 111.9 372.363 111.402 372.363 111.034C372.363 110.666 372.363 110.416 372.363 110.416L370.304 112.583L370.618 112.865C370.85 113.066 371.07 113.279 371.279 113.504L372.211 114.468L372.297 114.392ZM375.287 111.467L374.291 110.384C374.074 110.143 373.842 109.915 373.597 109.701L373.262 109.398L373.207 109.463C373.207 109.463 373.207 109.712 373.207 110.081C373.207 110.449 373.207 110.958 373.207 111.467C373.207 112.464 373.207 113.471 373.207 113.471L375.287 111.467ZM374.713 116.959L374.767 116.342C374.767 115.974 374.843 115.475 374.865 114.988C374.865 114.002 374.941 113.016 374.941 113.016L372.774 115.085L373.706 116.049C373.928 116.268 374.138 116.5 374.334 116.743L374.605 117.057L374.713 116.959ZM377.833 114.186L377.551 113.85C377.378 113.645 377.14 113.374 376.891 113.125L375.894 112.041L375.84 112.095L375.786 114.089C375.786 114.576 375.731 115.074 375.699 115.454L375.645 116.082L377.833 114.186ZM377.01 119.602L377.226 117.653C377.313 116.667 377.41 115.67 377.41 115.67L375.146 117.642L376.901 119.689L377.01 119.602ZM380.259 116.97L378.407 114.804H378.353L378.18 116.808L377.974 118.768L380.259 116.97ZM379.176 122.614L379.501 120.567C379.642 119.483 379.794 118.476 379.794 118.476L377.443 120.35L379.176 122.614ZM382.729 120.133L380.823 117.653H380.769L380.465 119.819L380.14 121.986L382.729 120.133Z" fill="#0B0B0B"/>
<path d="M408.565 177.872L404.395 179.031L403.474 179.291C403.474 179.291 403.214 178.37 402.748 176.756C402.283 175.142 401.611 172.867 400.755 170.126C399.033 164.656 396.52 157.441 393.552 150.433C390.847 144.031 387.717 137.817 384.181 131.833L382.134 128.584C381.527 127.619 380.932 126.818 380.477 126.135L379.393 124.554C379.155 124.196 379.003 124.012 379.003 124.012L379.773 123.449C379.862 123.56 379.945 123.676 380.022 123.796C380.173 124.001 380.358 124.283 380.552 124.565C380.942 125.117 381.322 125.648 381.322 125.648L381.419 125.583L381.809 123.633C381.907 123.146 381.993 122.647 382.069 122.279C382.145 121.911 382.167 121.662 382.167 121.662L383.174 120.936L383.076 121.553C383.011 121.922 382.914 122.42 382.827 122.918L382.437 124.879L384.886 123.189L384.084 122.03L383.531 121.228C383.452 121.104 383.365 120.985 383.271 120.871L384.041 120.318C384.193 120.501 384.334 120.693 384.463 120.892C384.723 121.282 385.113 121.846 385.611 122.561C386.11 123.276 386.695 124.142 387.366 125.161L389.533 128.616C393.222 134.841 396.48 141.313 399.282 147.985C402.358 155.221 404.937 162.63 406.702 168.231C407.569 171.036 408.284 173.376 408.739 175.023L409.486 177.612L408.565 177.861V177.872ZM383.391 128.551C383.391 128.551 383.64 127.576 383.856 126.612C384.073 125.648 384.257 124.673 384.257 124.673L381.798 126.341C381.798 126.341 382.177 126.905 382.567 127.425L383.293 128.573L383.391 128.551ZM386.933 126.276C386.933 126.276 386.565 125.67 386.175 125.085L385.373 123.915L385.286 123.98L384.896 125.93C384.68 126.905 384.431 127.879 384.431 127.879L386.933 126.276ZM385.275 131.573L385.774 129.667L386.25 127.739L383.737 129.32L385.178 131.628L385.275 131.573ZM388.883 129.407L387.388 127.035L387.301 127.089L386.835 129.039L386.337 130.956L388.883 129.407ZM387.052 134.617L387.615 132.722L388.157 130.804L385.6 132.31L386.944 134.682L387.052 134.617ZM390.713 132.57L389.327 130.111L389.229 130.165L388.688 132.104C388.406 133.057 388.135 134.011 388.135 134.011L390.713 132.57ZM388.731 137.802L389.359 135.917C389.673 134.953 389.944 134.011 389.944 134.011L387.334 135.451C387.334 135.451 387.691 136.036 387.994 136.654L388.623 137.856L388.731 137.802ZM392.447 135.841L391.797 134.596C391.483 133.967 391.125 133.361 391.125 133.361H391.028C391.028 133.361 390.768 134.303 390.453 135.267L389.825 137.174L392.447 135.841ZM390.367 140.976C390.367 140.976 390.713 140.044 391.028 139.113L391.656 137.228L389.013 138.604L389.641 139.817L390.074 140.651L390.258 141.03L390.367 140.976ZM394.136 139.113L393.942 138.712L393.497 137.856L392.847 136.61H392.761L392.132 138.506C391.829 139.449 391.483 140.38 391.483 140.38L394.136 139.113ZM391.916 144.204L393.302 140.478L390.627 141.788L391.807 144.258L391.916 144.204ZM395.718 142.428L394.505 139.893H394.418L393.064 143.673L395.718 142.428ZM393.4 147.465L394.147 145.623C394.526 144.692 394.873 143.76 394.873 143.76L392.165 145.017C392.165 145.017 392.457 145.634 392.728 146.262C392.999 146.891 393.281 147.519 393.281 147.519L393.4 147.465ZM397.235 145.764L396.671 144.486C396.39 143.836 396.097 143.197 396.097 143.197H396.011C396.011 143.197 395.653 144.139 395.285 145.071C394.916 146.002 394.537 146.923 394.537 146.923L397.235 145.764ZM394.83 150.758C394.83 150.758 395.241 149.837 395.61 148.927C395.978 148.017 396.357 147.086 396.357 147.086L393.627 148.288L394.18 149.545C394.461 150.162 394.711 150.801 394.711 150.801L394.83 150.758ZM398.697 149.122C398.697 149.122 398.448 148.472 398.155 147.833C397.863 147.194 397.581 146.555 397.581 146.555H397.495L396.758 148.407C396.39 149.317 395.978 150.238 395.978 150.238L398.697 149.122ZM396.216 154.116L397.809 150.476L395.046 151.624L396.13 154.159L396.216 154.116ZM400.105 152.567L399.022 149.967H398.935L397.397 153.607L400.105 152.567ZM397.505 157.463L399.184 153.845L396.4 154.928L397.375 157.485L397.505 157.463ZM401.427 155.979L400.43 153.358H400.344L398.665 156.986L401.427 155.979ZM398.751 160.832L399.639 159.045L400.484 157.246L397.679 158.33C397.679 158.33 397.928 158.969 398.166 159.619L398.621 160.908L398.751 160.832ZM402.694 159.413C402.694 159.413 402.456 158.752 402.228 158.091L401.73 156.781H401.643L400.799 158.579L399.921 160.377L402.694 159.413ZM399.954 164.212L401.73 160.615L398.903 161.623L399.824 164.212H399.954ZM403.897 162.782L402.965 160.15H402.878L401.113 163.714L403.897 162.782ZM401.069 167.548L402.911 164.028L400.073 164.981L400.929 167.592L401.069 167.548ZM405.045 166.248L404.167 163.594H404.092L402.25 167.137L405.045 166.248ZM402.153 170.982L403.117 169.227L404.048 167.472L401.199 168.393C401.199 168.393 401.405 169.054 401.622 169.704C401.838 170.354 402.023 171.015 402.023 171.015L402.153 170.982ZM406.15 169.736L405.738 168.404L405.305 167.072H405.229L404.297 168.837L403.344 170.581L406.15 169.736ZM403.214 174.416L405.142 170.95L402.272 171.827L403.073 174.459L403.214 174.416ZM407.222 173.224L406.399 170.56H406.323L404.406 174.037L407.222 173.224ZM404.102 178.045L406.193 174.427L403.301 175.272L404.102 178.045ZM408.305 177.016L407.45 174.059H407.385L405.218 177.861L408.305 177.016Z" fill="#0B0B0B"/>
<path d="M420.701 238.815L416.422 239.421L415.468 239.562C415.468 239.562 415.338 238.609 415.089 236.941C414.84 235.273 414.504 232.889 414.006 230.04C413.118 224.343 411.84 216.749 410.334 209.199C408.828 201.648 407.236 194.109 405.882 188.541C405.188 185.757 404.603 183.439 404.159 181.825L403.477 179.279L404.398 179.03L405.102 181.684H405.21L407.257 178.261L408.449 177.925L406.412 181.359L409.283 180.59L408.557 177.903L409.478 177.654C409.478 177.654 409.727 178.597 410.171 180.243C410.615 181.89 411.255 184.262 411.937 187.111C413.324 192.82 414.948 200.403 416.454 208.04C417.96 215.677 419.271 223.346 420.159 229.109C420.625 231.979 420.971 234.384 421.242 236.074L421.632 238.717L420.69 238.847L420.701 238.815ZM406.163 185.129L407.247 183.439C407.756 182.583 408.276 181.738 408.276 181.738L405.405 182.496L405.752 183.829C405.925 184.49 406.087 185.161 406.087 185.161L406.163 185.129ZM410.247 184.046L409.911 182.691L409.543 181.348H409.446L408.416 183.06L407.333 184.76L410.247 184.046ZM406.997 188.584L409.099 185.215L406.217 185.941L406.889 188.606L406.997 188.584ZM411.092 187.588L410.41 184.88H410.312L408.232 188.335L411.092 187.588ZM407.842 192.083L410.009 188.736L407.117 189.429L407.745 192.116L407.842 192.083ZM411.948 191.141L411.309 188.422H411.2L409.034 191.78L411.948 191.141ZM408.633 195.604L410.8 192.278L407.897 192.939L408.492 195.636L408.633 195.604ZM412.739 194.694L412.143 191.975H412.035L409.868 195.311L412.739 194.694ZM409.413 199.135L411.58 195.82L408.666 196.46L409.261 199.157L409.413 199.135ZM413.519 198.247L412.923 195.528H412.825L410.659 198.854L413.519 198.247ZM410.15 202.667L412.381 199.417L409.467 200.034L410.031 202.732L410.15 202.667ZM414.266 201.811L413.703 199.092H413.605L411.374 202.342L414.266 201.811ZM410.886 206.209L413.129 202.959L410.204 203.555L410.756 206.263L410.886 206.209ZM415.003 205.375L414.439 202.656H414.342L412.1 205.906L415.003 205.375ZM411.58 209.708L413.854 206.458L410.919 207.043L411.45 209.751L411.58 209.708ZM415.696 208.906L415.165 206.176H415.068L412.793 209.426L415.696 208.906ZM412.262 213.239L414.548 209.989L411.612 210.553L412.132 213.261L412.262 213.239ZM416.378 212.47L415.858 209.729H415.761L413.486 212.979L416.378 212.47ZM412.912 216.803L415.219 213.553L412.284 214.095L412.771 216.814L412.912 216.803ZM417.028 216.056L416.53 213.315H416.443L414.136 216.565L417.028 216.056ZM413.54 220.389L415.869 217.139L412.923 217.659L413.41 220.378L413.54 220.389ZM417.667 219.674L417.18 216.933H417.093L414.775 220.183L417.667 219.674ZM414.147 223.953L416.508 220.703L413.551 221.223L414.017 223.942L414.147 223.953ZM418.274 223.259L417.808 220.519H417.732L415.382 223.768L418.274 223.259ZM414.732 227.571L417.104 224.375L414.147 224.863L414.374 226.227L414.591 227.592L414.732 227.571ZM418.859 226.899L418.642 225.523C418.523 224.841 418.415 224.158 418.415 224.158H418.328L415.956 227.354L418.859 226.899ZM415.295 231.135L417.689 227.95L414.721 228.426L415.154 231.156L415.295 231.135ZM419.422 230.495L419.065 227.776H418.989L416.606 230.961L419.422 230.495ZM415.837 234.709L418.252 231.535L415.284 232.001L415.696 234.731L415.837 234.709ZM419.975 234.092L419.563 231.34H419.487L417.072 234.514L419.975 234.092ZM416.238 238.425L418.794 235.11L415.815 235.543L416.238 238.425ZM420.506 237.948L420.061 234.915H419.986L417.31 238.392L420.506 237.948Z" fill="#0B0B0B"/>
<path d="M100.499 207.195C100.586 275.31 100.586 342.472 100.499 410.273" stroke="#263238" stroke-width="6.04" stroke-miterlimit="10"/>
<path d="M214.405 209.609C214.329 276.414 214.329 343.575 214.405 410.239" stroke="#263238" stroke-width="6.04" stroke-miterlimit="10"/>
<path d="M55.4031 187.791H51.655V207.81H55.4031V187.791Z" fill="white" stroke="#263238" stroke-width="0.862857" stroke-miterlimit="10" stroke-linecap="round"/>
<path d="M67.8523 207.813V187.794L71.5787 187.783V207.791L67.8523 207.813Z" fill="white" stroke="#263238" stroke-width="0.862857" stroke-miterlimit="10" stroke-linecap="round"/>
<path d="M72.0111 185.855H39.8059V189.593H72.0111V185.855Z" fill="white"/>
<path d="M72.0111 189.592H39.8059" stroke="#263238" stroke-width="0.862857" stroke-miterlimit="10" stroke-linecap="round"/>
<path d="M39.8059 185.855H72.0111" stroke="#263238" stroke-width="0.862857" stroke-miterlimit="10" stroke-linecap="round"/>
<path d="M72.0111 207.258H39.8059V210.995H72.0111V207.258Z" fill="white"/>
<path d="M72.0111 210.998H39.8059" stroke="#263238" stroke-width="0.862857" stroke-miterlimit="10" stroke-linecap="round"/>
<path d="M39.8059 207.258H72.0111" stroke="#263238" stroke-width="0.862857" stroke-miterlimit="10" stroke-linecap="round"/>
<path d="M87.6087 187.791H83.8606V207.81H87.6087V187.791Z" fill="white" stroke="#263238" stroke-width="0.862857" stroke-miterlimit="10" stroke-linecap="round"/>
<path d="M100.054 207.813V187.794L103.781 187.783V207.791L100.054 207.813Z" fill="white" stroke="#263238" stroke-width="0.862857" stroke-miterlimit="10" stroke-linecap="round"/>
<path d="M104.206 185.855H72.0115V189.593H104.206V185.855Z" fill="white"/>
<path d="M104.217 189.592H72.0115" stroke="#263238" stroke-width="0.862857" stroke-miterlimit="10" stroke-linecap="round"/>
<path d="M72.0115 185.855H104.217" stroke="#263238" stroke-width="0.862857" stroke-miterlimit="10" stroke-linecap="round"/>
<path d="M104.206 207.258H72.0115V210.995H104.206V207.258Z" fill="white"/>
<path d="M104.217 210.998H72.0115" stroke="#263238" stroke-width="0.862857" stroke-miterlimit="10" stroke-linecap="round"/>
<path d="M72.0115 207.258H104.217" stroke="#263238" stroke-width="0.862857" stroke-miterlimit="10" stroke-linecap="round"/>
<path d="M119.816 187.791H116.068V207.81H119.816V187.791Z" fill="white" stroke="#263238" stroke-width="0.862857" stroke-miterlimit="10" stroke-linecap="round"/>
<path d="M132.261 207.813V187.794L135.988 187.783V207.791L132.261 207.813Z" fill="white" stroke="#263238" stroke-width="0.862857" stroke-miterlimit="10" stroke-linecap="round"/>
<path d="M136.432 185.855H104.227V189.593H136.432V185.855Z" fill="white"/>
<path d="M136.421 189.592H104.227" stroke="#263238" stroke-width="0.862857" stroke-miterlimit="10" stroke-linecap="round"/>
<path d="M104.227 185.855H136.421" stroke="#263238" stroke-width="0.862857" stroke-miterlimit="10" stroke-linecap="round"/>
<path d="M136.432 207.258H104.227V210.995H136.432V207.258Z" fill="white"/>
<path d="M136.421 210.998H104.227" stroke="#263238" stroke-width="0.862857" stroke-miterlimit="10" stroke-linecap="round"/>
<path d="M104.227 207.258H136.421" stroke="#263238" stroke-width="0.862857" stroke-miterlimit="10" stroke-linecap="round"/>
<path d="M152.018 187.791H148.27V207.81H152.018V187.791Z" fill="white" stroke="#263238" stroke-width="0.862857" stroke-miterlimit="10" stroke-linecap="round"/>
<path d="M164.467 207.813V187.794L168.193 187.783V207.791L164.467 207.813Z" fill="white" stroke="#263238" stroke-width="0.862857" stroke-miterlimit="10" stroke-linecap="round"/>
<path d="M168.636 185.855H136.431V189.593H168.636V185.855Z" fill="white"/>
<path d="M168.625 189.592H136.431" stroke="#263238" stroke-width="0.862857" stroke-miterlimit="10" stroke-linecap="round"/>
<path d="M136.431 185.855H168.625" stroke="#263238" stroke-width="0.862857" stroke-miterlimit="10" stroke-linecap="round"/>
<path d="M168.636 207.258H136.431V210.995H168.636V207.258Z" fill="white"/>
<path d="M168.625 210.998H136.431" stroke="#263238" stroke-width="0.862857" stroke-miterlimit="10" stroke-linecap="round"/>
<path d="M136.431 207.258H168.625" stroke="#263238" stroke-width="0.862857" stroke-miterlimit="10" stroke-linecap="round"/>
<path d="M184.224 187.791H180.476V207.81H184.224V187.791Z" fill="white" stroke="#263238" stroke-width="0.862857" stroke-miterlimit="10" stroke-linecap="round"/>
<path d="M196.673 207.81V187.791L200.735 187.867L200.107 207.875L196.673 207.81Z" fill="white" stroke="#263238" stroke-width="0.862857" stroke-miterlimit="10" stroke-linecap="round"/>
<path d="M201.145 189.69L196.812 189.593H192.782H184.733H168.636V185.855H184.733H192.782H196.822L201.275 185.964L201.145 189.69Z" fill="white"/>
<path d="M201.145 189.689L196.812 189.592H192.782H184.733H168.636" fill="white"/>
<path d="M201.145 189.689L196.812 189.592H192.782H184.733H168.636" stroke="#263238" stroke-width="0.862857" stroke-miterlimit="10" stroke-linecap="round"/>
<path d="M168.636 185.855H184.733H192.782H196.822L201.275 185.964" fill="white"/>
<path d="M168.636 185.855H184.733H192.782H196.822L201.275 185.964" stroke="#263238" stroke-width="0.862857" stroke-miterlimit="10" stroke-linecap="round"/>
<path d="M200.397 211.082L196.801 210.995H192.782H184.733H168.636V207.258H184.733H192.782H196.801L200.527 207.355L200.397 211.082Z" fill="white"/>
<path d="M200.397 211.085L196.801 210.998H192.782H184.733H168.636" fill="white"/>
<path d="M200.397 211.085L196.801 210.998H192.782H184.733H168.636" stroke="#263238" stroke-width="0.862857" stroke-miterlimit="10" stroke-linecap="round"/>
<path d="M168.636 207.258H184.733H192.782H196.801L200.527 207.355" fill="white"/>
<path d="M168.636 207.258H184.733H192.782H196.801L200.527 207.355" stroke="#263238" stroke-width="0.862857" stroke-miterlimit="10" stroke-linecap="round"/>
<path d="M211.37 208.817L214.067 188.982C215.432 189.123 216.764 189.416 218.107 189.622L214.782 209.358C213.644 209.185 212.518 208.925 211.37 208.817Z" fill="white" stroke="#263238" stroke-width="0.862857" stroke-miterlimit="10" stroke-linecap="round"/>
<path d="M225.952 211.841L231.369 192.57C232.679 192.895 233.968 193.307 235.268 193.719L229.267 212.816C228.151 212.47 227.068 212.112 225.952 211.841Z" fill="white" stroke="#263238" stroke-width="0.862857" stroke-miterlimit="10" stroke-linecap="round"/>
<path d="M235.149 195.582C232.408 194.661 229.602 193.979 226.818 193.221C225.421 192.885 224.002 192.592 222.594 192.289C221.89 192.137 221.196 191.964 220.481 191.845L218.315 191.477C212.63 190.475 206.882 189.878 201.113 189.689L201.243 185.963C207.182 186.155 213.101 186.767 218.954 187.794L221.12 188.173C221.846 188.303 222.572 188.476 223.287 188.628C224.739 188.953 226.19 189.256 227.62 189.592C230.491 190.372 233.383 191.076 236.189 192.029L235.149 195.582Z" fill="white"/>
<path d="M235.149 195.582C232.408 194.662 229.602 193.979 226.818 193.221C225.421 192.885 224.002 192.593 222.594 192.289C221.89 192.138 221.196 191.964 220.481 191.845L218.315 191.477C212.63 190.475 206.882 189.878 201.113 189.689" stroke="#263238" stroke-width="0.862857" stroke-miterlimit="10" stroke-linecap="round"/>
<path d="M201.329 185.963C207.268 186.155 213.187 186.767 219.04 187.794L221.207 188.173C221.932 188.303 222.658 188.476 223.373 188.628C224.825 188.953 226.276 189.256 227.706 189.592C230.577 190.372 233.469 191.076 236.275 192.029" fill="white"/>
<path d="M201.329 185.963C207.268 186.155 213.187 186.767 219.04 187.794L221.207 188.173C221.932 188.303 222.658 188.476 223.373 188.628C224.825 188.953 226.276 189.256 227.706 189.592C230.577 190.372 233.469 191.076 236.275 192.029" stroke="#263238" stroke-width="0.862857" stroke-miterlimit="10" stroke-linecap="round"/>
<path d="M228.649 215.979C226.385 215.199 224.045 214.647 221.738 214.008L218.228 213.239C217.643 213.119 217.058 212.968 216.473 212.859L214.697 212.567C209.975 211.737 205.2 211.241 200.409 211.083L200.539 207.346C205.501 207.512 210.446 208.026 215.336 208.884L217.167 209.198C217.784 209.306 218.38 209.458 218.987 209.577L222.626 210.379C225.02 211.04 227.436 211.614 229.787 212.426L228.649 215.979Z" fill="white"/>
<path d="M228.649 215.98C226.385 215.2 224.045 214.648 221.738 214.009L218.228 213.24C217.643 213.121 217.058 212.969 216.473 212.861L214.697 212.568C209.975 211.738 205.2 211.242 200.409 211.084" stroke="#263238" stroke-width="0.862857" stroke-miterlimit="10" stroke-linecap="round"/>
<path d="M200.537 207.346C205.499 207.512 210.444 208.026 215.334 208.884L217.165 209.198C217.782 209.306 218.378 209.458 218.985 209.577L222.624 210.379C225.018 211.04 227.434 211.614 229.785 212.426" fill="white"/>
<path d="M200.537 207.346C205.499 207.512 210.444 208.026 215.334 208.884L217.165 209.198C217.782 209.306 218.378 209.458 218.985 209.577L222.624 210.379C225.018 211.04 227.434 211.614 229.785 212.426" stroke="#263238" stroke-width="0.862857" stroke-miterlimit="10" stroke-linecap="round"/>
<path d="M239.829 216.771L247.78 198.355C249.036 198.886 250.293 199.439 251.506 200.035L242.97 218.136C241.941 217.67 240.89 217.215 239.829 216.771Z" fill="white" stroke="#263238" stroke-width="0.862857" stroke-miterlimit="10" stroke-linecap="round"/>
<path d="M253.043 223.616L263.442 206.512C264.601 207.227 265.782 207.887 266.898 208.678L255.968 225.447C255.025 224.765 254.018 224.212 253.043 223.616Z" fill="white" stroke="#263238" stroke-width="0.862857" stroke-miterlimit="10" stroke-linecap="round"/>
<path d="M266.324 210.444C261.513 207.263 256.481 204.428 251.267 201.962L249.317 201.019L247.324 200.163C246.002 199.6 244.681 199.015 243.338 198.484C240.64 197.477 237.921 196.426 235.181 195.603L236.318 192.039C239.167 192.895 241.929 193.978 244.713 195.007C246.1 195.56 247.454 196.155 248.819 196.74L250.866 197.618L252.87 198.582C258.239 201.129 263.423 204.05 268.382 207.324L266.324 210.444Z" fill="white"/>
<path d="M266.324 210.446C261.513 207.265 256.481 204.431 251.267 201.964L249.317 201.022L247.324 200.166C246.002 199.603 244.681 199.018 243.338 198.487C240.64 197.48 237.921 196.429 235.181 195.605" stroke="#263238" stroke-width="0.862857" stroke-miterlimit="10" stroke-linecap="round"/>
<path d="M236.285 192.029C239.134 192.885 241.896 193.968 244.68 194.997C246.067 195.55 247.421 196.146 248.786 196.731L250.833 197.608L252.837 198.572C258.206 201.119 263.39 204.04 268.349 207.314" fill="white"/>
<path d="M236.285 192.029C239.134 192.885 241.896 193.968 244.68 194.997C246.067 195.55 247.421 196.146 248.786 196.731L250.833 197.608L252.837 198.572C258.206 201.119 263.39 204.04 268.349 207.314" stroke="#263238" stroke-width="0.862857" stroke-miterlimit="10" stroke-linecap="round"/>
<path d="M254.54 228.318C250.538 225.676 246.354 223.323 242.017 221.277L240.403 220.486L238.746 219.782C237.663 219.327 236.579 218.829 235.496 218.385C233.243 217.561 231.011 216.673 228.715 215.991L229.798 212.438C232.181 213.142 234.489 214.062 236.818 214.918C237.977 215.373 239.103 215.882 240.251 216.359L241.963 217.095L243.642 217.908C248.142 220.032 252.485 222.472 256.641 225.209L254.54 228.318Z" fill="white"/>
<path d="M254.54 228.318C250.538 225.676 246.354 223.323 242.017 221.277L240.403 220.486L238.746 219.782C237.663 219.327 236.579 218.828 235.496 218.384C233.243 217.561 231.011 216.673 228.715 215.99" stroke="#263238" stroke-width="0.862857" stroke-miterlimit="10" stroke-linecap="round"/>
<path d="M229.785 212.426C232.168 213.13 234.475 214.051 236.804 214.906C237.963 215.361 239.09 215.871 240.238 216.347L241.95 217.084L243.629 217.896C248.128 220.021 252.472 222.461 256.628 225.197" fill="white"/>
<path d="M229.785 212.426C232.168 213.13 234.475 214.051 236.804 214.906C237.963 215.361 239.09 215.871 240.238 216.347L241.95 217.084L243.629 217.896C248.128 220.021 252.472 222.461 256.628 225.197" stroke="#263238" stroke-width="0.862857" stroke-miterlimit="10" stroke-linecap="round"/>
<path d="M265.078 232.108L277.698 216.574C278.781 217.452 279.81 218.297 280.85 219.185L267.732 234.275C266.865 233.549 265.966 232.834 265.078 232.108Z" fill="white" stroke="#263238" stroke-width="0.862857" stroke-miterlimit="10" stroke-linecap="round"/>
<path d="M292.084 232.187L286.267 226.619L284.805 225.232C284.328 224.767 283.852 224.312 283.299 223.813L280.05 220.899C278.966 219.924 277.829 219.047 276.724 218.115C275.619 217.184 274.503 216.285 273.333 215.44L269.856 212.862L266.325 210.446L268.372 207.326L272.066 209.818L275.652 212.472C276.854 213.349 278.002 214.291 279.14 215.234C280.277 216.176 281.458 217.086 282.563 218.105L285.877 221.105C286.452 221.614 286.961 222.08 287.405 222.535L288.867 223.932L294.673 229.5L292.084 232.187Z" fill="white"/>
<path d="M292.084 232.184L286.267 226.616L284.805 225.23C284.328 224.764 283.852 224.309 283.299 223.811L280.05 220.897C278.966 219.922 277.829 219.044 276.724 218.113C275.619 217.181 274.503 216.282 273.333 215.437L269.856 212.859L266.325 210.443" stroke="#263238" stroke-width="0.862857" stroke-miterlimit="10" stroke-linecap="round"/>
<path d="M268.351 207.314L272.044 209.806L275.63 212.46C276.832 213.337 277.981 214.28 279.118 215.222C280.256 216.165 281.436 217.075 282.541 218.093L285.856 221.093C286.43 221.603 286.939 222.068 287.383 222.523L288.846 223.921L294.652 229.489" fill="white"/>
<path d="M268.351 207.314L272.044 209.806L275.63 212.46C276.832 213.337 277.981 214.28 279.118 215.222C280.256 216.165 281.436 217.075 282.541 218.093L285.856 221.093C286.43 221.603 286.939 222.068 287.383 222.523L288.846 223.921L294.652 229.489" stroke="#263238" stroke-width="0.862857" stroke-miterlimit="10" stroke-linecap="round"/>
<path d="M411.601 75.312C405.892 72.1922 403.292 74.792 401.212 72.1922C399.132 69.5924 406.921 62.8329 391.333 56.0842C391.333 56.0842 390.25 41.5253 368.985 41.0053C347.721 40.4854 353.386 55.5642 347.667 59.204C341.947 62.8437 340.398 57.1241 334.668 60.7639C328.937 64.4036 331.548 71.6722 326.868 72.6797C322.189 73.6871 315.949 68 310.24 71.5964C304.532 75.1928 304.521 78.3559 301.921 78.3559C299.321 78.3559 294.122 76.2761 291.002 78.3559C287.882 80.4358 284.253 83.0356 284.253 83.0356H415.814C415.814 83.0356 417.32 78.4317 411.601 75.312Z" fill="white"/>
<path d="M338.794 62.1067C334.927 60.0051 333.172 61.76 331.775 60.0051C330.377 58.2503 335.631 53.6898 325.113 49.1726C325.113 49.1726 324.408 39.3475 310.023 39.0008C295.637 38.6542 299.494 48.8151 295.637 51.2741C291.781 53.7331 290.73 49.8767 286.874 52.3574C283.017 54.838 284.707 59.7235 281.609 60.4276C278.511 61.1317 274.243 57.2753 270.387 59.7235C266.53 62.1716 266.519 64.284 264.765 64.284C263.01 64.284 259.511 62.8866 257.398 64.284C255.286 65.6814 252.838 67.4471 252.838 67.4471H341.6C341.6 67.4471 342.65 64.2082 338.794 62.1067Z" fill="white"/>
<path d="M95.3971 137.729C92.1474 135.974 90.7066 137.437 89.5367 135.974C88.3668 134.512 92.7865 130.699 83.9688 126.886C83.9688 126.886 83.3839 118.675 71.3597 118.382C59.3356 118.09 62.5637 126.593 59.3356 128.641C56.1075 130.688 55.2301 127.471 52.0128 129.529C48.7956 131.587 50.2471 135.682 47.6148 136.267C44.9825 136.852 41.4511 133.635 38.2338 135.682C35.0166 137.729 34.9841 139.495 33.5433 139.495C32.1026 139.495 29.1453 138.325 27.3796 139.495C25.6139 140.665 23.5774 142.127 23.5774 142.127H97.7478C97.7478 142.127 98.6252 139.495 95.3971 137.729Z" fill="#FFB355"/>
<path opacity="0.8" d="M95.3971 137.729C92.1474 135.974 90.7066 137.437 89.5367 135.974C88.3668 134.512 92.7865 130.699 83.9688 126.886C83.9688 126.886 83.3839 118.675 71.3597 118.382C59.3356 118.09 62.5637 126.593 59.3356 128.641C56.1075 130.688 55.2301 127.471 52.0128 129.529C48.7956 131.587 50.2471 135.682 47.6148 136.267C44.9825 136.852 41.4511 133.635 38.2338 135.682C35.0166 137.729 34.9841 139.495 33.5433 139.495C32.1026 139.495 29.1453 138.325 27.3796 139.495C25.6139 140.665 23.5774 142.127 23.5774 142.127H97.7478C97.7478 142.127 98.6252 139.495 95.3971 137.729Z" fill="white"/>
<path d="M106.132 168.73C106.132 168.73 100.282 118.597 108.591 110.906C111.169 108.523 115.09 111.21 115.664 117.98C116.238 124.75 115.664 126.895 117.831 142.581C119.008 151.725 121.822 160.583 126.139 168.73H106.132Z" fill="#263238"/>
<path d="M130.496 125.92V114.199L139.032 114.448" fill="white"/>
<path d="M130.496 125.92V114.199L139.032 114.448" stroke="#263238" stroke-width="0.862857" stroke-miterlimit="10" stroke-linecap="round"/>
<path d="M110.172 68.6708C110.172 68.6708 109.089 65.5943 110.833 66.2551C112.577 66.9159 112.815 71.7472 112.815 71.7472C112.815 71.7472 111.277 72.1914 110.833 71.5306C110.475 70.6142 110.253 69.651 110.172 68.6708Z" fill="white" stroke="#263238" stroke-width="0.862857" stroke-miterlimit="10" stroke-linecap="round"/>
<path d="M112.818 69.3309C112.818 69.3309 111.735 66.2545 113.479 66.9153C115.223 67.5761 115.461 72.4074 115.461 72.4074C115.461 72.4074 113.912 72.8515 113.479 72.1907C113.116 71.276 112.893 70.312 112.818 69.3309Z" fill="white" stroke="#263238" stroke-width="0.862857" stroke-miterlimit="10" stroke-linecap="round"/>
<path d="M133.442 107.677L122.49 75.8401C122.172 74.2245 121.734 72.6349 121.18 71.0846C120.736 70.4346 117.215 68.9181 116.121 68.6689C115.027 68.4198 113.478 66.9141 112.6 66.9141C111.723 66.9141 111.712 68.8856 113.261 69.5464C114.267 70.0161 115.164 70.6914 115.893 71.5287L111.279 70.4455C111.279 70.4455 108.852 66.0366 108.191 67.1957C107.531 68.3548 110.174 73.1319 111.712 73.7927C113.25 74.4535 118.97 77.7574 118.97 77.7574L127.029 107.33L127.863 127.587L136.129 130.284L133.442 107.677Z" fill="white" stroke="#263238" stroke-width="0.862857" stroke-miterlimit="10" stroke-linecap="round"/>
<path d="M127.342 134.232L122.446 118.103C124.975 117.046 127.389 115.732 129.649 114.181C132.193 112.564 135.013 111.429 137.969 110.834C137.969 110.834 138.944 119.5 139.496 122.251C140.048 125.003 139.68 132.304 138.304 137.146" fill="#FFB355"/>
<path d="M127.342 134.232L122.446 118.103C124.975 117.046 127.389 115.732 129.649 114.181C132.193 112.564 135.013 111.429 137.969 110.834C137.969 110.834 138.944 119.5 139.496 122.251C140.048 125.003 139.68 132.304 138.304 137.146" stroke="#263238" stroke-width="0.862857" stroke-miterlimit="10" stroke-linecap="round"/>
<path d="M136.127 117.191C136.127 117.191 133.646 119.877 133.646 121.123C133.646 122.369 133.852 125.456 133.852 125.456L126.204 121.524C125.696 119.897 125.073 118.307 124.341 116.768C123.258 114.699 121.243 113.67 123.106 110.15C124.969 106.629 136.755 113.258 136.127 117.191Z" fill="white" stroke="#263238" stroke-width="0.862857" stroke-miterlimit="10" stroke-linecap="round"/>
<path d="M123.215 115.543C120.349 112.21 117.85 108.579 115.763 104.71C113.358 99.7379 122.262 95.6324 125.512 94.1267C128.762 92.6209 121.796 92.3501 124.364 90.0211C126.931 87.6921 132.748 90.4869 133.853 93.0001C134.958 95.5132 134.503 96.0332 134.503 96.0332C134.503 96.0332 136.864 92.9568 137.406 95.6216C137.948 98.2864 133.734 101.894 132.856 102.338C131.979 102.782 131.773 105.663 130.917 106.909C130.062 108.155 129.097 107.624 129.043 108.848C128.854 110.34 128.18 111.729 127.126 112.802C125.877 113.791 124.571 114.706 123.215 115.543Z" fill="#263238"/>
<path d="M128.458 99.7814C128.458 99.7814 130.365 102.262 129.541 103.703C128.718 105.144 125.512 105.869 125.772 106.768C126.072 107.487 126.283 108.24 126.4 109.011C126.53 110.181 126.4 110.603 125.782 110.387C125.165 110.17 123.616 107.581 122.803 109.812C122.445 110.776 122.417 111.831 122.725 112.812C123.033 113.793 123.659 114.643 124.504 115.229C124.921 115.508 125.419 115.643 125.92 115.612C126.421 115.58 126.898 115.385 127.277 115.055C127.277 115.055 128.783 118.305 130.527 118.771C132.271 119.237 139.312 118.522 139.323 117.114C139.334 115.705 135.163 101.569 133.116 99.3265C131.069 97.0841 128.458 99.7814 128.458 99.7814Z" fill="white" stroke="#263238" stroke-width="0.862857" stroke-miterlimit="10" stroke-linecap="round"/>
<path d="M133.855 125.464C137.204 128.445 140.066 131.932 142.336 135.798C146.669 142.829 151.002 158.124 151.002 158.124H125.979C125.979 158.124 121.018 135.376 120.563 128.562C120.108 121.748 123.455 121.738 126.553 122.149C129.651 122.561 133.855 125.464 133.855 125.464Z" fill="white" stroke="#263238" stroke-width="0.862857" stroke-miterlimit="10" stroke-linecap="round"/>
<path d="M128.48 125.672L117.518 114.298L95.6036 81.0099L95.1812 81.3457C95.6273 80.8793 95.9349 80.2979 96.0694 79.6666C96.2319 78.5834 95.2678 74.1745 95.2678 73.5246C95.2678 72.8746 95.4195 71.4339 94.4554 71.9105C93.4913 72.3872 93.1663 72.723 93.1663 73.3729V75.1386L89.4507 70.459C89.4507 70.459 87.9992 70.459 87.9992 71.5422C87.9992 72.6255 90.1007 75.5719 90.1007 75.5719L89.1258 76.5469L85.0961 70.7298C84.8255 70.8702 84.5951 71.0771 84.4264 71.331C84.2578 71.5849 84.1565 71.8775 84.132 72.1814C84.132 73.1563 87.0351 77.511 87.0351 77.511L86.2226 78.4751L82.8321 75.0845C82.8321 75.0845 81.543 75.5719 81.868 76.5469C82.1929 77.5218 85.746 80.4574 85.746 80.4574L82.4962 79.8075C82.4962 79.8075 81.8463 80.7824 82.3338 81.2699C82.8212 81.7573 87.4901 82.5589 87.4901 82.5589L92.3322 83.6422L92.5163 83.5014C93.1338 84.8446 105.342 111.222 106.75 114.45C108.159 117.678 123.909 137.198 123.909 137.198" fill="white"/>
<path d="M128.48 125.672L117.518 114.298L95.6036 81.0099L95.1812 81.3457C95.6273 80.8793 95.9349 80.2979 96.0694 79.6666C96.2319 78.5834 95.2678 74.1745 95.2678 73.5246C95.2678 72.8746 95.4195 71.4339 94.4554 71.9105C93.4913 72.3872 93.1663 72.723 93.1663 73.3729V75.1386L89.4507 70.459C89.4507 70.459 87.9992 70.459 87.9992 71.5422C87.9992 72.6255 90.1007 75.5719 90.1007 75.5719L89.1258 76.5469L85.0961 70.7298C84.8255 70.8702 84.5951 71.0771 84.4264 71.331C84.2578 71.5849 84.1565 71.8775 84.132 72.1814C84.132 73.1563 87.0351 77.511 87.0351 77.511L86.2226 78.4751L82.8321 75.0845C82.8321 75.0845 81.543 75.5719 81.868 76.5469C82.1929 77.5218 85.746 80.4574 85.746 80.4574L82.4962 79.8075C82.4962 79.8075 81.8463 80.7824 82.3338 81.2699C82.8212 81.7573 87.4901 82.5589 87.4901 82.5589L92.3322 83.6422L92.5163 83.5014C93.1338 84.8446 105.342 111.222 106.75 114.45C108.159 117.678 123.909 137.198 123.909 137.198" stroke="#263238" stroke-width="0.862857" stroke-miterlimit="10" stroke-linecap="round"/>
<path d="M130.982 129.094C129.022 124.447 128.816 123.959 126.649 122.15C124.483 120.341 118.319 114.199 118.319 114.199C116.404 116.512 114.935 119.16 113.986 122.009C113.191 124.639 112.127 127.18 110.812 129.592L124.721 139.103C124.721 139.103 130.896 142.212 131.069 129.105" fill="#FFB355"/>
<path d="M130.982 129.094C129.022 124.447 128.816 123.959 126.649 122.15C124.483 120.341 118.319 114.199 118.319 114.199C116.404 116.512 114.935 119.16 113.986 122.009C113.191 124.639 112.127 127.18 110.812 129.592L124.721 139.103C124.721 139.103 130.896 142.212 131.069 129.105" stroke="#263238" stroke-width="0.862857" stroke-miterlimit="10" stroke-linecap="round"/>
<path d="M93.1675 75.1367C93.0251 75.883 92.6451 76.5632 92.0843 77.0757C91.2718 77.5632 90.3077 77.5632 90.4702 79.1773C90.5869 79.7205 90.8196 80.2322 91.1524 80.6772C91.4852 81.1222 91.9103 81.49 92.3984 81.7554" stroke="#263238" stroke-width="0.862857" stroke-miterlimit="10" stroke-linecap="round"/>
<path d="M167.196 155.482L152.409 130.6" stroke="#263238" stroke-width="3.45143" stroke-miterlimit="10" stroke-linecap="round"/>
<path d="M109.945 200.471H105.905V213.751H109.945V200.471Z" fill="#FFB355" stroke="#263238" stroke-width="0.862857" stroke-miterlimit="10" stroke-linecap="round"/>
<path d="M141.999 200.471H137.958V213.751H141.999V200.471Z" fill="#FFB355" stroke="#263238" stroke-width="0.862857" stroke-miterlimit="10" stroke-linecap="round"/>
<path d="M174.053 200.471H170.012V213.751H174.053V200.471Z" fill="#FFB355" stroke="#263238" stroke-width="0.862857" stroke-miterlimit="10" stroke-linecap="round"/>
<path d="M206.105 200.471H202.064V213.751H206.105V200.471Z" fill="#FFB355" stroke="#263238" stroke-width="0.862857" stroke-miterlimit="10" stroke-linecap="round"/>
<path d="M113.173 211.445H102.687C101.275 211.445 100.131 212.59 100.131 214.002V215.822C100.131 217.234 101.275 218.378 102.687 218.378H113.173C114.585 218.378 115.73 217.234 115.73 215.822V214.002C115.73 212.59 114.585 211.445 113.173 211.445Z" fill="#263238" stroke="#263238" stroke-width="0.862857" stroke-miterlimit="10" stroke-linecap="round"/>
<path d="M145.802 211.445H135.316C133.904 211.445 132.76 212.59 132.76 214.002V215.822C132.76 217.234 133.904 218.378 135.316 218.378H145.802C147.214 218.378 148.358 217.234 148.358 215.822V214.002C148.358 212.59 147.214 211.445 145.802 211.445Z" fill="#263238" stroke="#263238" stroke-width="0.862857" stroke-miterlimit="10" stroke-linecap="round"/>
<path d="M177.281 211.445H166.795C165.383 211.445 164.239 212.59 164.239 214.002V215.822C164.239 217.234 165.383 218.378 166.795 218.378H177.281C178.693 218.378 179.838 217.234 179.838 215.822V214.002C179.838 212.59 178.693 211.445 177.281 211.445Z" fill="#263238" stroke="#263238" stroke-width="0.862857" stroke-miterlimit="10" stroke-linecap="round"/>
<path d="M209.333 211.445H198.847C197.435 211.445 196.29 212.59 196.29 214.002V215.822C196.29 217.234 197.435 218.378 198.847 218.378H209.333C210.745 218.378 211.889 217.234 211.889 215.822V214.002C211.889 212.59 210.745 211.445 209.333 211.445Z" fill="#263238" stroke="#263238" stroke-width="0.862857" stroke-miterlimit="10" stroke-linecap="round"/>
<path d="M167.196 143.48V202.626H213.245C213.245 202.626 217.784 157.834 167.196 143.48Z" fill="#FFB355" stroke="#263238" stroke-width="0.862857" stroke-miterlimit="10" stroke-linecap="round"/>
<path d="M167.195 155.482H98.614V202.626H167.195V155.482Z" fill="#FFB355" stroke="#263238" stroke-width="0.862857" stroke-miterlimit="10" stroke-linecap="round"/>
<path d="M136.507 180.895H134.969V186.495H136.507C138.825 186.495 139.551 185.412 139.551 183.603C139.551 181.794 138.825 180.895 136.507 180.895Z" fill="#263238"/>
<path d="M135.693 159.826C131.807 159.826 128.007 160.979 124.775 163.139C121.544 165.298 119.025 168.368 117.538 171.959C116.051 175.55 115.663 179.502 116.422 183.314C117.181 187.126 119.053 190.627 121.802 193.375C124.552 196.123 128.054 197.993 131.867 198.75C135.679 199.507 139.63 199.117 143.221 197.628C146.811 196.139 149.879 193.618 152.037 190.386C154.195 187.153 155.346 183.352 155.344 179.466C155.344 176.886 154.835 174.331 153.848 171.947C152.86 169.564 151.412 167.398 149.588 165.575C147.763 163.751 145.596 162.304 143.212 161.318C140.828 160.332 138.273 159.825 135.693 159.826ZM135.693 197.068C132.212 197.068 128.809 196.036 125.914 194.102C123.019 192.168 120.763 189.418 119.431 186.202C118.098 182.985 117.75 179.446 118.429 176.031C119.108 172.617 120.785 169.48 123.246 167.018C125.708 164.557 128.845 162.88 132.259 162.201C135.674 161.522 139.213 161.87 142.43 163.203C145.646 164.535 148.395 166.791 150.33 169.686C152.264 172.581 153.296 175.984 153.296 179.466C153.293 184.133 151.438 188.609 148.137 191.91C144.837 195.21 140.361 197.066 135.693 197.068Z" fill="#263238"/>
<path d="M139.107 175.632C139.107 174.007 138.392 173.205 136.345 173.205H134.969V178.112H136.334C138.36 178.112 139.107 177.256 139.107 175.632Z" fill="#263238"/>
<path d="M135.694 162.662C132.371 162.662 129.123 163.647 126.36 165.494C123.597 167.34 121.443 169.964 120.172 173.034C118.9 176.104 118.567 179.482 119.215 182.741C119.864 186 121.464 188.994 123.814 191.344C126.163 193.693 129.157 195.294 132.416 195.942C135.675 196.59 139.053 196.257 142.123 194.986C145.193 193.714 147.817 191.561 149.664 188.798C151.51 186.035 152.495 182.786 152.495 179.463C152.489 175.009 150.717 170.739 147.568 167.589C144.418 164.44 140.148 162.668 135.694 162.662ZM139.063 189.31V193.112H136.896V189.505H134.914V193.112H132.747V189.505H127.981V186.613H128.924C129.127 186.577 129.314 186.477 129.457 186.327C129.599 186.176 129.689 185.984 129.714 185.779V173.809C129.689 173.605 129.598 173.414 129.456 173.266C129.313 173.117 129.127 173.019 128.924 172.986H127.981V170.169H132.747V166.529H134.914V170.169H136.896V166.518H139.063V170.364C142.432 170.841 144.208 172.411 144.208 175.163C144.208 177.589 142.822 178.781 140.287 179.301V179.409C143.244 179.853 144.869 181.283 144.869 183.905C144.869 187.003 142.692 188.779 139.063 189.31Z" fill="#263238"/>
<path d="M94.0865 156.285H72.4214" stroke="#263238" stroke-width="0.862857" stroke-miterlimit="10" stroke-linecap="round"/>
<path d="M87.2958 164.949H60.1494" stroke="#263238" stroke-width="0.862857" stroke-miterlimit="10" stroke-linecap="round"/>
<path d="M95.5284 164.949H91.6287" stroke="#263238" stroke-width="0.862857" stroke-miterlimit="10" stroke-linecap="round"/>
<path d="M62.4452 92.7285H57.9822" stroke="#263238" stroke-width="0.862857" stroke-miterlimit="10" stroke-linecap="round"/>
<path d="M93.3609 92.7285H66.7778" stroke="#263238" stroke-width="0.862857" stroke-miterlimit="10" stroke-linecap="round"/>
<path d="M93.3613 196.723H57.9822" stroke="#263238" stroke-width="0.862857" stroke-miterlimit="10" stroke-linecap="round"/>
</g>
</svg>
