<svg width="419" height="435" viewBox="0 0 419 435" fill="none" xmlns="http://www.w3.org/2000/svg">
<mask id="path-1-inside-1_62_52" fill="white">
<path d="M203 421C256.839 421 308.473 399.613 346.543 361.543C384.613 323.473 406 271.839 406 218C406 164.161 384.613 112.527 346.543 74.4573C308.473 36.3875 256.839 15 203 15V16.8517C256.348 16.8518 307.511 38.0441 345.233 75.7667C382.956 113.489 404.148 164.652 404.148 218C404.148 271.348 382.956 322.511 345.233 360.233C307.511 397.956 256.348 419.148 203 419.148V421Z"/>
</mask>
<path d="M203 421C256.839 421 308.473 399.613 346.543 361.543C384.613 323.473 406 271.839 406 218C406 164.161 384.613 112.527 346.543 74.4573C308.473 36.3875 256.839 15 203 15V16.8517C256.348 16.8518 307.511 38.0441 345.233 75.7667C382.956 113.489 404.148 164.652 404.148 218C404.148 271.348 382.956 322.511 345.233 360.233C307.511 397.956 256.348 419.148 203 419.148V421Z" stroke="url(#paint0_linear_62_52)" stroke-width="6" mask="url(#path-1-inside-1_62_52)"/>
<circle cx="203" cy="14" r="14" fill="#0A7CFF"/>
<circle cx="203" cy="421" r="14" fill="#FFB355"/>
<circle cx="405" cy="220" r="14" fill="#3EBA59"/>
<defs>
<linearGradient id="paint0_linear_62_52" x1="13.3782" y1="0.749277" x2="364.702" y2="395.407" gradientUnits="userSpaceOnUse">
<stop stop-color="#0A7CFF"/>
<stop offset="0.319419" stop-color="#3EBA59"/>
<stop offset="0.695453" stop-color="#D91222"/>
<stop offset="1" stop-color="#FFB355"/>
</linearGradient>
</defs>
</svg>
