<svg width="1376" height="624" viewBox="0 0 1376 624" fill="none" xmlns="http://www.w3.org/2000/svg">
<rect width="1490" height="624" transform="translate(-57)" fill="#08081E"/>
<g opacity="0.3" clip-path="url(#clip5_921_22969)">
<path d="M8.29883 388.074L8.29882 545.263" stroke="#D83232" stroke-width="0.539129"/>
<rect x="6.2446" y="421.99" width="4.11034" height="119.696" fill="#D83232" stroke="#D83232" stroke-width="0.539129"/>
<path d="M14.6923 515.48L14.6923 583.32" stroke="#D83232" stroke-width="0.539129"/>
<rect x="12.6371" y="542.223" width="4.11034" height="27.5893" fill="#D83232" stroke="#D83232" stroke-width="0.539129"/>
<path d="M36.7781 490.66L36.7781 567.876" stroke="#D83232" stroke-width="0.539129"/>
<rect x="34.7211" y="496.445" width="4.11034" height="33.6563" fill="#D83232" stroke="#D83232" stroke-width="0.539129"/>
<path d="M64.674 401.309L64.674 476.869" stroke="#D83232" stroke-width="0.539129"/>
<rect x="62.6178" y="412.061" width="4.11034" height="22.074" fill="#D83232" stroke="#D83232" stroke-width="0.539129"/>
<path d="M78.6218 385.869L78.6218 447.641" stroke="#D83232" stroke-width="0.539129"/>
<rect x="76.5676" y="403.234" width="4.11034" height="32.5532" fill="#D83232" stroke="#D83232" stroke-width="0.539129"/>
<path d="M85.5972 423.371L85.5972 472.458" stroke="#D83232" stroke-width="0.539129"/>
<rect x="83.541" y="434.121" width="4.11034" height="34.2078" fill="#D83232" stroke="#D83232" stroke-width="0.539129"/>
<path d="M92.571 468.6L92.571 518.79" stroke="#D83232" stroke-width="0.539129"/>
<rect x="90.5154" y="469.971" width="4.11034" height="27.0378" fill="#D83232" stroke="#D83232" stroke-width="0.539129"/>
<path d="M106.519 432.195L106.519 448.19" stroke="#D83232" stroke-width="0.539129"/>
<rect x="104.465" y="441.844" width="4.11034" height="1.11549" fill="#D83232" stroke="#D83232" stroke-width="0.539129"/>
<path d="M113.493 436.609L113.493 456.465" stroke="#D83232" stroke-width="0.539129"/>
<rect x="111.438" y="439.639" width="4.11034" height="12.6978" fill="#D83232" stroke="#D83232" stroke-width="0.539129"/>
<path d="M127.443 489.559L127.443 529.269" stroke="#D83232" stroke-width="0.539129"/>
<rect x="125.386" y="490.377" width="4.11034" height="6.63088" fill="#D83232" stroke="#D83232" stroke-width="0.539129"/>
<path d="M141.972 473.561L141.972 492.313" stroke="#D83232" stroke-width="0.539129"/>
<rect x="139.916" y="481.553" width="4.11034" height="3.87318" fill="#D83232" stroke="#D83232" stroke-width="0.539129"/>
<path d="M148.945 482.387L148.945 498.933" stroke="#D83232" stroke-width="0.539129"/>
<rect x="146.892" y="483.209" width="4.11034" height="5.5278" fill="#D83232" stroke="#D83232" stroke-width="0.539129"/>
<path d="M183.817 415.1L183.817 446.537" stroke="#D83232" stroke-width="0.539129"/>
<rect x="181.763" y="417.574" width="4.11034" height="25.3832" fill="#D83232" stroke="#D83232" stroke-width="0.539129"/>
<path d="M190.792 437.713L190.792 452.053" stroke="#D83232" stroke-width="0.539129"/>
<rect x="188.736" y="440.74" width="4.11034" height="4.42472" fill="#D83232" stroke="#D83232" stroke-width="0.539129"/>
<path d="M219.269 372.08L219.269 398.002" stroke="#D83232" stroke-width="0.539129"/>
<rect x="217.215" y="381.725" width="4.11034" height="14.904" fill="#D83232" stroke="#D83232" stroke-width="0.539129"/>
<path d="M254.141 379.25L254.141 459.223" stroke="#D83232" stroke-width="0.539129"/>
<rect x="252.086" y="381.176" width="4.11034" height="76.6763" fill="#D83232" stroke="#D83232" stroke-width="0.539129"/>
<path d="M226.244 386.971L226.244 412.893" stroke="#D83232" stroke-width="0.539129"/>
<rect x="224.189" y="392.758" width="4.11034" height="3.87318" fill="#D83232" stroke="#D83232" stroke-width="0.539129"/>
<path d="M275.645 399.105L275.645 420.615" stroke="#D83232" stroke-width="0.539129"/>
<rect x="273.589" y="401.578" width="4.11034" height="3.87318" fill="#D83232" stroke="#D83232" stroke-width="0.539129"/>
<path d="M282.618 396.898L282.618 442.676" stroke="#D83232" stroke-width="0.539129"/>
<rect x="280.565" y="404.895" width="4.11034" height="36.414" fill="#D83232" stroke="#D83232" stroke-width="0.539129"/>
<path d="M289.012 434.404L289.012 469.151" stroke="#D83232" stroke-width="0.539129"/>
<rect x="286.955" y="441.844" width="4.11034" height="25.9347" fill="#D83232" stroke="#D83232" stroke-width="0.539129"/>
<path d="M295.986 465.842L295.986 507.759" stroke="#D83232" stroke-width="0.539129"/>
<rect x="293.931" y="467.215" width="4.11034" height="31.4501" fill="#D83232" stroke="#D83232" stroke-width="0.539129"/>
<path d="M310.515 474.115L310.515 512.171" stroke="#D83232" stroke-width="0.539129"/>
<rect x="308.46" y="493.137" width="4.11034" height="17.6616" fill="#D83232" stroke="#D83232" stroke-width="0.539129"/>
<path d="M317.49 507.207L317.49 545.263" stroke="#D83232" stroke-width="0.539129"/>
<rect x="315.434" y="508.582" width="4.11034" height="27.0378" fill="#D83232" stroke="#D83232" stroke-width="0.539129"/>
<path d="M331.439 523.201L331.439 557.948" stroke="#D83232" stroke-width="0.539129"/>
<rect x="329.382" y="526.229" width="4.11034" height="8.28549" fill="#D83232" stroke="#D83232" stroke-width="0.539129"/>
<path d="M338.412 517.686L338.412 546.366" stroke="#D83232" stroke-width="0.539129"/>
<rect x="336.357" y="533.4" width="4.11034" height="3.87318" fill="#D83232" stroke="#D83232" stroke-width="0.539129"/>
<path d="M352.36 508.312L352.36 550.781" stroke="#D83232" stroke-width="0.539129"/>
<rect x="350.307" y="517.402" width="4.11034" height="28.6924" fill="#D83232" stroke="#D83232" stroke-width="0.539129"/>
<path d="M366.891 514.93L366.891 538.646" stroke="#D83232" stroke-width="0.539129"/>
<rect x="364.835" y="520.162" width="4.11034" height="12.6978" fill="#D83232" stroke="#D83232" stroke-width="0.539129"/>
<path d="M373.283 529.27L373.283 561.259" stroke="#D83232" stroke-width="0.539129"/>
<rect x="371.228" y="530.645" width="4.11034" height="18.2132" fill="#D83232" stroke="#D83232" stroke-width="0.539129"/>
<path d="M380.257 540.852L380.257 565.119" stroke="#D83232" stroke-width="0.539129"/>
<rect x="378.202" y="549.395" width="4.11034" height="3.87318" fill="#D83232" stroke="#D83232" stroke-width="0.539129"/>
<path d="M394.786 517.686L394.787 545.262" stroke="#D83232" stroke-width="0.539129"/>
<rect x="392.732" y="526.229" width="4.11034" height="8.28549" fill="#D83232" stroke="#D83232" stroke-width="0.539129"/>
<path d="M121.049 449.844L121.049 492.864" stroke="#D83232" stroke-width="0.539129"/>
<rect x="118.994" y="450.67" width="4.11034" height="41.3778" fill="#D83232" stroke="#D83232" stroke-width="0.539129"/>
<path d="M22.2471 500.586C22.2471 527.079 22.2471 541.932 22.2471 568.425" stroke="#419E6A" stroke-width="0.539129"/>
<rect x="20.1916" y="540.566" width="4.11034" height="27.0378" fill="#419E6A" stroke="#419E6A" stroke-width="0.539129"/>
<path d="M29.2212 488.453C29.2212 515.377 29.2212 530.472 29.2212 557.395" stroke="#419E6A" stroke-width="0.539129"/>
<rect x="27.1663" y="496.447" width="4.11034" height="43.584" fill="#419E6A" stroke="#419E6A" stroke-width="0.539129"/>
<path d="M43.1703 481.838C43.1704 506.823 43.1704 520.831 43.1704 545.816" stroke="#419E6A" stroke-width="0.539129"/>
<rect x="41.1138" y="496.447" width="4.11034" height="38.0686" fill="#419E6A" stroke="#419E6A" stroke-width="0.539129"/>
<path d="M50.1444 454.26C50.1444 479.245 50.1444 493.253 50.1444 518.238" stroke="#419E6A" stroke-width="0.539129"/>
<rect x="48.0888" y="455.633" width="4.11034" height="41.3778" fill="#419E6A" stroke="#419E6A" stroke-width="0.539129"/>
<path d="M57.6991 393.037C57.6991 427.499 57.6991 446.821 57.6991 481.283" stroke="#419E6A" stroke-width="0.539129"/>
<rect x="55.6435" y="410.957" width="4.11034" height="46.3417" fill="#419E6A" stroke="#419E6A" stroke-width="0.539129"/>
<path d="M71.6472 384.764C71.6472 409.749 71.6472 423.757 71.6473 448.742" stroke="#419E6A" stroke-width="0.539129"/>
<rect x="69.593" y="401.58" width="4.11034" height="30.347" fill="#419E6A" stroke="#419E6A" stroke-width="0.539129"/>
<path d="M99.5449 440.471C99.5449 463.087 99.5449 475.766 99.5449 498.382" stroke="#419E6A" stroke-width="0.539129"/>
<rect x="97.49" y="445.152" width="4.11034" height="51.8571" fill="#419E6A" stroke="#419E6A" stroke-width="0.539129"/>
<path d="M134.415 464.738C134.415 477.662 134.415 484.907 134.415 497.831" stroke="#419E6A" stroke-width="0.539129"/>
<rect x="132.361" y="483.76" width="4.11034" height="13.2493" fill="#419E6A" stroke="#419E6A" stroke-width="0.539129"/>
<path d="M155.919 476.32C155.919 488.598 155.919 495.481 155.919 507.758" stroke="#419E6A" stroke-width="0.539129"/>
<rect x="153.864" y="477.141" width="4.11034" height="12.6978" fill="#419E6A" stroke="#419E6A" stroke-width="0.539129"/>
<path d="M162.893 442.676C162.893 458.83 162.893 467.887 162.893 484.041" stroke="#419E6A" stroke-width="0.539129"/>
<rect x="160.838" y="445.152" width="4.11034" height="35.8624" fill="#419E6A" stroke="#419E6A" stroke-width="0.539129"/>
<path d="M169.869 426.684C169.869 435.945 169.869 441.138 169.869 450.4" stroke="#419E6A" stroke-width="0.539129"/>
<rect x="167.813" y="427.502" width="4.11034" height="15.4555" fill="#419E6A" stroke="#419E6A" stroke-width="0.539129"/>
<path d="M176.842 408.482C176.842 420.329 176.842 426.971 176.842 438.817" stroke="#419E6A" stroke-width="0.539129"/>
<rect x="174.787" y="417.574" width="4.11034" height="8.83703" fill="#419E6A" stroke="#419E6A" stroke-width="0.539129"/>
<path d="M197.766 415.1C197.766 426.084 197.766 432.243 197.766 443.228" stroke="#419E6A" stroke-width="0.539129"/>
<rect x="195.709" y="423.643" width="4.11034" height="17.6616" fill="#419E6A" stroke="#419E6A" stroke-width="0.539129"/>
<path d="M205.32 395.797C205.32 408.505 205.32 415.63 205.32 428.338" stroke="#419E6A" stroke-width="0.539129"/>
<rect x="203.265" y="407.096" width="4.11034" height="18.2132" fill="#419E6A" stroke="#419E6A" stroke-width="0.539129"/>
<path d="M232.635 382.561C232.635 393.976 232.635 400.376 232.635 411.792" stroke="#419E6A" stroke-width="0.539129"/>
<rect x="230.58" y="394.963" width="4.11034" height="0.563948" fill="#419E6A" stroke="#419E6A" stroke-width="0.539129"/>
<path d="M212.294 379.246C212.294 394.754 212.294 403.449 212.294 418.957" stroke="#419E6A" stroke-width="0.539129"/>
<rect x="210.239" y="380.072" width="4.11034" height="26.4863" fill="#419E6A" stroke="#419E6A" stroke-width="0.539129"/>
<path d="M239.61 378.146C239.61 387.193 239.61 392.265 239.61 401.311" stroke="#419E6A" stroke-width="0.539129"/>
<rect x="237.555" y="388.344" width="4.11034" height="7.18241" fill="#419E6A" stroke="#419E6A" stroke-width="0.539129"/>
<path d="M268.089 390.281C268.089 398.681 268.089 403.391 268.089 411.791" stroke="#419E6A" stroke-width="0.539129"/>
<rect x="266.032" y="397.721" width="4.11034" height="6.63088" fill="#419E6A" stroke="#419E6A" stroke-width="0.539129"/>
<path d="M302.958 483.49C302.958 493.183 302.958 498.617 302.958 508.309" stroke="#419E6A" stroke-width="0.539129"/>
<rect x="300.904" y="494.242" width="4.11034" height="5.5278" fill="#419E6A" stroke="#419E6A" stroke-width="0.539129"/>
<path d="M324.463 510.518C324.463 521.933 324.463 528.333 324.463 539.749" stroke="#419E6A" stroke-width="0.539129"/>
<rect x="322.407" y="527.33" width="4.11034" height="9.94011" fill="#419E6A" stroke="#419E6A" stroke-width="0.539129"/>
<path d="M345.385 505C345.385 519 345.385 526.85 345.385 540.85" stroke="#419E6A" stroke-width="0.539129"/>
<rect x="343.331" y="519.057" width="4.11034" height="20.9709" fill="#419E6A" stroke="#419E6A" stroke-width="0.539129"/>
<path d="M359.914 516.031C359.914 527.231 359.914 533.511 359.914 544.711" stroke="#419E6A" stroke-width="0.539129"/>
<rect x="357.859" y="522.92" width="4.11034" height="19.8678" fill="#419E6A" stroke="#419E6A" stroke-width="0.539129"/>
<path d="M387.232 514.379C387.232 530.318 387.232 539.254 387.232 555.193" stroke="#419E6A" stroke-width="0.539129"/>
<rect x="385.176" y="526.229" width="4.11034" height="22.6255" fill="#419E6A" stroke="#419E6A" stroke-width="0.539129"/>
<path d="M261.114 403.52C261.114 424.843 261.114 436.798 261.114 458.122" stroke="#419E6A" stroke-width="0.539129"/>
<rect x="259.058" y="408.752" width="4.11034" height="47.4447" fill="#419E6A" stroke="#419E6A" stroke-width="0.539129"/>
<path d="M246.584 378.699C246.584 383.007 246.584 385.422 246.584 389.73" stroke="#419E6A" stroke-width="0.539129"/>
<rect x="244.529" y="380.072" width="4.11034" height="3.32164" fill="#419E6A" stroke="#419E6A" stroke-width="0.539129"/>
<path d="M1.32391 400.209C1.32391 424.117 1.32392 437.522 1.32392 461.43" stroke="#419E6A" stroke-width="0.539129"/>
<rect x="-0.730985" y="428.055" width="4.11034" height="28.1409" fill="#419E6A" stroke="#419E6A" stroke-width="0.539129"/>
</g>
<g opacity="0.3" clip-path="url(#clip6_921_22969)">
<rect x="399.451" y="383.898" width="3.00766" height="87.5853" fill="#D83232" stroke="#D83232" stroke-width="0.394497"/>
<path d="M405.633 452.307L405.633 501.947" stroke="#D83232" stroke-width="0.394497"/>
<rect x="404.129" y="471.875" width="3.00766" height="20.1879" fill="#D83232" stroke="#D83232" stroke-width="0.394497"/>
<path d="M421.794 434.145L421.794 490.645" stroke="#D83232" stroke-width="0.394497"/>
<rect x="420.288" y="438.379" width="3.00766" height="24.6273" fill="#D83232" stroke="#D83232" stroke-width="0.394497"/>
<path d="M442.206 368.764L442.206 424.054" stroke="#D83232" stroke-width="0.394497"/>
<rect x="440.701" y="376.633" width="3.00766" height="16.1522" fill="#D83232" stroke="#D83232" stroke-width="0.394497"/>
<path d="M452.412 357.467L452.412 402.667" stroke="#D83232" stroke-width="0.394497"/>
<rect x="450.909" y="370.174" width="3.00766" height="23.8201" fill="#D83232" stroke="#D83232" stroke-width="0.394497"/>
<path d="M457.516 384.908L457.516 420.827" stroke="#D83232" stroke-width="0.394497"/>
<rect x="456.011" y="392.773" width="3.00766" height="25.0309" fill="#D83232" stroke="#D83232" stroke-width="0.394497"/>
<path d="M462.619 418.004L462.619 454.729" stroke="#D83232" stroke-width="0.394497"/>
<rect x="461.115" y="419.006" width="3.00766" height="19.7844" fill="#D83232" stroke="#D83232" stroke-width="0.394497"/>
<path d="M472.825 391.365L472.825 403.069" stroke="#D83232" stroke-width="0.394497"/>
<rect x="471.322" y="398.426" width="3.00766" height="0.816235" fill="#D83232" stroke="#D83232" stroke-width="0.394497"/>
<path d="M477.928 394.596L477.928 409.124" stroke="#D83232" stroke-width="0.394497"/>
<rect x="476.425" y="396.812" width="3.00766" height="9.29135" fill="#D83232" stroke="#D83232" stroke-width="0.394497"/>
<path d="M488.136 433.34L488.136 462.397" stroke="#D83232" stroke-width="0.394497"/>
<rect x="486.631" y="433.937" width="3.00766" height="4.85201" fill="#D83232" stroke="#D83232" stroke-width="0.394497"/>
<path d="M498.768 421.633L498.768 435.354" stroke="#D83232" stroke-width="0.394497"/>
<rect x="497.263" y="427.48" width="3.00766" height="2.83412" fill="#D83232" stroke="#D83232" stroke-width="0.394497"/>
<path d="M503.869 428.092L503.869 440.199" stroke="#D83232" stroke-width="0.394497"/>
<rect x="502.366" y="428.693" width="3.00766" height="4.04485" fill="#D83232" stroke="#D83232" stroke-width="0.394497"/>
<path d="M529.386 378.857L529.386 401.861" stroke="#D83232" stroke-width="0.394497"/>
<rect x="527.883" y="380.666" width="3.00766" height="18.5736" fill="#D83232" stroke="#D83232" stroke-width="0.394497"/>
<path d="M534.489 395.402L534.489 405.895" stroke="#D83232" stroke-width="0.394497"/>
<rect x="532.985" y="397.617" width="3.00766" height="3.2377" fill="#D83232" stroke="#D83232" stroke-width="0.394497"/>
<path d="M555.328 347.377L555.328 366.345" stroke="#D83232" stroke-width="0.394497"/>
<rect x="553.824" y="354.434" width="3.00766" height="10.9057" fill="#D83232" stroke="#D83232" stroke-width="0.394497"/>
<path d="M580.844 352.623L580.844 411.142" stroke="#D83232" stroke-width="0.394497"/>
<rect x="579.341" y="354.033" width="3.00766" height="56.1063" fill="#D83232" stroke="#D83232" stroke-width="0.394497"/>
<path d="M560.431 358.273L560.431 377.242" stroke="#D83232" stroke-width="0.394497"/>
<rect x="558.928" y="362.508" width="3.00766" height="2.83412" fill="#D83232" stroke="#D83232" stroke-width="0.394497"/>
<path d="M596.579 367.152L596.579 382.892" stroke="#D83232" stroke-width="0.394497"/>
<rect x="595.075" y="368.961" width="3.00766" height="2.83412" fill="#D83232" stroke="#D83232" stroke-width="0.394497"/>
<path d="M601.682 365.537L601.682 399.034" stroke="#D83232" stroke-width="0.394497"/>
<rect x="600.179" y="371.389" width="3.00766" height="26.6452" fill="#D83232" stroke="#D83232" stroke-width="0.394497"/>
<path d="M606.36 392.98L606.36 418.406" stroke="#D83232" stroke-width="0.394497"/>
<rect x="604.856" y="398.426" width="3.00766" height="18.9772" fill="#D83232" stroke="#D83232" stroke-width="0.394497"/>
<path d="M611.463 415.984L611.463 446.656" stroke="#D83232" stroke-width="0.394497"/>
<rect x="609.96" y="416.99" width="3.00766" height="23.013" fill="#D83232" stroke="#D83232" stroke-width="0.394497"/>
<path d="M622.095 422.041L622.095 449.888" stroke="#D83232" stroke-width="0.394497"/>
<rect x="620.59" y="435.957" width="3.00766" height="12.9235" fill="#D83232" stroke="#D83232" stroke-width="0.394497"/>
<path d="M627.198 446.254L627.198 474.101" stroke="#D83232" stroke-width="0.394497"/>
<rect x="625.695" y="447.26" width="3.00766" height="19.7844" fill="#D83232" stroke="#D83232" stroke-width="0.394497"/>
<path d="M637.406 457.957L637.406 483.382" stroke="#D83232" stroke-width="0.394497"/>
<rect x="635.9" y="460.174" width="3.00766" height="6.06274" fill="#D83232" stroke="#D83232" stroke-width="0.394497"/>
<path d="M642.508 453.92L642.508 474.906" stroke="#D83232" stroke-width="0.394497"/>
<rect x="641.004" y="465.42" width="3.00766" height="2.83412" fill="#D83232" stroke="#D83232" stroke-width="0.394497"/>
<path d="M652.715 447.062L652.715 478.138" stroke="#D83232" stroke-width="0.394497"/>
<rect x="651.212" y="453.713" width="3.00766" height="20.9951" fill="#D83232" stroke="#D83232" stroke-width="0.394497"/>
<path d="M663.346 451.904L663.346 469.258" stroke="#D83232" stroke-width="0.394497"/>
<rect x="661.842" y="455.732" width="3.00766" height="9.29135" fill="#D83232" stroke="#D83232" stroke-width="0.394497"/>
<path d="M668.024 462.396L668.024 485.804" stroke="#D83232" stroke-width="0.394497"/>
<rect x="666.52" y="463.402" width="3.00766" height="13.3271" fill="#D83232" stroke="#D83232" stroke-width="0.394497"/>
<path d="M673.127 470.871L673.127 488.628" stroke="#D83232" stroke-width="0.394497"/>
<rect x="671.624" y="477.123" width="3.00766" height="2.83412" fill="#D83232" stroke="#D83232" stroke-width="0.394497"/>
<path d="M483.457 404.279L483.457 435.758" stroke="#D83232" stroke-width="0.394497"/>
<rect x="481.953" y="404.883" width="3.00766" height="30.2774" fill="#D83232" stroke="#D83232" stroke-width="0.394497"/>
<path d="M411.161 441.41C411.161 460.796 411.161 471.665 411.161 491.05" stroke="#419E6A" stroke-width="0.394497"/>
<rect x="409.657" y="470.666" width="3.00766" height="19.7844" fill="#419E6A" stroke="#419E6A" stroke-width="0.394497"/>
<path d="M416.264 432.533C416.264 452.234 416.264 463.28 416.264 482.98" stroke="#419E6A" stroke-width="0.394497"/>
<rect x="414.76" y="438.383" width="3.00766" height="31.8917" fill="#419E6A" stroke="#419E6A" stroke-width="0.394497"/>
<path d="M426.471 427.693C426.471 445.976 426.471 456.226 426.471 474.508" stroke="#419E6A" stroke-width="0.394497"/>
<rect x="424.967" y="438.383" width="3.00766" height="27.8559" fill="#419E6A" stroke="#419E6A" stroke-width="0.394497"/>
<path d="M431.574 407.512C431.574 425.794 431.574 436.044 431.574 454.327" stroke="#419E6A" stroke-width="0.394497"/>
<rect x="430.07" y="408.516" width="3.00766" height="30.2774" fill="#419E6A" stroke="#419E6A" stroke-width="0.394497"/>
<path d="M437.102 362.715C437.102 387.932 437.102 402.07 437.102 427.287" stroke="#419E6A" stroke-width="0.394497"/>
<rect x="435.598" y="375.826" width="3.00766" height="33.9096" fill="#419E6A" stroke="#419E6A" stroke-width="0.394497"/>
<path d="M447.308 356.66C447.308 374.943 447.308 385.193 447.308 403.475" stroke="#419E6A" stroke-width="0.394497"/>
<rect x="445.805" y="368.965" width="3.00766" height="22.2058" fill="#419E6A" stroke="#419E6A" stroke-width="0.394497"/>
<path d="M467.722 397.422C467.722 413.971 467.722 423.249 467.722 439.797" stroke="#419E6A" stroke-width="0.394497"/>
<rect x="466.219" y="400.848" width="3.00766" height="37.9453" fill="#419E6A" stroke="#419E6A" stroke-width="0.394497"/>
<path d="M493.237 415.18C493.237 424.636 493.237 429.938 493.237 439.394" stroke="#419E6A" stroke-width="0.394497"/>
<rect x="491.735" y="429.1" width="3.00766" height="9.69493" fill="#419E6A" stroke="#419E6A" stroke-width="0.394497"/>
<path d="M508.973 423.654C508.973 432.638 508.973 437.675 508.973 446.658" stroke="#419E6A" stroke-width="0.394497"/>
<rect x="507.469" y="424.256" width="3.00766" height="9.29135" fill="#419E6A" stroke="#419E6A" stroke-width="0.394497"/>
<path d="M514.075 399.037C514.075 410.858 514.075 417.485 514.075 429.305" stroke="#419E6A" stroke-width="0.394497"/>
<rect x="512.572" y="400.848" width="3.00766" height="26.2416" fill="#419E6A" stroke="#419E6A" stroke-width="0.394497"/>
<path d="M519.18 387.334C519.18 394.111 519.18 397.911 519.18 404.688" stroke="#419E6A" stroke-width="0.394497"/>
<rect x="517.676" y="387.934" width="3.00766" height="11.3092" fill="#419E6A" stroke="#419E6A" stroke-width="0.394497"/>
<path d="M524.283 374.016C524.283 382.684 524.283 387.544 524.283 396.212" stroke="#419E6A" stroke-width="0.394497"/>
<rect x="522.779" y="380.668" width="3.00766" height="6.46631" fill="#419E6A" stroke="#419E6A" stroke-width="0.394497"/>
<path d="M539.593 378.857C539.593 386.895 539.593 391.402 539.593 399.44" stroke="#419E6A" stroke-width="0.394497"/>
<rect x="538.088" y="385.109" width="3.00766" height="12.9235" fill="#419E6A" stroke="#419E6A" stroke-width="0.394497"/>
<path d="M545.121 364.734C545.121 374.033 545.121 379.247 545.121 388.545" stroke="#419E6A" stroke-width="0.394497"/>
<rect x="543.617" y="373.002" width="3.00766" height="13.3271" fill="#419E6A" stroke="#419E6A" stroke-width="0.394497"/>
<path d="M565.108 355.049C565.108 363.402 565.108 368.085 565.108 376.438" stroke="#419E6A" stroke-width="0.394497"/>
<rect x="563.604" y="364.123" width="3.00766" height="0.412658" fill="#419E6A" stroke="#419E6A" stroke-width="0.394497"/>
<path d="M550.224 352.623C550.224 363.971 550.224 370.333 550.224 381.681" stroke="#419E6A" stroke-width="0.394497"/>
<rect x="548.72" y="353.228" width="3.00766" height="19.3808" fill="#419E6A" stroke="#419E6A" stroke-width="0.394497"/>
<path d="M570.212 351.818C570.212 358.438 570.212 362.149 570.212 368.769" stroke="#419E6A" stroke-width="0.394497"/>
<rect x="568.708" y="359.279" width="3.00766" height="5.25558" fill="#419E6A" stroke="#419E6A" stroke-width="0.394497"/>
<path d="M591.051 360.697C591.051 366.844 591.051 370.29 591.051 376.437" stroke="#419E6A" stroke-width="0.394497"/>
<rect x="589.545" y="366.141" width="3.00766" height="4.85201" fill="#419E6A" stroke="#419E6A" stroke-width="0.394497"/>
<path d="M616.566 428.902C616.566 435.995 616.566 439.971 616.566 447.063" stroke="#419E6A" stroke-width="0.394497"/>
<rect x="615.062" y="436.77" width="3.00766" height="4.04485" fill="#419E6A" stroke="#419E6A" stroke-width="0.394497"/>
<path d="M632.301 448.678C632.301 457.031 632.301 461.714 632.301 470.067" stroke="#419E6A" stroke-width="0.394497"/>
<rect x="630.797" y="460.98" width="3.00766" height="7.27347" fill="#419E6A" stroke="#419E6A" stroke-width="0.394497"/>
<path d="M647.611 444.641C647.611 454.885 647.611 460.629 647.611 470.873" stroke="#419E6A" stroke-width="0.394497"/>
<rect x="646.108" y="454.926" width="3.00766" height="15.345" fill="#419E6A" stroke="#419E6A" stroke-width="0.394497"/>
<path d="M658.242 452.713C658.242 460.908 658.242 465.503 658.242 473.699" stroke="#419E6A" stroke-width="0.394497"/>
<rect x="656.738" y="457.754" width="3.00766" height="14.5379" fill="#419E6A" stroke="#419E6A" stroke-width="0.394497"/>
<path d="M678.23 451.504C678.23 463.167 678.23 469.706 678.23 481.369" stroke="#419E6A" stroke-width="0.394497"/>
<rect x="676.727" y="460.174" width="3.00766" height="16.5557" fill="#419E6A" stroke="#419E6A" stroke-width="0.394497"/>
<path d="M585.946 370.385C585.946 385.988 585.946 394.736 585.946 410.339" stroke="#419E6A" stroke-width="0.394497"/>
<rect x="584.442" y="374.213" width="3.00766" height="34.7167" fill="#419E6A" stroke="#419E6A" stroke-width="0.394497"/>
<path d="M575.315 352.223C575.315 355.375 575.315 357.142 575.315 360.294" stroke="#419E6A" stroke-width="0.394497"/>
<rect x="573.811" y="353.228" width="3.00766" height="2.43054" fill="#419E6A" stroke="#419E6A" stroke-width="0.394497"/>
<path d="M395.85 367.963C395.85 385.457 395.85 395.266 395.85 412.76" stroke="#419E6A" stroke-width="0.394497"/>
<rect x="394.347" y="388.338" width="3.00766" height="20.5915" fill="#419E6A" stroke="#419E6A" stroke-width="0.394497"/>
</g>
<defs>
<clipPath id="clip0_921_22969">
<rect width="16" height="16" fill="white" transform="translate(784 413)"/>
</clipPath>
<clipPath id="clip1_921_22969">
<rect width="16" height="16" fill="white" transform="translate(784 370)"/>
</clipPath>
<clipPath id="clip2_921_22969">
<rect width="16" height="16" fill="white" transform="translate(784 327)"/>
</clipPath>
<clipPath id="clip3_921_22969">
<rect width="16" height="16" fill="white" transform="translate(784 284)"/>
</clipPath>
<clipPath id="clip4_921_22969">
<rect width="16" height="16" fill="white" transform="translate(784 241)"/>
</clipPath>
<clipPath id="clip5_921_22969">
<rect width="398.85" height="211.177" fill="white" transform="translate(-1 361.301)"/>
</clipPath>
<clipPath id="clip6_921_22969">
<rect width="291.85" height="154.524" fill="white" transform="translate(394.15 339.488)"/>
</clipPath>
</defs>
</svg>
