<svg width="1372" height="609" viewBox="0 0 1372 609" fill="none" xmlns="http://www.w3.org/2000/svg">
<path d="M60.4144 398.142L5.54672 429.478C2.73525 431.084 0.999999 434.073 0.999999 437.311L0.999999 598.98C0.999999 603.962 5.03846 608 10.0201 608L1363.98 608C1368.96 608 1373 603.962 1373 598.98L1373 277.42C1373 270.518 1365.56 266.173 1359.55 269.562L1330.95 285.683C1326.57 288.151 1321.02 286.564 1318.61 282.155L1304.49 256.354C1300.75 249.514 1290.68 250.324 1288.08 257.674L1271.48 304.569C1270.2 308.171 1266.8 310.579 1262.97 310.579L1248.69 310.579C1245.21 310.579 1242.03 308.57 1240.54 305.418L1207.59 235.786C1205.52 231.414 1200.37 229.452 1195.92 231.338L1164.12 244.805C1159.49 246.768 1154.15 244.559 1152.25 239.897L1138.28 205.555C1137.78 204.31 1137 203.194 1136.01 202.288L1108.04 176.785C1107.09 175.922 1106.34 174.869 1105.83 173.695L1075.31 103.005C1074.39 100.861 1072.67 99.1601 1070.51 98.259L1035.82 83.7482C1033.42 82.7442 1031.57 80.7527 1030.75 78.285L1015.22 31.8013C1014.36 29.2302 1012.39 27.1818 1009.85 26.2227L963.023 8.50785C958.433 6.77158 953.297 9.02347 951.464 13.5759L923.85 82.1682L898.152 144.536C895.142 151.841 884.86 152.021 881.597 144.825L861.831 101.245C861.357 100.2 860.689 99.2556 859.861 98.4615L836.443 75.9952C831.544 71.2944 823.403 73.4885 821.529 80.015L799.344 157.282C798.234 161.149 794.697 163.813 790.674 163.813L772.437 163.813C769.854 163.813 767.394 162.705 765.682 160.77L737.496 128.917C736.87 128.21 736.36 127.41 735.983 126.545L683.732 6.73584C680.365 -0.985574 669.19 -0.286749 666.811 7.79405L601.989 227.963L559.575 361.153C558.793 363.606 557.001 365.609 554.65 366.656L527.495 378.752C526.257 379.303 525.16 380.125 524.284 381.158L501.95 407.504C500.236 409.526 497.72 410.692 495.07 410.692L450.15 410.692C445.057 410.692 433.761 424.03 425.43 435.139C422.095 439.585 415.594 440.253 411.577 436.412L373.354 399.852C369.987 396.631 364.722 396.505 361.204 399.56L324.457 431.478C324 431.875 323.505 432.225 322.978 432.522L277.646 458.124C276.293 458.888 274.765 459.29 273.211 459.29L245.067 459.29C243.042 459.29 241.076 458.608 239.485 457.355L209.847 434.009C208.256 432.756 206.29 432.075 204.265 432.075L168.736 432.075C167.253 432.075 165.792 432.441 164.484 433.14L122.43 455.618C118.484 457.727 113.589 456.625 110.927 453.028L72.1387 400.609C69.4201 396.935 64.3832 395.875 60.4144 398.142Z" stroke="#F10228" stroke-opacity="0.28"/>
</svg>
