<svg width="687" height="234" viewBox="0 0 687 234" fill="none" xmlns="http://www.w3.org/2000/svg">
<g opacity="0.3" clip-path="url(#clip0_1379_10194)">
<path d="M9.29813 49.0781L9.29812 206.267" stroke="#D83232" stroke-width="0.539129"/>
<rect x="7.2439" y="82.9942" width="4.11034" height="119.696" fill="#D83232" stroke="#D83232" stroke-width="0.539129"/>
<path d="M15.6916 176.484L15.6916 244.324" stroke="#D83232" stroke-width="0.539129"/>
<rect x="13.6364" y="203.227" width="4.11034" height="27.5893" fill="#D83232" stroke="#D83232" stroke-width="0.539129"/>
<path d="M37.7774 151.664L37.7774 228.879" stroke="#D83232" stroke-width="0.539129"/>
<rect x="35.7204" y="157.449" width="4.11034" height="33.6563" fill="#D83232" stroke="#D83232" stroke-width="0.539129"/>
<path d="M65.6733 62.3125L65.6733 137.873" stroke="#D83232" stroke-width="0.539129"/>
<rect x="63.6171" y="73.0645" width="4.11034" height="22.074" fill="#D83232" stroke="#D83232" stroke-width="0.539129"/>
<path d="M79.6211 46.873L79.6211 108.645" stroke="#D83232" stroke-width="0.539129"/>
<rect x="77.5669" y="64.2383" width="4.11034" height="32.5532" fill="#D83232" stroke="#D83232" stroke-width="0.539129"/>
<path d="M86.5965 84.375L86.5965 133.462" stroke="#D83232" stroke-width="0.539129"/>
<rect x="84.5403" y="95.125" width="4.11034" height="34.2078" fill="#D83232" stroke="#D83232" stroke-width="0.539129"/>
<path d="M93.5703 129.604L93.5703 179.794" stroke="#D83232" stroke-width="0.539129"/>
<rect x="91.5147" y="130.975" width="4.11034" height="27.0378" fill="#D83232" stroke="#D83232" stroke-width="0.539129"/>
<path d="M107.518 93.1992L107.518 109.194" stroke="#D83232" stroke-width="0.539129"/>
<rect x="105.465" y="102.848" width="4.11034" height="1.11549" fill="#D83232" stroke="#D83232" stroke-width="0.539129"/>
<path d="M114.492 97.6133L114.492 117.469" stroke="#D83232" stroke-width="0.539129"/>
<rect x="112.437" y="100.643" width="4.11034" height="12.6978" fill="#D83232" stroke="#D83232" stroke-width="0.539129"/>
<path d="M128.442 150.562L128.442 190.273" stroke="#D83232" stroke-width="0.539129"/>
<rect x="126.385" y="151.381" width="4.11034" height="6.63088" fill="#D83232" stroke="#D83232" stroke-width="0.539129"/>
<path d="M142.972 134.564L142.972 153.317" stroke="#D83232" stroke-width="0.539129"/>
<rect x="140.915" y="142.557" width="4.11034" height="3.87318" fill="#D83232" stroke="#D83232" stroke-width="0.539129"/>
<path d="M149.944 143.391L149.944 159.937" stroke="#D83232" stroke-width="0.539129"/>
<rect x="147.891" y="144.213" width="4.11034" height="5.5278" fill="#D83232" stroke="#D83232" stroke-width="0.539129"/>
<path d="M184.816 76.1035L184.816 107.541" stroke="#D83232" stroke-width="0.539129"/>
<rect x="182.762" y="78.5782" width="4.11034" height="25.3832" fill="#D83232" stroke="#D83232" stroke-width="0.539129"/>
<path d="M191.791 98.7168L191.791 113.057" stroke="#D83232" stroke-width="0.539129"/>
<rect x="189.735" y="101.744" width="4.11034" height="4.42472" fill="#D83232" stroke="#D83232" stroke-width="0.539129"/>
<path d="M220.269 33.084L220.269 59.0063" stroke="#D83232" stroke-width="0.539129"/>
<rect x="218.214" y="42.7285" width="4.11034" height="14.904" fill="#D83232" stroke="#D83232" stroke-width="0.539129"/>
<path d="M255.14 40.2539L255.14 120.227" stroke="#D83232" stroke-width="0.539129"/>
<rect x="253.085" y="42.1797" width="4.11034" height="76.6763" fill="#D83232" stroke="#D83232" stroke-width="0.539129"/>
<path d="M227.244 47.9746L227.244 73.8969" stroke="#D83232" stroke-width="0.539129"/>
<rect x="225.188" y="53.7618" width="4.11034" height="3.87318" fill="#D83232" stroke="#D83232" stroke-width="0.539129"/>
<path d="M276.644 60.1094L276.644 81.6194" stroke="#D83232" stroke-width="0.539129"/>
<rect x="274.588" y="62.5821" width="4.11034" height="3.87318" fill="#D83232" stroke="#D83232" stroke-width="0.539129"/>
<path d="M283.618 57.9023L283.618 103.68" stroke="#D83232" stroke-width="0.539129"/>
<rect x="281.564" y="65.8985" width="4.11034" height="36.414" fill="#D83232" stroke="#D83232" stroke-width="0.539129"/>
<path d="M290.011 95.4082L290.011 130.155" stroke="#D83232" stroke-width="0.539129"/>
<rect x="287.954" y="102.848" width="4.11034" height="25.9347" fill="#D83232" stroke="#D83232" stroke-width="0.539129"/>
<path d="M296.985 126.846L296.985 168.763" stroke="#D83232" stroke-width="0.539129"/>
<rect x="294.93" y="128.219" width="4.11034" height="31.4501" fill="#D83232" stroke="#D83232" stroke-width="0.539129"/>
<path d="M311.514 135.119L311.514 173.175" stroke="#D83232" stroke-width="0.539129"/>
<rect x="309.459" y="154.141" width="4.11034" height="17.6616" fill="#D83232" stroke="#D83232" stroke-width="0.539129"/>
<path d="M318.489 168.211L318.489 206.267" stroke="#D83232" stroke-width="0.539129"/>
<rect x="316.434" y="169.586" width="4.11034" height="27.0378" fill="#D83232" stroke="#D83232" stroke-width="0.539129"/>
<path d="M332.438 184.205L332.438 218.952" stroke="#D83232" stroke-width="0.539129"/>
<rect x="330.381" y="187.232" width="4.11034" height="8.28549" fill="#D83232" stroke="#D83232" stroke-width="0.539129"/>
<path d="M339.412 178.689L339.412 207.369" stroke="#D83232" stroke-width="0.539129"/>
<rect x="337.356" y="194.404" width="4.11034" height="3.87318" fill="#D83232" stroke="#D83232" stroke-width="0.539129"/>
<path d="M353.36 169.316L353.36 211.785" stroke="#D83232" stroke-width="0.539129"/>
<rect x="351.306" y="178.406" width="4.11034" height="28.6924" fill="#D83232" stroke="#D83232" stroke-width="0.539129"/>
<path d="M367.89 175.934L367.89 199.65" stroke="#D83232" stroke-width="0.539129"/>
<rect x="365.834" y="181.166" width="4.11034" height="12.6978" fill="#D83232" stroke="#D83232" stroke-width="0.539129"/>
<path d="M374.282 190.273L374.282 222.263" stroke="#D83232" stroke-width="0.539129"/>
<rect x="372.227" y="191.648" width="4.11034" height="18.2132" fill="#D83232" stroke="#D83232" stroke-width="0.539129"/>
<path d="M381.257 201.855L381.257 226.123" stroke="#D83232" stroke-width="0.539129"/>
<rect x="379.201" y="210.398" width="4.11034" height="3.87318" fill="#D83232" stroke="#D83232" stroke-width="0.539129"/>
<path d="M395.786 178.689L395.786 206.266" stroke="#D83232" stroke-width="0.539129"/>
<rect x="393.731" y="187.232" width="4.11034" height="8.28549" fill="#D83232" stroke="#D83232" stroke-width="0.539129"/>
<path d="M122.048 110.848L122.048 153.868" stroke="#D83232" stroke-width="0.539129"/>
<rect x="119.993" y="111.674" width="4.11034" height="41.3778" fill="#D83232" stroke="#D83232" stroke-width="0.539129"/>
<path d="M23.2464 161.59C23.2464 188.083 23.2464 202.936 23.2464 229.429" stroke="#419E6A" stroke-width="0.539129"/>
<rect x="21.1909" y="201.57" width="4.11034" height="27.0378" fill="#419E6A" stroke="#419E6A" stroke-width="0.539129"/>
<path d="M30.2205 149.457C30.2205 176.381 30.2205 191.476 30.2205 218.399" stroke="#419E6A" stroke-width="0.539129"/>
<rect x="28.1656" y="157.451" width="4.11034" height="43.584" fill="#419E6A" stroke="#419E6A" stroke-width="0.539129"/>
<path d="M44.1696 142.842C44.1696 167.827 44.1696 181.835 44.1697 206.82" stroke="#419E6A" stroke-width="0.539129"/>
<rect x="42.1131" y="157.451" width="4.11034" height="38.0686" fill="#419E6A" stroke="#419E6A" stroke-width="0.539129"/>
<path d="M51.1437 115.264C51.1437 140.249 51.1437 154.257 51.1437 179.242" stroke="#419E6A" stroke-width="0.539129"/>
<rect x="49.0881" y="116.637" width="4.11034" height="41.3778" fill="#419E6A" stroke="#419E6A" stroke-width="0.539129"/>
<path d="M58.6984 54.041C58.6984 88.5033 58.6984 107.825 58.6984 142.287" stroke="#419E6A" stroke-width="0.539129"/>
<rect x="56.6428" y="71.961" width="4.11034" height="46.3417" fill="#419E6A" stroke="#419E6A" stroke-width="0.539129"/>
<path d="M72.6465 45.7676C72.6465 70.7527 72.6465 84.7609 72.6465 109.746" stroke="#419E6A" stroke-width="0.539129"/>
<rect x="70.5923" y="62.584" width="4.11034" height="30.347" fill="#419E6A" stroke="#419E6A" stroke-width="0.539129"/>
<path d="M100.544 101.475C100.544 124.09 100.544 136.77 100.544 159.386" stroke="#419E6A" stroke-width="0.539129"/>
<rect x="98.4893" y="106.156" width="4.11034" height="51.8571" fill="#419E6A" stroke="#419E6A" stroke-width="0.539129"/>
<path d="M135.414 125.742C135.414 138.666 135.414 145.911 135.414 158.835" stroke="#419E6A" stroke-width="0.539129"/>
<rect x="133.361" y="144.764" width="4.11034" height="13.2493" fill="#419E6A" stroke="#419E6A" stroke-width="0.539129"/>
<path d="M156.919 137.324C156.919 149.601 156.919 156.485 156.919 168.762" stroke="#419E6A" stroke-width="0.539129"/>
<rect x="154.864" y="138.145" width="4.11034" height="12.6978" fill="#419E6A" stroke="#419E6A" stroke-width="0.539129"/>
<path d="M163.892 103.68C163.892 119.834 163.892 128.891 163.892 145.045" stroke="#419E6A" stroke-width="0.539129"/>
<rect x="161.837" y="106.156" width="4.11034" height="35.8624" fill="#419E6A" stroke="#419E6A" stroke-width="0.539129"/>
<path d="M170.868 87.6875C170.868 96.9492 170.868 102.142 170.868 111.404" stroke="#419E6A" stroke-width="0.539129"/>
<rect x="168.812" y="88.5059" width="4.11034" height="15.4555" fill="#419E6A" stroke="#419E6A" stroke-width="0.539129"/>
<path d="M177.842 69.4863C177.842 81.3327 177.842 87.9745 177.842 99.821" stroke="#419E6A" stroke-width="0.539129"/>
<rect x="175.786" y="78.5782" width="4.11034" height="8.83703" fill="#419E6A" stroke="#419E6A" stroke-width="0.539129"/>
<path d="M198.765 76.1035C198.765 87.0884 198.765 93.2471 198.765 104.232" stroke="#419E6A" stroke-width="0.539129"/>
<rect x="196.708" y="84.6465" width="4.11034" height="17.6616" fill="#419E6A" stroke="#419E6A" stroke-width="0.539129"/>
<path d="M206.319 56.8008C206.319 69.5087 206.319 76.6336 206.319 89.3416" stroke="#419E6A" stroke-width="0.539129"/>
<rect x="204.264" y="68.0996" width="4.11034" height="18.2132" fill="#419E6A" stroke="#419E6A" stroke-width="0.539129"/>
<path d="M233.635 43.5645C233.635 54.9801 233.635 61.3804 233.635 72.796" stroke="#419E6A" stroke-width="0.539129"/>
<rect x="231.579" y="55.9668" width="4.11034" height="0.563948" fill="#419E6A" stroke="#419E6A" stroke-width="0.539129"/>
<path d="M213.293 40.25C213.293 55.758 213.293 64.4528 213.293 79.9608" stroke="#419E6A" stroke-width="0.539129"/>
<rect x="211.238" y="41.0762" width="4.11034" height="26.4863" fill="#419E6A" stroke="#419E6A" stroke-width="0.539129"/>
<path d="M240.61 39.1504C240.61 48.1967 240.61 53.2687 240.61 62.315" stroke="#419E6A" stroke-width="0.539129"/>
<rect x="238.554" y="49.3477" width="4.11034" height="7.18241" fill="#419E6A" stroke="#419E6A" stroke-width="0.539129"/>
<path d="M269.088 51.2852C269.088 59.6853 269.088 64.395 269.088 72.7952" stroke="#419E6A" stroke-width="0.539129"/>
<rect x="267.031" y="58.7246" width="4.11034" height="6.63088" fill="#419E6A" stroke="#419E6A" stroke-width="0.539129"/>
<path d="M303.958 144.494C303.958 154.187 303.958 159.621 303.958 169.313" stroke="#419E6A" stroke-width="0.539129"/>
<rect x="301.903" y="155.246" width="4.11034" height="5.5278" fill="#419E6A" stroke="#419E6A" stroke-width="0.539129"/>
<path d="M325.462 171.521C325.462 182.937 325.462 189.337 325.462 200.753" stroke="#419E6A" stroke-width="0.539129"/>
<rect x="323.407" y="188.334" width="4.11034" height="9.94011" fill="#419E6A" stroke="#419E6A" stroke-width="0.539129"/>
<path d="M346.385 166.004C346.385 180.004 346.385 187.854 346.385 201.854" stroke="#419E6A" stroke-width="0.539129"/>
<rect x="344.33" y="180.061" width="4.11034" height="20.9709" fill="#419E6A" stroke="#419E6A" stroke-width="0.539129"/>
<path d="M360.914 177.035C360.914 188.235 360.914 194.515 360.914 205.715" stroke="#419E6A" stroke-width="0.539129"/>
<rect x="358.859" y="183.924" width="4.11034" height="19.8678" fill="#419E6A" stroke="#419E6A" stroke-width="0.539129"/>
<path d="M388.231 175.383C388.231 191.322 388.231 200.258 388.231 216.197" stroke="#419E6A" stroke-width="0.539129"/>
<rect x="386.175" y="187.232" width="4.11034" height="22.6255" fill="#419E6A" stroke="#419E6A" stroke-width="0.539129"/>
<path d="M262.113 64.5234C262.113 85.847 262.113 97.8022 262.113 119.126" stroke="#419E6A" stroke-width="0.539129"/>
<rect x="260.057" y="69.7559" width="4.11034" height="47.4447" fill="#419E6A" stroke="#419E6A" stroke-width="0.539129"/>
<path d="M247.583 39.7031C247.583 44.0109 247.583 46.4261 247.583 50.7339" stroke="#419E6A" stroke-width="0.539129"/>
<rect x="245.528" y="41.0762" width="4.11034" height="3.32164" fill="#419E6A" stroke="#419E6A" stroke-width="0.539129"/>
<path d="M2.32321 61.2129C2.32321 85.1211 2.32321 98.5255 2.32321 122.434" stroke="#419E6A" stroke-width="0.539129"/>
<rect x="0.268313" y="89.0586" width="4.11034" height="28.1409" fill="#419E6A" stroke="#419E6A" stroke-width="0.539129"/>
</g>
<g opacity="0.3" clip-path="url(#clip1_1379_10194)">
<rect x="400.45" y="44.9023" width="3.00766" height="87.5853" fill="#D83232" stroke="#D83232" stroke-width="0.394497"/>
<path d="M406.632 113.311L406.632 162.951" stroke="#D83232" stroke-width="0.394497"/>
<rect x="405.128" y="132.879" width="3.00766" height="20.1879" fill="#D83232" stroke="#D83232" stroke-width="0.394497"/>
<path d="M422.793 95.1484L422.793 151.649" stroke="#D83232" stroke-width="0.394497"/>
<rect x="421.288" y="99.3828" width="3.00766" height="24.6273" fill="#D83232" stroke="#D83232" stroke-width="0.394497"/>
<path d="M443.205 29.7676L443.205 85.0576" stroke="#D83232" stroke-width="0.394497"/>
<rect x="441.701" y="37.6367" width="3.00766" height="16.1522" fill="#D83232" stroke="#D83232" stroke-width="0.394497"/>
<path d="M453.411 18.4707L453.411 63.6713" stroke="#D83232" stroke-width="0.394497"/>
<rect x="451.908" y="31.1777" width="3.00766" height="23.8201" fill="#D83232" stroke="#D83232" stroke-width="0.394497"/>
<path d="M458.515 45.9121L458.515 81.8305" stroke="#D83232" stroke-width="0.394497"/>
<rect x="457.01" y="53.7773" width="3.00766" height="25.0309" fill="#D83232" stroke="#D83232" stroke-width="0.394497"/>
<path d="M463.618 79.0078L463.618 115.733" stroke="#D83232" stroke-width="0.394497"/>
<rect x="462.114" y="80.0097" width="3.00766" height="19.7844" fill="#D83232" stroke="#D83232" stroke-width="0.394497"/>
<path d="M473.824 52.3691L473.824 64.0729" stroke="#D83232" stroke-width="0.394497"/>
<rect x="472.321" y="59.4297" width="3.00766" height="0.816235" fill="#D83232" stroke="#D83232" stroke-width="0.394497"/>
<path d="M478.928 55.5996L478.928 70.1284" stroke="#D83232" stroke-width="0.394497"/>
<rect x="477.424" y="57.8164" width="3.00766" height="9.29135" fill="#D83232" stroke="#D83232" stroke-width="0.394497"/>
<path d="M489.135 94.3438L489.135 123.401" stroke="#D83232" stroke-width="0.394497"/>
<rect x="487.63" y="94.9414" width="3.00766" height="4.85201" fill="#D83232" stroke="#D83232" stroke-width="0.394497"/>
<path d="M499.767 82.6367L499.767 96.3583" stroke="#D83232" stroke-width="0.394497"/>
<rect x="498.262" y="88.4844" width="3.00766" height="2.83412" fill="#D83232" stroke="#D83232" stroke-width="0.394497"/>
<path d="M504.868 89.0957L504.868 101.203" stroke="#D83232" stroke-width="0.394497"/>
<rect x="503.366" y="89.6972" width="3.00766" height="4.04485" fill="#D83232" stroke="#D83232" stroke-width="0.394497"/>
<path d="M530.385 39.8613L530.385 62.8652" stroke="#D83232" stroke-width="0.394497"/>
<rect x="528.882" y="41.6699" width="3.00766" height="18.5736" fill="#D83232" stroke="#D83232" stroke-width="0.394497"/>
<path d="M535.489 56.4062L535.489 66.8993" stroke="#D83232" stroke-width="0.394497"/>
<rect x="533.984" y="58.6211" width="3.00766" height="3.2377" fill="#D83232" stroke="#D83232" stroke-width="0.394497"/>
<path d="M556.327 8.38086L556.327 27.349" stroke="#D83232" stroke-width="0.394497"/>
<rect x="554.824" y="15.4375" width="3.00766" height="10.9057" fill="#D83232" stroke="#D83232" stroke-width="0.394497"/>
<path d="M581.843 13.627L581.843 72.1456" stroke="#D83232" stroke-width="0.394497"/>
<rect x="580.34" y="15.0371" width="3.00766" height="56.1063" fill="#D83232" stroke="#D83232" stroke-width="0.394497"/>
<path d="M561.43 19.2773L561.43 38.2455" stroke="#D83232" stroke-width="0.394497"/>
<rect x="559.927" y="23.5117" width="3.00766" height="2.83412" fill="#D83232" stroke="#D83232" stroke-width="0.394497"/>
<path d="M597.578 28.1562L597.578 43.8958" stroke="#D83232" stroke-width="0.394497"/>
<rect x="596.074" y="29.9648" width="3.00766" height="2.83412" fill="#D83232" stroke="#D83232" stroke-width="0.394497"/>
<path d="M602.681 26.541L602.681 60.0379" stroke="#D83232" stroke-width="0.394497"/>
<rect x="601.178" y="32.3926" width="3.00766" height="26.6452" fill="#D83232" stroke="#D83232" stroke-width="0.394497"/>
<path d="M607.359 53.9844L607.359 79.4097" stroke="#D83232" stroke-width="0.394497"/>
<rect x="605.855" y="59.4297" width="3.00766" height="18.9772" fill="#D83232" stroke="#D83232" stroke-width="0.394497"/>
<path d="M612.462 76.9883L612.462 107.66" stroke="#D83232" stroke-width="0.394497"/>
<rect x="610.959" y="77.9941" width="3.00766" height="23.013" fill="#D83232" stroke="#D83232" stroke-width="0.394497"/>
<path d="M623.094 83.0449L623.094 110.892" stroke="#D83232" stroke-width="0.394497"/>
<rect x="621.589" y="96.9609" width="3.00766" height="12.9235" fill="#D83232" stroke="#D83232" stroke-width="0.394497"/>
<path d="M628.198 107.258L628.198 135.105" stroke="#D83232" stroke-width="0.394497"/>
<rect x="626.694" y="108.264" width="3.00766" height="19.7844" fill="#D83232" stroke="#D83232" stroke-width="0.394497"/>
<path d="M638.405 118.961L638.405 144.386" stroke="#D83232" stroke-width="0.394497"/>
<rect x="636.899" y="121.178" width="3.00766" height="6.06274" fill="#D83232" stroke="#D83232" stroke-width="0.394497"/>
<path d="M643.507 114.924L643.507 135.91" stroke="#D83232" stroke-width="0.394497"/>
<rect x="642.003" y="126.424" width="3.00766" height="2.83412" fill="#D83232" stroke="#D83232" stroke-width="0.394497"/>
<path d="M653.714 108.066L653.714 139.142" stroke="#D83232" stroke-width="0.394497"/>
<rect x="652.211" y="114.717" width="3.00766" height="20.9951" fill="#D83232" stroke="#D83232" stroke-width="0.394497"/>
<path d="M664.345 112.908L664.345 130.262" stroke="#D83232" stroke-width="0.394497"/>
<rect x="662.841" y="116.736" width="3.00766" height="9.29135" fill="#D83232" stroke="#D83232" stroke-width="0.394497"/>
<path d="M669.023 123.4L669.023 146.808" stroke="#D83232" stroke-width="0.394497"/>
<rect x="667.519" y="124.406" width="3.00766" height="13.3271" fill="#D83232" stroke="#D83232" stroke-width="0.394497"/>
<path d="M674.126 131.875L674.126 149.632" stroke="#D83232" stroke-width="0.394497"/>
<rect x="672.623" y="138.127" width="3.00766" height="2.83412" fill="#D83232" stroke="#D83232" stroke-width="0.394497"/>
<path d="M484.456 65.2832L484.456 96.7622" stroke="#D83232" stroke-width="0.394497"/>
<rect x="482.952" y="65.8867" width="3.00766" height="30.2774" fill="#D83232" stroke="#D83232" stroke-width="0.394497"/>
<path d="M412.16 102.414C412.16 121.8 412.16 132.668 412.16 152.054" stroke="#419E6A" stroke-width="0.394497"/>
<rect x="410.656" y="131.67" width="3.00766" height="19.7844" fill="#419E6A" stroke="#419E6A" stroke-width="0.394497"/>
<path d="M417.263 93.5371C417.263 113.238 417.263 124.283 417.263 143.984" stroke="#419E6A" stroke-width="0.394497"/>
<rect x="415.759" y="99.3867" width="3.00766" height="31.8917" fill="#419E6A" stroke="#419E6A" stroke-width="0.394497"/>
<path d="M427.47 88.6973C427.47 106.98 427.47 117.23 427.47 135.512" stroke="#419E6A" stroke-width="0.394497"/>
<rect x="425.966" y="99.3867" width="3.00766" height="27.8559" fill="#419E6A" stroke="#419E6A" stroke-width="0.394497"/>
<path d="M432.573 68.5156C432.573 86.798 432.573 97.0482 432.573 115.331" stroke="#419E6A" stroke-width="0.394497"/>
<rect x="431.069" y="69.5195" width="3.00766" height="30.2774" fill="#419E6A" stroke="#419E6A" stroke-width="0.394497"/>
<path d="M438.101 23.7188C438.101 48.9358 438.101 63.074 438.101 88.2911" stroke="#419E6A" stroke-width="0.394497"/>
<rect x="436.598" y="36.8301" width="3.00766" height="33.9096" fill="#419E6A" stroke="#419E6A" stroke-width="0.394497"/>
<path d="M448.307 17.6641C448.307 35.9464 448.307 46.1966 448.307 64.479" stroke="#419E6A" stroke-width="0.394497"/>
<rect x="446.804" y="29.9687" width="3.00766" height="22.2058" fill="#419E6A" stroke="#419E6A" stroke-width="0.394497"/>
<path d="M468.721 58.4258C468.721 74.9745 468.721 84.2527 468.721 100.801" stroke="#419E6A" stroke-width="0.394497"/>
<rect x="467.218" y="61.8515" width="3.00766" height="37.9453" fill="#419E6A" stroke="#419E6A" stroke-width="0.394497"/>
<path d="M494.237 76.1836C494.237 85.64 494.237 90.9418 494.237 100.398" stroke="#419E6A" stroke-width="0.394497"/>
<rect x="492.734" y="90.1035" width="3.00766" height="9.69493" fill="#419E6A" stroke="#419E6A" stroke-width="0.394497"/>
<path d="M509.972 84.6582C509.972 93.6418 509.972 98.6785 509.972 107.662" stroke="#419E6A" stroke-width="0.394497"/>
<rect x="508.468" y="85.2597" width="3.00766" height="9.29135" fill="#419E6A" stroke="#419E6A" stroke-width="0.394497"/>
<path d="M515.074 60.041C515.074 71.8615 515.074 78.4888 515.074 90.3093" stroke="#419E6A" stroke-width="0.394497"/>
<rect x="513.571" y="61.8515" width="3.00766" height="26.2416" fill="#419E6A" stroke="#419E6A" stroke-width="0.394497"/>
<path d="M520.179 48.3379C520.179 55.115 520.179 58.9146 520.179 65.6917" stroke="#419E6A" stroke-width="0.394497"/>
<rect x="518.675" y="48.9375" width="3.00766" height="11.3092" fill="#419E6A" stroke="#419E6A" stroke-width="0.394497"/>
<path d="M525.282 35.0195C525.282 43.6879 525.282 48.5479 525.282 57.2163" stroke="#419E6A" stroke-width="0.394497"/>
<rect x="523.778" y="41.6719" width="3.00766" height="6.46631" fill="#419E6A" stroke="#419E6A" stroke-width="0.394497"/>
<path d="M540.592 39.8613C540.592 47.8993 540.592 52.4058 540.592 60.4438" stroke="#419E6A" stroke-width="0.394497"/>
<rect x="539.087" y="46.1133" width="3.00766" height="12.9235" fill="#419E6A" stroke="#419E6A" stroke-width="0.394497"/>
<path d="M546.12 25.7383C546.12 35.0371 546.12 40.2505 546.12 49.5493" stroke="#419E6A" stroke-width="0.394497"/>
<rect x="544.616" y="34.0058" width="3.00766" height="13.3271" fill="#419E6A" stroke="#419E6A" stroke-width="0.394497"/>
<path d="M566.108 16.0527C566.108 24.4059 566.108 29.0892 566.108 37.4423" stroke="#419E6A" stroke-width="0.394497"/>
<rect x="564.603" y="25.1269" width="3.00766" height="0.412658" fill="#419E6A" stroke="#419E6A" stroke-width="0.394497"/>
<path d="M551.223 13.627C551.223 24.9746 551.223 31.3368 551.223 42.6845" stroke="#419E6A" stroke-width="0.394497"/>
<rect x="549.72" y="14.2324" width="3.00766" height="19.3808" fill="#419E6A" stroke="#419E6A" stroke-width="0.394497"/>
<path d="M571.211 12.8223C571.211 19.4417 571.211 23.153 571.211 29.7725" stroke="#419E6A" stroke-width="0.394497"/>
<rect x="569.707" y="20.2832" width="3.00766" height="5.25558" fill="#419E6A" stroke="#419E6A" stroke-width="0.394497"/>
<path d="M592.05 21.7012C592.05 27.8478 592.05 31.294 592.05 37.4407" stroke="#419E6A" stroke-width="0.394497"/>
<rect x="590.544" y="27.1445" width="3.00766" height="4.85201" fill="#419E6A" stroke="#419E6A" stroke-width="0.394497"/>
<path d="M617.565 89.9062C617.565 96.9985 617.565 100.975 617.565 108.067" stroke="#419E6A" stroke-width="0.394497"/>
<rect x="616.061" y="97.7734" width="3.00766" height="4.04485" fill="#419E6A" stroke="#419E6A" stroke-width="0.394497"/>
<path d="M633.3 109.682C633.3 118.035 633.3 122.718 633.3 131.071" stroke="#419E6A" stroke-width="0.394497"/>
<rect x="631.796" y="121.984" width="3.00766" height="7.27347" fill="#419E6A" stroke="#419E6A" stroke-width="0.394497"/>
<path d="M648.61 105.645C648.61 115.889 648.61 121.633 648.61 131.877" stroke="#419E6A" stroke-width="0.394497"/>
<rect x="647.107" y="115.93" width="3.00766" height="15.345" fill="#419E6A" stroke="#419E6A" stroke-width="0.394497"/>
<path d="M659.241 113.717C659.241 121.912 659.241 126.507 659.241 134.703" stroke="#419E6A" stroke-width="0.394497"/>
<rect x="657.738" y="118.758" width="3.00766" height="14.5379" fill="#419E6A" stroke="#419E6A" stroke-width="0.394497"/>
<path d="M679.229 112.508C679.229 124.171 679.229 130.71 679.229 142.373" stroke="#419E6A" stroke-width="0.394497"/>
<rect x="677.726" y="121.178" width="3.00766" height="16.5557" fill="#419E6A" stroke="#419E6A" stroke-width="0.394497"/>
<path d="M586.946 31.3887C586.946 46.9917 586.946 55.7397 586.946 71.3428" stroke="#419E6A" stroke-width="0.394497"/>
<rect x="585.442" y="35.2168" width="3.00766" height="34.7167" fill="#419E6A" stroke="#419E6A" stroke-width="0.394497"/>
<path d="M576.314 13.2266C576.314 16.3787 576.314 18.146 576.314 21.2981" stroke="#419E6A" stroke-width="0.394497"/>
<rect x="574.81" y="14.2324" width="3.00766" height="2.43054" fill="#419E6A" stroke="#419E6A" stroke-width="0.394497"/>
<path d="M396.85 28.9668C396.85 46.4611 396.85 56.2695 396.85 73.7639" stroke="#419E6A" stroke-width="0.394497"/>
<rect x="395.346" y="49.3418" width="3.00766" height="20.5915" fill="#419E6A" stroke="#419E6A" stroke-width="0.394497"/>
</g>
<defs>
<clipPath id="clip0_1379_10194">
<rect width="398.85" height="211.177" fill="white" transform="translate(-0.000701904 22.3047)"/>
</clipPath>
<clipPath id="clip1_1379_10194">
<rect width="291.85" height="154.524" fill="white" transform="translate(395.149 0.492188)"/>
</clipPath>
</defs>
</svg>
