<svg width="756" height="372" viewBox="0 0 756 372" fill="none" xmlns="http://www.w3.org/2000/svg">
<rect x="59.5676" y="55.3862" width="32.4004" height="32.4004" rx="2.8068" transform="rotate(-10.8992 59.5676 55.3862)" fill="#FF0000"/>
<g clip-path="url(#clip0_67_93)">
<path d="M85.742 61.9986C85.3859 61.2967 84.6774 60.8361 83.8811 60.789C82.4479 60.7013 76.9791 61.817 76.9791 61.817C76.9791 61.817 71.5126 62.9438 70.2283 63.5859C69.5141 63.9412 69.0426 64.6425 68.99 65.4279C69.0639 67.8889 69.6435 71.5436 70.6907 73.707C71.0468 74.409 71.7554 74.8696 72.5517 74.9167C73.9849 75.0044 79.4536 73.8886 79.4536 73.8886C79.4536 73.8886 84.9224 72.7729 86.2067 72.1308C86.9209 71.7755 87.3924 71.0742 87.4451 70.2889C87.3929 67.8199 86.788 64.1727 85.742 61.9986Z" fill="white"/>
<path d="M76.9981 70.796L81.0069 67.2832L75.9424 65.6215L76.9981 70.796Z" fill="#FF0000"/>
</g>
<rect x="716.906" y="177.63" width="26.2635" height="26.2635" rx="2.78319" transform="rotate(-36.5216 716.906 177.63)" fill="url(#paint0_linear_67_93)"/>
<g clip-path="url(#clip1_67_93)">
<path d="M730.375 173.825C732.437 172.298 732.688 172.125 733.53 171.559C734.309 171.035 734.811 170.858 735.161 170.762C735.626 170.635 736.007 170.612 736.478 170.682C736.948 170.753 737.306 170.886 737.713 171.143C738.021 171.337 738.45 171.653 739.042 172.38C739.682 173.168 739.871 173.406 741.399 175.469C742.926 177.532 743.099 177.782 743.665 178.624C744.189 179.403 744.366 179.905 744.462 180.256C744.589 180.72 744.612 181.102 744.542 181.572C744.472 182.043 744.338 182.401 744.081 182.808C743.887 183.115 743.571 183.544 742.844 184.136C742.057 184.777 741.818 184.966 739.755 186.493C737.692 188.021 737.442 188.194 736.6 188.76C735.821 189.283 735.319 189.461 734.968 189.556C734.504 189.683 734.122 189.706 733.652 189.636C733.181 189.566 732.823 189.433 732.416 189.176C732.109 188.982 731.68 188.666 731.088 187.938C730.447 187.151 730.258 186.913 728.731 184.85C727.203 182.787 727.03 182.537 726.464 181.694C725.941 180.916 725.764 180.413 725.668 180.063C725.541 179.598 725.518 179.217 725.588 178.746C725.658 178.276 725.791 177.918 726.048 177.511C726.242 177.203 726.558 176.774 727.286 176.182C728.073 175.542 728.312 175.353 730.375 173.825ZM729.344 172.433C727.245 173.987 726.989 174.191 726.193 174.839C725.398 175.485 724.933 176.032 724.583 176.587C724.221 177.16 723.986 177.743 723.875 178.491C723.763 179.239 723.818 179.865 723.997 180.519C724.17 181.152 724.455 181.81 725.026 182.661C725.599 183.513 725.785 183.782 727.339 185.88C728.893 187.979 729.096 188.235 729.744 189.031C730.391 189.826 730.937 190.291 731.492 190.641C732.066 191.003 732.649 191.238 733.396 191.349C734.144 191.461 734.77 191.406 735.425 191.227C736.058 191.054 736.716 190.769 737.566 190.198C738.418 189.625 738.688 189.439 740.786 187.885C742.884 186.332 743.141 186.128 743.937 185.48C744.731 184.834 745.196 184.287 745.546 183.732C745.908 183.159 746.143 182.575 746.255 181.828C746.366 181.08 746.311 180.454 746.133 179.799C745.96 179.167 745.675 178.508 745.103 177.658C744.53 176.806 744.345 176.536 742.791 174.438C741.237 172.34 741.033 172.083 740.386 171.287C739.739 170.493 739.193 170.028 738.638 169.678C738.064 169.316 737.481 169.081 736.733 168.969C735.986 168.858 735.359 168.913 734.705 169.091C734.072 169.264 733.414 169.55 732.563 170.121C731.712 170.694 731.442 170.88 729.344 172.433ZM732.127 176.192C729.936 177.814 729.475 180.906 731.097 183.097C732.72 185.288 735.812 185.749 738.003 184.127C740.194 182.504 740.655 179.413 739.032 177.221C737.41 175.03 734.318 174.569 732.127 176.192ZM736.972 182.735C735.55 183.788 733.543 183.489 732.489 182.066C731.436 180.644 731.735 178.637 733.158 177.584C734.58 176.531 736.587 176.83 737.64 178.252C738.693 179.675 738.394 181.681 736.972 182.735ZM737.062 172.295C737.441 172.807 737.334 173.529 736.822 173.908C736.31 174.288 735.587 174.18 735.208 173.668C734.829 173.156 734.936 172.433 735.448 172.054C735.961 171.675 736.683 171.783 737.062 172.295Z" fill="white"/>
</g>
<rect x="664.567" y="328.162" width="32.4004" height="32.4004" rx="2.8068" transform="rotate(-10.8992 664.567 328.162)" fill="#FF0000"/>
<g clip-path="url(#clip2_67_93)">
<path d="M690.742 334.774C690.385 334.072 689.677 333.612 688.881 333.564C687.447 333.477 681.979 334.592 681.979 334.592C681.979 334.592 676.512 335.719 675.228 336.361C674.514 336.717 674.042 337.418 673.989 338.203C674.063 340.664 674.643 344.319 675.69 346.482C676.046 347.184 676.755 347.645 677.551 347.692C678.984 347.78 684.453 346.664 684.453 346.664C684.453 346.664 689.922 345.548 691.206 344.906C691.92 344.551 692.392 343.85 692.445 343.064C692.392 340.595 691.787 336.948 690.742 334.774Z" fill="white"/>
<path d="M681.998 343.571L686.006 340.059L680.942 338.397L681.998 343.571Z" fill="#FF0000"/>
</g>
<rect x="63.9055" y="328.667" width="37.746" height="37.746" rx="4" transform="rotate(-36.5216 63.9055 328.667)" fill="url(#paint1_linear_67_93)"/>
<g clip-path="url(#clip3_67_93)">
<path d="M83.262 323.197C86.2268 321.002 86.5863 320.753 87.7967 319.94C88.9159 319.187 89.6378 318.933 90.1417 318.795C90.8091 318.613 91.3573 318.579 92.0335 318.68C92.7098 318.781 93.2244 318.973 93.8095 319.342C94.2514 319.621 94.8676 320.075 95.7187 321.121C96.6391 322.252 96.9105 322.595 99.1059 325.56C101.301 328.524 101.55 328.884 102.364 330.094C103.116 331.214 103.371 331.935 103.508 332.439C103.691 333.107 103.724 333.655 103.623 334.331C103.522 335.007 103.33 335.522 102.961 336.107C102.683 336.549 102.229 337.165 101.183 338.016C100.052 338.937 99.7087 339.208 96.7437 341.404C93.7787 343.599 93.4191 343.848 92.2089 344.661C91.0897 345.414 90.3678 345.668 89.8639 345.806C89.1965 345.988 88.6484 346.022 87.9721 345.921C87.2959 345.82 86.7813 345.628 86.1961 345.259C85.7543 344.98 85.138 344.526 84.287 343.48C83.3665 342.349 83.0952 342.006 80.8997 339.041C78.7042 336.076 78.4555 335.717 77.6419 334.507C76.8896 333.387 76.6351 332.665 76.4974 332.162C76.3151 331.494 76.2818 330.946 76.3826 330.27C76.4834 329.594 76.6752 329.079 77.0443 328.494C77.323 328.052 77.777 327.436 78.823 326.585C79.9543 325.664 80.2971 325.393 83.262 323.197ZM81.7804 321.197C78.7648 323.43 78.3962 323.722 77.2518 324.654C76.1099 325.583 75.4417 326.368 74.9387 327.166C74.4186 327.99 74.0805 328.828 73.9204 329.903C73.7602 330.977 73.839 331.877 74.096 332.818C74.3445 333.727 74.7545 334.673 75.5758 335.895C76.3987 337.12 76.666 337.507 78.899 340.523C81.1321 343.538 81.4249 343.907 82.3559 345.051C83.285 346.193 84.0704 346.862 84.8679 347.365C85.6924 347.885 86.5306 348.223 87.605 348.383C88.6794 348.543 89.5798 348.464 90.5201 348.207C91.4297 347.959 92.3758 347.549 93.5977 346.728C94.822 345.905 95.2096 345.637 98.2252 343.404C101.241 341.171 101.61 340.878 102.754 339.947C103.896 339.018 104.564 338.233 105.067 337.435C105.587 336.611 105.925 335.773 106.085 334.698C106.245 333.624 106.167 332.723 105.91 331.783C105.661 330.874 105.251 329.927 104.43 328.706C103.607 327.481 103.34 327.094 101.107 324.078C98.8736 321.062 98.5808 320.694 97.6498 319.549C96.7206 318.408 95.9353 317.739 95.1377 317.236C94.3133 316.716 93.475 316.378 92.4006 316.218C91.3262 316.058 90.4258 316.137 89.4855 316.394C88.5759 316.642 87.6298 317.052 86.408 317.873C85.1837 318.696 84.7961 318.964 81.7804 321.197ZM85.7805 326.598C82.6314 328.93 81.9689 333.374 84.3009 336.523C86.6328 339.672 91.076 340.334 94.2251 338.002C97.3742 335.671 98.0367 331.227 95.7048 328.078C93.3729 324.929 88.9296 324.267 85.7805 326.598ZM92.7436 336.002C90.6995 337.515 87.8152 337.085 86.3015 335.041C84.7878 332.997 85.2179 330.113 87.262 328.599C89.3062 327.085 92.1904 327.516 93.7041 329.56C95.2178 331.604 94.7878 334.488 92.7436 336.002ZM92.8734 320.997C93.4183 321.733 93.2636 322.772 92.5276 323.317C91.7917 323.861 90.7534 323.707 90.2085 322.971C89.6635 322.235 89.8184 321.197 90.5543 320.652C91.2902 320.107 92.3284 320.261 92.8734 320.997Z" fill="white"/>
</g>
<g filter="url(#filter0_f_67_93)">
<rect x="17.1382" y="208.539" width="30.1552" height="30.1552" rx="15.0776" transform="rotate(-14.3681 17.1382 208.539)" fill="#55ACEE"/>
<g clip-path="url(#clip4_67_93)">
<path d="M43.0245 211.539C42.4164 212.008 41.7328 212.395 40.9849 212.682C41.6545 212.023 42.0732 211.144 42.1366 210.208C41.5089 210.82 40.7721 211.337 39.9466 211.725C39.0675 211.185 37.9621 210.99 36.8662 211.27C34.7616 211.81 33.4793 213.901 34.0021 215.942C34.0763 216.231 34.1823 216.505 34.3165 216.759C31.11 217.416 27.9253 216.664 25.4731 214.91C25.2849 215.54 25.2596 216.223 25.4331 216.9C25.7616 218.182 26.7241 219.141 27.9164 219.541C27.2868 219.682 26.6566 219.666 26.0719 219.521C26.0756 219.537 26.0796 219.552 26.0836 219.568C26.5422 221.358 28.2384 222.515 30.0686 222.408C29.7704 222.574 29.4454 222.706 29.0978 222.795C28.8523 222.858 28.6076 222.896 28.3639 222.912C29.2249 224.256 30.9059 224.964 32.581 224.566C31.5308 225.892 30.039 226.903 28.2537 227.361C27.9462 227.439 27.6384 227.5 27.3315 227.542C29.2865 228.158 31.4462 228.257 33.5982 227.705C40.6072 225.91 42.9975 219.297 41.7465 214.414C41.7055 214.254 41.661 214.096 41.6131 213.939C42.224 213.227 42.7034 212.411 43.0245 211.539Z" fill="white"/>
</g>
</g>
<g filter="url(#filter1_f_67_93)">
<circle cx="722.906" cy="33" r="13" fill="#FC881D"/>
</g>
<defs>
<filter id="filter0_f_67_93" x="0.404419" y="184.323" width="70.1625" height="70.1625" filterUnits="userSpaceOnUse" color-interpolation-filters="sRGB">
<feFlood flood-opacity="0" result="BackgroundImageFix"/>
<feBlend mode="normal" in="SourceGraphic" in2="BackgroundImageFix" result="shape"/>
<feGaussianBlur stdDeviation="10" result="effect1_foregroundBlur_67_93"/>
</filter>
<filter id="filter1_f_67_93" x="689.906" y="0" width="66" height="66" filterUnits="userSpaceOnUse" color-interpolation-filters="sRGB">
<feFlood flood-opacity="0" result="BackgroundImageFix"/>
<feBlend mode="normal" in="SourceGraphic" in2="BackgroundImageFix" result="shape"/>
<feGaussianBlur stdDeviation="10" result="effect1_foregroundBlur_67_93"/>
</filter>
<linearGradient id="paint0_linear_67_93" x1="730.037" y1="177.63" x2="730.037" y2="203.894" gradientUnits="userSpaceOnUse">
<stop stop-color="#405DE6"/>
<stop offset="0.197917" stop-color="#5851DB"/>
<stop offset="0.401042" stop-color="#833AB4"/>
<stop offset="0.598958" stop-color="#C13584"/>
<stop offset="0.802083" stop-color="#E1306C"/>
<stop offset="1" stop-color="#FD1D1D"/>
</linearGradient>
<linearGradient id="paint1_linear_67_93" x1="82.7785" y1="328.667" x2="82.7785" y2="366.413" gradientUnits="userSpaceOnUse">
<stop stop-color="#405DE6"/>
<stop offset="0.197917" stop-color="#5851DB"/>
<stop offset="0.401042" stop-color="#833AB4"/>
<stop offset="0.598958" stop-color="#C13584"/>
<stop offset="0.802083" stop-color="#E1306C"/>
<stop offset="1" stop-color="#FD1D1D"/>
</linearGradient>
<clipPath id="clip0_67_93">
<rect width="17.8704" height="12.3718" fill="white" transform="translate(68.2339 63.6024) rotate(-11.5311)"/>
</clipPath>
<clipPath id="clip1_67_93">
<rect x="721.617" y="178.155" width="19.2273" height="19.2273" transform="rotate(-36.52 721.617 178.155)" fill="white"/>
</clipPath>
<clipPath id="clip2_67_93">
<rect width="17.8704" height="12.3718" fill="white" transform="translate(673.233 336.378) rotate(-11.5311)"/>
</clipPath>
<clipPath id="clip3_67_93">
<rect x="70.6766" y="329.419" width="27.6335" height="27.6335" transform="rotate(-36.52 70.6766 329.419)" fill="white"/>
</clipPath>
<clipPath id="clip4_67_93">
<rect x="23.9921" y="214.507" width="19.1736" height="15.1791" rx="7.58954" transform="rotate(-14.37 23.9921 214.507)" fill="white"/>
</clipPath>
</defs>
</svg>
