<svg width="263" height="218" viewBox="0 0 263 218" fill="none" xmlns="http://www.w3.org/2000/svg">
<path d="M201.958 2.08624C202.006 1.53602 201.598 1.05136 201.048 1.00373L192.082 0.227525C191.531 0.179894 191.047 0.587328 190.999 1.13755C190.952 1.68778 191.359 2.17244 191.909 2.22007L199.879 2.91003L199.189 10.8802C199.142 11.4304 199.549 11.9151 200.099 11.9627C200.65 12.0104 201.134 11.6029 201.182 11.0527L201.958 2.08624ZM3.92251 78.7781C5.94287 71.7987 9.07856 66.6161 13.1658 62.7081C17.258 58.7954 22.3542 56.1125 28.3651 54.2113C40.4455 50.3903 55.9861 49.784 74.0919 48.5602C110.208 46.1191 155.853 41.2274 201.605 2.76546L200.318 1.23454C155.071 39.2726 109.966 44.1309 73.9571 46.5648C56.0004 47.7785 40.1348 48.3909 27.762 52.3044C21.5464 54.2703 16.1543 57.0835 11.7836 61.2626C7.4079 65.4464 4.10606 70.9513 2.00138 78.2219L3.92251 78.7781ZM79.4618 152C79.6365 151.015 79.6364 151.015 79.636 151.015C79.6354 151.015 79.6346 151.015 79.6334 151.015C79.631 151.014 79.6272 151.014 79.622 151.013C79.6115 151.011 79.5955 151.008 79.574 151.004C79.531 150.996 79.4661 150.984 79.3801 150.968C79.2081 150.936 78.9515 150.887 78.6166 150.82C77.9467 150.687 76.9636 150.483 75.7165 150.204C73.2222 149.645 69.6735 148.783 65.4652 147.57C57.0429 145.144 46.0046 141.323 35.4933 135.742C24.9709 130.155 15.0541 122.844 8.78514 113.475C2.54444 104.148 -0.117295 92.7336 3.92251 78.7781L2.00138 78.2219C-2.20891 92.7664 0.566795 104.789 7.12292 114.587C13.6508 124.343 23.8902 131.845 34.5553 137.508C45.2314 143.177 56.4119 147.044 64.9115 149.492C69.1641 150.717 72.7522 151.589 75.2793 152.156C76.543 152.439 77.5418 152.645 78.2262 152.782C78.5684 152.85 78.832 152.9 79.0109 152.934C79.1003 152.951 79.1686 152.963 79.2149 152.972C79.238 152.976 79.2557 152.979 79.2677 152.981C79.2738 152.982 79.2784 152.983 79.2816 152.984C79.2832 152.984 79.2846 152.984 79.2854 152.984C79.2864 152.985 79.2871 152.985 79.4618 152Z" fill="#FFC759"/>
<rect x="83.041" y="134.312" width="186" height="36" rx="3" transform="rotate(15 83.041 134.312)" fill="#FFC759"/>
<path d="M94.3629 150.146L91.3512 161.386L89.6553 160.931L92.667 149.692L94.3629 150.146ZM99.883 154.637L99.5301 155.954L94.9254 154.72L95.2784 153.403L99.883 154.637ZM97.0544 151.714L98.6954 152.154L96.5586 160.128C96.4733 160.447 96.4567 160.699 96.5087 160.885C96.5617 161.068 96.6553 161.209 96.7896 161.308C96.9286 161.404 97.0877 161.476 97.267 161.524C97.3987 161.559 97.5164 161.581 97.6201 161.589C97.7238 161.597 97.8046 161.603 97.8624 161.607L97.7955 163.042C97.6906 163.053 97.5454 163.053 97.36 163.043C97.1736 163.036 96.9482 162.999 96.6837 162.932C96.25 162.824 95.8682 162.639 95.5381 162.378C95.208 162.117 94.9729 161.788 94.8325 161.389C94.6922 160.991 94.6902 160.537 94.8265 160.029L97.0544 151.714ZM104.284 152.804L104.002 153.858C103.919 154.169 103.772 154.481 103.563 154.793C103.358 155.103 103.11 155.388 102.817 155.646C102.524 155.905 102.206 156.11 101.864 156.262L101.207 155.462C101.508 155.205 101.784 154.921 102.036 154.608C102.292 154.296 102.478 153.926 102.592 153.498L102.879 152.428L104.284 152.804ZM109.818 159.505L108.26 159.37C108.249 159.163 108.199 158.955 108.109 158.747C108.024 158.54 107.882 158.351 107.685 158.18C107.487 158.01 107.219 157.879 106.878 157.788C106.414 157.663 105.998 157.663 105.631 157.789C105.265 157.91 105.038 158.134 104.951 158.459C104.876 158.741 104.919 158.996 105.082 159.224C105.244 159.452 105.543 159.683 105.978 159.917L107.235 160.583C107.963 160.97 108.467 161.401 108.747 161.877C109.028 162.352 109.088 162.888 108.928 163.484C108.793 163.989 108.526 164.4 108.128 164.716C107.734 165.03 107.247 165.229 106.668 165.313C106.092 165.398 105.464 165.35 104.783 165.167C103.839 164.914 103.123 164.507 102.634 163.944C102.147 163.379 101.935 162.704 102 161.922L103.651 162.105C103.639 162.545 103.758 162.912 104.009 163.207C104.26 163.498 104.633 163.709 105.127 163.842C105.665 163.986 106.124 163.989 106.506 163.852C106.889 163.712 107.124 163.479 107.211 163.153C107.282 162.89 107.242 162.642 107.093 162.41C106.947 162.178 106.685 161.963 106.307 161.764L104.964 161.069C104.225 160.679 103.72 160.237 103.448 159.745C103.18 159.253 103.126 158.708 103.287 158.108C103.42 157.61 103.676 157.212 104.054 156.913C104.432 156.614 104.894 156.427 105.44 156.349C105.987 156.268 106.577 156.313 107.21 156.482C108.121 156.727 108.786 157.116 109.203 157.652C109.621 158.183 109.826 158.801 109.818 159.505ZM114.302 167.535L117.313 156.295L124.283 158.163L123.892 159.623L118.618 158.21L117.7 161.634L122.475 162.914L122.085 164.368L117.311 163.089L115.997 167.99L114.302 167.535ZM123.12 169.898L125.378 161.468L126.965 161.893L126.606 163.232L126.694 163.256C126.969 162.843 127.335 162.559 127.793 162.403C128.255 162.245 128.733 162.232 129.227 162.364C129.329 162.392 129.449 162.428 129.586 162.472C129.727 162.518 129.836 162.557 129.913 162.589L129.493 164.159C129.432 164.123 129.32 164.071 129.158 164.004C128.996 163.934 128.831 163.876 128.663 163.831C128.275 163.727 127.907 163.716 127.56 163.8C127.216 163.88 126.918 164.042 126.665 164.284C126.413 164.522 126.238 164.824 126.14 165.19L124.761 170.338L123.12 169.898ZM132.337 172.55C131.506 172.328 130.839 171.959 130.334 171.443C129.833 170.925 129.507 170.298 129.355 169.563C129.208 168.826 129.251 168.02 129.485 167.145C129.717 166.282 130.082 165.564 130.58 164.991C131.082 164.42 131.673 164.028 132.354 163.814C133.039 163.601 133.772 163.6 134.555 163.81C135.031 163.937 135.471 164.139 135.875 164.416C136.279 164.693 136.614 165.047 136.879 165.479C137.143 165.911 137.306 166.423 137.367 167.016C137.429 167.605 137.357 168.282 137.152 169.046L136.996 169.628L130.295 167.833L130.625 166.603L135.718 167.968C135.833 167.536 135.848 167.13 135.761 166.75C135.676 166.367 135.5 166.035 135.234 165.756C134.971 165.478 134.628 165.282 134.203 165.168C133.742 165.045 133.309 165.05 132.905 165.185C132.504 165.317 132.163 165.539 131.879 165.851C131.6 166.161 131.404 166.526 131.291 166.947L131.034 167.907C130.883 168.471 130.853 168.976 130.945 169.424C131.04 169.873 131.239 170.25 131.542 170.555C131.846 170.856 132.237 171.071 132.717 171.199C133.028 171.282 133.323 171.314 133.603 171.295C133.883 171.272 134.141 171.196 134.375 171.067C134.61 170.938 134.812 170.755 134.981 170.518L136.46 171.214C136.213 171.638 135.882 171.979 135.468 172.236C135.058 172.491 134.587 172.649 134.053 172.71C133.524 172.768 132.952 172.715 132.337 172.55ZM141.407 174.981C140.577 174.758 139.909 174.389 139.404 173.873C138.904 173.355 138.578 172.728 138.426 171.994C138.278 171.256 138.322 170.45 138.556 169.576C138.787 168.712 139.152 167.994 139.651 167.422C140.153 166.851 140.744 166.458 141.425 166.244C142.109 166.032 142.843 166.03 143.626 166.24C144.102 166.367 144.542 166.57 144.946 166.847C145.35 167.124 145.685 167.478 145.949 167.91C146.214 168.341 146.377 168.854 146.437 169.446C146.499 170.035 146.428 170.712 146.223 171.477L146.067 172.059L139.366 170.263L139.695 169.034L144.788 170.398C144.904 169.967 144.919 169.561 144.832 169.181C144.747 168.797 144.571 168.466 144.304 168.186C144.042 167.908 143.698 167.712 143.274 167.599C142.813 167.475 142.38 167.481 141.975 167.615C141.575 167.747 141.233 167.969 140.95 168.282C140.671 168.591 140.475 168.956 140.362 169.377L140.105 170.338C139.954 170.901 139.924 171.407 140.016 171.855C140.111 172.304 140.31 172.681 140.613 172.985C140.916 173.286 141.308 173.501 141.787 173.63C142.098 173.713 142.394 173.745 142.673 173.726C142.954 173.703 143.211 173.627 143.446 173.498C143.681 173.368 143.883 173.185 144.052 172.948L145.53 173.644C145.283 174.068 144.953 174.409 144.539 174.667C144.129 174.922 143.657 175.08 143.123 175.141C142.594 175.199 142.022 175.145 141.407 174.981ZM157.174 169.988L156.822 171.305L152.217 170.071L152.57 168.754L157.174 169.988ZM154.346 167.065L155.987 167.505L153.85 175.479C153.765 175.798 153.748 176.05 153.8 176.237C153.853 176.419 153.947 176.56 154.081 176.659C154.22 176.755 154.379 176.827 154.558 176.875C154.69 176.91 154.808 176.932 154.912 176.94C155.015 176.949 155.096 176.954 155.154 176.958L155.087 178.393C154.982 178.404 154.837 178.405 154.651 178.394C154.465 178.387 154.24 178.35 153.975 178.284C153.542 178.175 153.16 177.99 152.83 177.729C152.5 177.469 152.264 177.139 152.124 176.74C151.984 176.342 151.982 175.889 152.118 175.38L154.346 167.065ZM160.146 180.002C159.355 179.79 158.714 179.424 158.222 178.904C157.73 178.384 157.409 177.754 157.257 177.016C157.106 176.277 157.147 175.473 157.381 174.602C157.615 173.728 157.983 173.006 158.484 172.439C158.985 171.871 159.579 171.485 160.265 171.281C160.951 171.076 161.689 171.08 162.479 171.292C163.27 171.504 163.911 171.869 164.403 172.39C164.895 172.91 165.216 173.541 165.366 174.283C165.516 175.025 165.474 175.833 165.24 176.708C165.007 177.579 164.64 178.296 164.14 178.86C163.64 179.424 163.046 179.808 162.36 180.013C161.674 180.217 160.936 180.213 160.146 180.002ZM160.52 178.626C161.032 178.763 161.493 178.741 161.902 178.561C162.311 178.38 162.657 178.086 162.938 177.679C163.224 177.273 163.439 176.8 163.584 176.258C163.728 175.72 163.778 175.204 163.734 174.71C163.695 174.213 163.543 173.783 163.28 173.418C163.017 173.053 162.63 172.803 162.117 172.665C161.601 172.527 161.137 172.55 160.723 172.733C160.313 172.917 159.964 173.214 159.678 173.624C159.397 174.03 159.184 174.503 159.04 175.041C158.895 175.582 158.842 176.099 158.883 176.593C158.927 177.087 159.081 177.514 159.345 177.875C159.613 178.237 160.004 178.487 160.52 178.626ZM179.841 176.856C179.824 176.494 179.762 176.158 179.653 175.846C179.549 175.532 179.399 175.249 179.204 174.997C179.01 174.741 178.769 174.521 178.481 174.338C178.196 174.156 177.867 174.015 177.494 173.915C176.861 173.745 176.247 173.755 175.651 173.945C175.055 174.134 174.524 174.504 174.059 175.053C173.599 175.601 173.247 176.328 173.004 177.235C172.76 178.146 172.702 178.956 172.83 179.665C172.957 180.374 173.236 180.96 173.664 181.424C174.093 181.888 174.637 182.208 175.295 182.384C175.906 182.548 176.472 182.566 176.992 182.439C177.516 182.313 177.963 182.056 178.334 181.669C178.709 181.28 178.979 180.776 179.145 180.157L179.562 180.357L176.346 179.495L176.721 178.096L181.139 179.28L180.796 180.558C180.543 181.502 180.122 182.268 179.534 182.855C178.949 183.44 178.254 183.826 177.447 184.014C176.643 184.202 175.788 184.175 174.88 183.932C173.863 183.66 173.033 183.186 172.39 182.512C171.751 181.839 171.333 181.015 171.135 180.04C170.938 179.062 170.999 177.98 171.316 176.795C171.557 175.898 171.897 175.127 172.337 174.48C172.777 173.833 173.288 173.321 173.872 172.944C174.46 172.565 175.095 172.325 175.776 172.225C176.462 172.123 177.17 172.169 177.898 172.364C178.505 172.527 179.046 172.768 179.521 173.088C180 173.408 180.4 173.788 180.722 174.227C181.047 174.667 181.284 175.15 181.434 175.676C181.584 176.199 181.633 176.747 181.581 177.322L179.841 176.856ZM185.206 186.717C184.376 186.494 183.708 186.125 183.203 185.609C182.703 185.091 182.376 184.464 182.224 183.729C182.077 182.992 182.12 182.186 182.355 181.311C182.586 180.448 182.951 179.73 183.449 179.158C183.951 178.586 184.543 178.194 185.224 177.98C185.908 177.768 186.642 177.766 187.425 177.976C187.9 178.103 188.34 178.306 188.745 178.582C189.149 178.859 189.483 179.214 189.748 179.645C190.013 180.077 190.175 180.589 190.236 181.182C190.298 181.771 190.226 182.448 190.021 183.213L189.866 183.794L183.164 181.999L183.494 180.77L188.587 182.134C188.703 181.703 188.717 181.297 188.631 180.917C188.545 180.533 188.37 180.202 188.103 179.922C187.84 179.644 187.497 179.448 187.072 179.334C186.611 179.211 186.179 179.216 185.774 179.351C185.374 179.483 185.032 179.705 184.748 180.017C184.469 180.327 184.273 180.692 184.161 181.113L183.903 182.073C183.752 182.637 183.723 183.143 183.814 183.591C183.91 184.04 184.109 184.417 184.411 184.721C184.715 185.022 185.107 185.237 185.586 185.365C185.897 185.449 186.192 185.481 186.472 185.462C186.752 185.439 187.01 185.363 187.245 185.233C187.479 185.104 187.681 184.921 187.851 184.684L189.329 185.38C189.082 185.804 188.751 186.145 188.337 186.403C187.928 186.658 187.456 186.815 186.922 186.876C186.393 186.935 185.821 186.881 185.206 186.717ZM196.883 180.628L196.53 181.945L191.926 180.711L192.278 179.394L196.883 180.628ZM194.054 177.705L195.695 178.145L193.559 186.119C193.473 186.438 193.457 186.69 193.509 186.877C193.562 187.059 193.655 187.2 193.79 187.299C193.929 187.395 194.088 187.467 194.267 187.515C194.399 187.55 194.517 187.572 194.62 187.58C194.724 187.588 194.805 187.594 194.862 187.598L194.796 189.033C194.691 189.044 194.545 189.044 194.36 189.034C194.174 189.027 193.948 188.99 193.684 188.923C193.25 188.815 192.868 188.63 192.538 188.369C192.208 188.108 191.973 187.779 191.833 187.38C191.692 186.982 191.69 186.528 191.827 186.02L194.054 177.705ZM209.012 184.031C209.093 183.496 208.959 183.028 208.611 182.629C208.264 182.227 207.769 181.939 207.125 181.766C206.664 181.643 206.245 181.609 205.87 181.665C205.495 181.718 205.18 181.845 204.926 182.048C204.676 182.247 204.509 182.507 204.424 182.825C204.352 183.092 204.353 183.339 204.425 183.566C204.501 183.795 204.624 184.002 204.794 184.189C204.968 184.373 205.162 184.54 205.376 184.692C205.592 184.84 205.802 184.97 206.006 185.084L207.028 185.664C207.363 185.848 207.699 186.065 208.035 186.316C208.372 186.567 208.668 186.858 208.925 187.19C209.181 187.521 209.359 187.894 209.46 188.309C209.564 188.726 209.548 189.186 209.413 189.691C209.243 190.328 208.926 190.849 208.465 191.255C208.007 191.661 207.429 191.924 206.73 192.043C206.035 192.162 205.249 192.105 204.371 191.869C203.529 191.644 202.837 191.315 202.294 190.883C201.751 190.452 201.371 189.944 201.155 189.361C200.94 188.773 200.904 188.137 201.049 187.45L202.75 187.906C202.675 188.321 202.716 188.694 202.874 189.027C203.036 189.357 203.281 189.636 203.608 189.865C203.939 190.091 204.323 190.262 204.758 190.379C205.238 190.507 205.684 190.547 206.097 190.497C206.515 190.444 206.869 190.311 207.157 190.098C207.446 189.882 207.64 189.59 207.738 189.225C207.827 188.892 207.805 188.594 207.672 188.33C207.542 188.068 207.335 187.824 207.05 187.599C206.769 187.375 206.442 187.156 206.068 186.942L204.836 186.224C204.002 185.737 203.385 185.186 202.986 184.569C202.59 183.953 202.497 183.254 202.707 182.471C202.88 181.823 203.207 181.305 203.688 180.916C204.169 180.527 204.745 180.28 205.416 180.173C206.089 180.063 206.802 180.109 207.556 180.311C208.317 180.515 208.953 180.829 209.463 181.252C209.977 181.676 210.339 182.167 210.55 182.725C210.762 183.28 210.795 183.861 210.648 184.469L209.012 184.031ZM216.669 185.93L216.317 187.247L211.712 186.013L212.065 184.696L216.669 185.93ZM213.841 183.007L215.482 183.447L213.345 191.421C213.26 191.739 213.243 191.992 213.295 192.178C213.348 192.361 213.442 192.502 213.576 192.601C213.715 192.697 213.874 192.769 214.053 192.817C214.185 192.852 214.303 192.874 214.407 192.882C214.51 192.89 214.591 192.896 214.649 192.9L214.582 194.335C214.477 194.346 214.332 194.346 214.146 194.336C213.96 194.329 213.735 194.292 213.47 194.225C213.037 194.117 212.655 193.932 212.325 193.671C211.995 193.41 211.759 193.08 211.619 192.682C211.479 192.284 211.477 191.83 211.613 191.322L213.841 183.007ZM218.629 195.69C218.095 195.547 217.638 195.319 217.26 195.005C216.882 194.688 216.618 194.306 216.467 193.858C216.32 193.41 216.321 192.911 216.469 192.358C216.596 191.882 216.793 191.515 217.058 191.257C217.323 190.999 217.636 190.822 217.995 190.726C218.354 190.63 218.737 190.588 219.146 190.599C219.555 190.611 219.965 190.646 220.377 190.705C220.897 190.782 221.32 190.844 221.644 190.892C221.97 190.936 222.215 190.933 222.382 190.884C222.548 190.834 222.657 190.71 222.71 190.513L222.721 190.474C222.849 189.995 222.813 189.588 222.613 189.252C222.417 188.917 222.053 188.678 221.522 188.536C220.97 188.388 220.502 188.394 220.118 188.554C219.738 188.711 219.449 188.921 219.248 189.185L217.8 188.421C218.121 187.958 218.498 187.616 218.934 187.395C219.374 187.172 219.844 187.051 220.343 187.032C220.843 187.009 221.348 187.066 221.856 187.202C222.193 187.292 222.539 187.428 222.894 187.609C223.254 187.788 223.571 188.026 223.844 188.323C224.121 188.62 224.314 188.992 224.422 189.436C224.532 189.877 224.504 190.405 224.339 191.02L222.839 196.618L221.237 196.189L221.545 195.036L221.48 195.018C221.317 195.202 221.102 195.368 220.834 195.516C220.567 195.664 220.249 195.761 219.88 195.807C219.511 195.854 219.094 195.814 218.629 195.69ZM219.339 194.468C219.792 194.59 220.204 194.604 220.574 194.511C220.948 194.419 221.258 194.251 221.503 194.007C221.754 193.76 221.924 193.471 222.013 193.138L222.304 192.051C222.23 192.094 222.102 192.118 221.92 192.125C221.742 192.128 221.543 192.12 221.321 192.099C221.1 192.075 220.884 192.051 220.675 192.026C220.467 191.998 220.293 191.975 220.153 191.957C219.824 191.912 219.515 191.902 219.226 191.926C218.941 191.952 218.695 192.033 218.49 192.17C218.289 192.305 218.15 192.518 218.071 192.811C217.962 193.217 218.03 193.565 218.274 193.854C218.519 194.139 218.874 194.344 219.339 194.468ZM225.025 197.204L227.284 188.774L228.87 189.199L228.511 190.538L228.599 190.561C228.874 190.149 229.24 189.865 229.698 189.709C230.16 189.55 230.638 189.537 231.132 189.669C231.234 189.697 231.354 189.733 231.491 189.778C231.632 189.823 231.741 189.862 231.819 189.895L231.398 191.464C231.337 191.428 231.225 191.377 231.063 191.31C230.901 191.239 230.737 191.181 230.568 191.136C230.18 191.032 229.813 191.022 229.465 191.105C229.122 191.186 228.824 191.347 228.57 191.589C228.318 191.827 228.143 192.129 228.045 192.495L226.666 197.643L225.025 197.204ZM237.648 191.551L237.295 192.868L232.691 191.634L233.044 190.317L237.648 191.551ZM234.82 188.628L236.461 189.068L234.324 197.042C234.239 197.361 234.222 197.613 234.274 197.8C234.327 197.982 234.42 198.123 234.555 198.222C234.694 198.318 234.853 198.39 235.032 198.438C235.164 198.473 235.282 198.495 235.385 198.503C235.489 198.511 235.57 198.517 235.628 198.521L235.561 199.956C235.456 199.967 235.311 199.967 235.125 199.957C234.939 199.95 234.713 199.913 234.449 199.846C234.015 199.738 233.633 199.553 233.303 199.292C232.973 199.031 232.738 198.702 232.598 198.303C232.457 197.905 232.455 197.451 232.592 196.943L234.82 188.628ZM238.258 200.861C237.958 200.781 237.728 200.605 237.569 200.335C237.411 200.062 237.373 199.773 237.454 199.469C237.535 199.169 237.711 198.942 237.984 198.788C238.258 198.63 238.545 198.591 238.845 198.671C239.145 198.752 239.374 198.929 239.532 199.202C239.691 199.473 239.73 199.758 239.65 200.058C239.596 200.259 239.495 200.43 239.347 200.571C239.204 200.709 239.037 200.805 238.846 200.86C238.655 200.915 238.459 200.915 238.258 200.861ZM242.635 202.034C242.335 201.953 242.105 201.778 241.946 201.508C241.788 201.234 241.75 200.946 241.831 200.642C241.912 200.342 242.088 200.115 242.361 199.961C242.635 199.803 242.921 199.764 243.221 199.844C243.521 199.924 243.75 200.102 243.909 200.375C244.068 200.645 244.107 200.93 244.026 201.23C243.973 201.432 243.872 201.603 243.724 201.743C243.581 201.882 243.414 201.978 243.223 202.033C243.032 202.087 242.836 202.088 242.635 202.034Z" fill="#061C3D"/>
</svg>
